<mxfile host="app.diagrams.net" agent="Mozilla/5.0 (Windows NT 10.0; Win64; x64) AppleWebKit/537.36 (KHTML, like Gecko) Chrome/130.0.0.0 Safari/537.36 Edg/130.0.0.0" version="24.8.0">
  <diagram name="第 1 页" id="EjcDb8vZrtrxUT8pf2Qq">
    <mxGraphModel dx="607" dy="1523" grid="1" gridSize="10" guides="1" tooltips="1" connect="1" arrows="1" fold="1" page="1" pageScale="1" pageWidth="827" pageHeight="1169" math="0" shadow="0">
      <root>
        <mxCell id="0" />
        <mxCell id="1" parent="0" />
        <mxCell id="7OSFac52b7fZNywMgHIq-33" value="" style="endArrow=none;html=1;rounded=0;fontSize=12;startSize=8;endSize=8;curved=1;fillColor=#f8cecc;strokeColor=#b85450;strokeWidth=3;" edge="1" parent="1">
          <mxGeometry width="50" height="50" relative="1" as="geometry">
            <mxPoint x="640" y="-510" as="sourcePoint" />
            <mxPoint x="640" y="-910" as="targetPoint" />
          </mxGeometry>
        </mxCell>
        <mxCell id="7OSFac52b7fZNywMgHIq-34" value="" style="endArrow=none;html=1;rounded=0;fontSize=12;startSize=8;endSize=8;curved=1;fillColor=#f8cecc;strokeColor=#b85450;strokeWidth=3;" edge="1" parent="1">
          <mxGeometry width="50" height="50" relative="1" as="geometry">
            <mxPoint x="680" y="-510" as="sourcePoint" />
            <mxPoint x="680" y="-910" as="targetPoint" />
          </mxGeometry>
        </mxCell>
        <mxCell id="7OSFac52b7fZNywMgHIq-135" value="" style="endArrow=none;html=1;rounded=0;fontSize=12;startSize=8;endSize=8;curved=1;fillColor=#f8cecc;strokeColor=#b85450;strokeWidth=3;dashed=1;" edge="1" parent="1">
          <mxGeometry width="50" height="50" relative="1" as="geometry">
            <mxPoint x="600" y="-510" as="sourcePoint" />
            <mxPoint x="600" y="-910" as="targetPoint" />
          </mxGeometry>
        </mxCell>
        <mxCell id="zbdh6VpdfGGvIS89XVBJ-1" value="pop" style="rounded=1;whiteSpace=wrap;html=1;" parent="1" vertex="1">
          <mxGeometry x="81" y="-870" width="40" height="10" as="geometry" />
        </mxCell>
        <mxCell id="zbdh6VpdfGGvIS89XVBJ-4" value="pop" style="rounded=1;whiteSpace=wrap;html=1;" parent="1" vertex="1">
          <mxGeometry x="161" y="-870" width="40" height="10" as="geometry" />
        </mxCell>
        <mxCell id="zbdh6VpdfGGvIS89XVBJ-5" value="" style="rounded=1;whiteSpace=wrap;html=1;" parent="1" vertex="1">
          <mxGeometry x="201" y="-870" width="80" height="10" as="geometry" />
        </mxCell>
        <mxCell id="zbdh6VpdfGGvIS89XVBJ-6" value="x0" style="rounded=1;whiteSpace=wrap;html=1;" parent="1" vertex="1">
          <mxGeometry x="81" y="-830" width="40" height="10" as="geometry" />
        </mxCell>
        <mxCell id="zbdh6VpdfGGvIS89XVBJ-7" value="x1" style="rounded=1;whiteSpace=wrap;html=1;" parent="1" vertex="1">
          <mxGeometry x="121" y="-830" width="80" height="10" as="geometry" />
        </mxCell>
        <mxCell id="zbdh6VpdfGGvIS89XVBJ-21" value="0" style="rounded=1;whiteSpace=wrap;html=1;fillColor=#dae8fc;strokeColor=#6c8ebf;" parent="1" vertex="1">
          <mxGeometry x="81" y="328" width="40" height="10" as="geometry" />
        </mxCell>
        <mxCell id="zbdh6VpdfGGvIS89XVBJ-22" value="1" style="rounded=1;whiteSpace=wrap;html=1;fillColor=#dae8fc;strokeColor=#6c8ebf;" parent="1" vertex="1">
          <mxGeometry x="121" y="328" width="40" height="10" as="geometry" />
        </mxCell>
        <mxCell id="zbdh6VpdfGGvIS89XVBJ-23" value="0" style="rounded=1;whiteSpace=wrap;html=1;fillColor=#dae8fc;strokeColor=#6c8ebf;" parent="1" vertex="1">
          <mxGeometry x="161" y="328" width="40" height="10" as="geometry" />
        </mxCell>
        <mxCell id="zbdh6VpdfGGvIS89XVBJ-24" value="1" style="rounded=1;whiteSpace=wrap;html=1;fillColor=#dae8fc;strokeColor=#6c8ebf;" parent="1" vertex="1">
          <mxGeometry x="201" y="328" width="40" height="10" as="geometry" />
        </mxCell>
        <mxCell id="zbdh6VpdfGGvIS89XVBJ-25" value="2" style="rounded=1;whiteSpace=wrap;html=1;fillColor=#dae8fc;strokeColor=#6c8ebf;" parent="1" vertex="1">
          <mxGeometry x="241" y="328" width="40" height="10" as="geometry" />
        </mxCell>
        <mxCell id="zbdh6VpdfGGvIS89XVBJ-31" value="x_data" style="text;html=1;align=center;verticalAlign=middle;whiteSpace=wrap;rounded=0;" parent="1" vertex="1">
          <mxGeometry x="11" y="-840" width="60" height="30" as="geometry" />
        </mxCell>
        <mxCell id="zbdh6VpdfGGvIS89XVBJ-32" value="X" style="rounded=1;whiteSpace=wrap;html=1;" parent="1" vertex="1">
          <mxGeometry x="81" y="-790" width="40" height="10" as="geometry" />
        </mxCell>
        <mxCell id="zbdh6VpdfGGvIS89XVBJ-33" value="x0" style="rounded=1;whiteSpace=wrap;html=1;" parent="1" vertex="1">
          <mxGeometry x="121" y="-790" width="40" height="10" as="geometry" />
        </mxCell>
        <mxCell id="zbdh6VpdfGGvIS89XVBJ-34" value="x1" style="rounded=1;whiteSpace=wrap;html=1;" parent="1" vertex="1">
          <mxGeometry x="161" y="-790" width="80" height="10" as="geometry" />
        </mxCell>
        <mxCell id="zbdh6VpdfGGvIS89XVBJ-36" value="x2" style="rounded=1;whiteSpace=wrap;html=1;" parent="1" vertex="1">
          <mxGeometry x="241" y="-790" width="120" height="10" as="geometry" />
        </mxCell>
        <mxCell id="zbdh6VpdfGGvIS89XVBJ-37" value="latch_final" style="text;html=1;align=center;verticalAlign=middle;whiteSpace=wrap;rounded=0;" parent="1" vertex="1">
          <mxGeometry x="11" y="-800" width="60" height="30" as="geometry" />
        </mxCell>
        <mxCell id="zbdh6VpdfGGvIS89XVBJ-39" value="tap_ptr" style="text;html=1;align=center;verticalAlign=middle;whiteSpace=wrap;rounded=0;fillColor=#dae8fc;strokeColor=#6c8ebf;" parent="1" vertex="1">
          <mxGeometry x="11" y="318" width="60" height="30" as="geometry" />
        </mxCell>
        <mxCell id="7OSFac52b7fZNywMgHIq-132" style="edgeStyle=none;curved=1;rounded=0;orthogonalLoop=1;jettySize=auto;html=1;exitX=0.5;exitY=0;exitDx=0;exitDy=0;fontSize=12;startSize=8;endSize=8;" edge="1" parent="1" source="zbdh6VpdfGGvIS89XVBJ-41" target="7OSFac52b7fZNywMgHIq-129">
          <mxGeometry relative="1" as="geometry" />
        </mxCell>
        <mxCell id="zbdh6VpdfGGvIS89XVBJ-41" value="0" style="rounded=1;whiteSpace=wrap;html=1;" parent="1" vertex="1">
          <mxGeometry x="81" y="-671" width="40" height="10" as="geometry" />
        </mxCell>
        <mxCell id="zbdh6VpdfGGvIS89XVBJ-42" value="1" style="rounded=1;whiteSpace=wrap;html=1;" parent="1" vertex="1">
          <mxGeometry x="121" y="-671" width="80" height="10" as="geometry" />
        </mxCell>
        <mxCell id="zbdh6VpdfGGvIS89XVBJ-45" value="3" style="rounded=1;whiteSpace=wrap;html=1;" parent="1" vertex="1">
          <mxGeometry x="321" y="-671" width="40" height="10" as="geometry" />
        </mxCell>
        <mxCell id="zbdh6VpdfGGvIS89XVBJ-46" value="xram_addr&lt;div&gt;(write)&lt;/div&gt;" style="text;html=1;align=center;verticalAlign=middle;whiteSpace=wrap;rounded=0;" parent="1" vertex="1">
          <mxGeometry x="11" y="-681" width="60" height="30" as="geometry" />
        </mxCell>
        <mxCell id="zbdh6VpdfGGvIS89XVBJ-53" value="1" style="rounded=1;whiteSpace=wrap;html=1;fillColor=#dae8fc;strokeColor=#6c8ebf;" parent="1" vertex="1">
          <mxGeometry x="81" y="-750" width="40" height="10" as="geometry" />
        </mxCell>
        <mxCell id="zbdh6VpdfGGvIS89XVBJ-54" value="0" style="rounded=1;whiteSpace=wrap;html=1;fillColor=#dae8fc;strokeColor=#6c8ebf;" parent="1" vertex="1">
          <mxGeometry x="121" y="-750" width="40" height="10" as="geometry" />
        </mxCell>
        <mxCell id="zbdh6VpdfGGvIS89XVBJ-55" value="1" style="rounded=1;whiteSpace=wrap;html=1;fillColor=#dae8fc;strokeColor=#6c8ebf;" parent="1" vertex="1">
          <mxGeometry x="161" y="-750" width="40" height="10" as="geometry" />
        </mxCell>
        <mxCell id="zbdh6VpdfGGvIS89XVBJ-56" value="0" style="rounded=1;whiteSpace=wrap;html=1;fillColor=#dae8fc;strokeColor=#6c8ebf;" parent="1" vertex="1">
          <mxGeometry x="201" y="-750" width="40" height="10" as="geometry" />
        </mxCell>
        <mxCell id="zbdh6VpdfGGvIS89XVBJ-57" value="0" style="rounded=1;whiteSpace=wrap;html=1;fillColor=#dae8fc;strokeColor=#6c8ebf;" parent="1" vertex="1">
          <mxGeometry x="241" y="-750" width="40" height="10" as="geometry" />
        </mxCell>
        <mxCell id="zbdh6VpdfGGvIS89XVBJ-58" value="sram_we" style="text;html=1;align=center;verticalAlign=middle;whiteSpace=wrap;rounded=0;fillColor=#dae8fc;strokeColor=#6c8ebf;" parent="1" vertex="1">
          <mxGeometry x="11" y="-760" width="60" height="30" as="geometry" />
        </mxCell>
        <mxCell id="zbdh6VpdfGGvIS89XVBJ-60" value="0" style="rounded=1;whiteSpace=wrap;html=1;fillColor=#dae8fc;strokeColor=#6c8ebf;" parent="1" vertex="1">
          <mxGeometry x="281" y="328" width="40" height="10" as="geometry" />
        </mxCell>
        <mxCell id="zbdh6VpdfGGvIS89XVBJ-66" value="1" style="rounded=1;whiteSpace=wrap;html=1;fillColor=#dae8fc;strokeColor=#6c8ebf;" parent="1" vertex="1">
          <mxGeometry x="281" y="-750" width="40" height="10" as="geometry" />
        </mxCell>
        <mxCell id="zbdh6VpdfGGvIS89XVBJ-68" value="1" style="rounded=1;whiteSpace=wrap;html=1;fillColor=#dae8fc;strokeColor=#6c8ebf;" parent="1" vertex="1">
          <mxGeometry x="321" y="328" width="40" height="10" as="geometry" />
        </mxCell>
        <mxCell id="zbdh6VpdfGGvIS89XVBJ-71" value="" style="rounded=1;whiteSpace=wrap;html=1;" parent="1" vertex="1">
          <mxGeometry x="321" y="-870" width="40" height="10" as="geometry" />
        </mxCell>
        <mxCell id="zbdh6VpdfGGvIS89XVBJ-74" value="0" style="rounded=1;whiteSpace=wrap;html=1;fillColor=#dae8fc;strokeColor=#6c8ebf;" parent="1" vertex="1">
          <mxGeometry x="321" y="-750" width="40" height="10" as="geometry" />
        </mxCell>
        <mxCell id="zbdh6VpdfGGvIS89XVBJ-100" value="" style="rounded=1;whiteSpace=wrap;html=1;" parent="1" vertex="1">
          <mxGeometry x="121" y="-870" width="40" height="10" as="geometry" />
        </mxCell>
        <mxCell id="zbdh6VpdfGGvIS89XVBJ-109" value="2" style="rounded=1;whiteSpace=wrap;html=1;" parent="1" vertex="1">
          <mxGeometry x="201" y="-671" width="120" height="10" as="geometry" />
        </mxCell>
        <mxCell id="7OSFac52b7fZNywMgHIq-19" style="edgeStyle=none;curved=1;rounded=0;orthogonalLoop=1;jettySize=auto;html=1;exitX=0.5;exitY=1;exitDx=0;exitDy=0;entryX=0.5;entryY=0;entryDx=0;entryDy=0;fontSize=12;startSize=8;endSize=8;" edge="1" parent="1">
          <mxGeometry relative="1" as="geometry">
            <mxPoint x="621" y="-860" as="sourcePoint" />
            <mxPoint x="661" y="-830" as="targetPoint" />
          </mxGeometry>
        </mxCell>
        <mxCell id="lEjgdPn8LzuLTRAEh8SZ-2" value="pop" style="rounded=1;whiteSpace=wrap;html=1;" parent="1" vertex="1">
          <mxGeometry x="441" y="-870" width="40" height="10" as="geometry" />
        </mxCell>
        <mxCell id="lEjgdPn8LzuLTRAEh8SZ-3" value="x10" style="rounded=1;whiteSpace=wrap;html=1;" parent="1" vertex="1">
          <mxGeometry x="441" y="-830" width="40" height="10" as="geometry" />
        </mxCell>
        <mxCell id="lEjgdPn8LzuLTRAEh8SZ-7" value="0" style="rounded=1;whiteSpace=wrap;html=1;" parent="1" vertex="1">
          <mxGeometry x="441" y="-671" width="40" height="10" as="geometry" />
        </mxCell>
        <mxCell id="lEjgdPn8LzuLTRAEh8SZ-8" value="1" style="rounded=1;whiteSpace=wrap;html=1;fillColor=#dae8fc;strokeColor=#6c8ebf;" parent="1" vertex="1">
          <mxGeometry x="441" y="-750" width="40" height="10" as="geometry" />
        </mxCell>
        <mxCell id="lEjgdPn8LzuLTRAEh8SZ-9" value="" style="endArrow=none;dashed=1;html=1;dashPattern=1 3;strokeWidth=2;rounded=0;exitX=1;exitY=0.5;exitDx=0;exitDy=0;entryX=0;entryY=0.5;entryDx=0;entryDy=0;fillColor=#dae8fc;strokeColor=#6c8ebf;" parent="1" edge="1" target="lEjgdPn8LzuLTRAEh8SZ-8" source="zbdh6VpdfGGvIS89XVBJ-74">
          <mxGeometry width="50" height="50" relative="1" as="geometry">
            <mxPoint x="371" y="-745.29" as="sourcePoint" />
            <mxPoint x="425" y="-745" as="targetPoint" />
          </mxGeometry>
        </mxCell>
        <mxCell id="lEjgdPn8LzuLTRAEh8SZ-12" value="" style="endArrow=none;dashed=1;html=1;dashPattern=1 3;strokeWidth=2;rounded=0;exitX=1;exitY=0.5;exitDx=0;exitDy=0;entryX=0;entryY=0.5;entryDx=0;entryDy=0;" parent="1" edge="1" target="lEjgdPn8LzuLTRAEh8SZ-7" source="zbdh6VpdfGGvIS89XVBJ-45">
          <mxGeometry width="50" height="50" relative="1" as="geometry">
            <mxPoint x="381" y="-666" as="sourcePoint" />
            <mxPoint x="435" y="-665.71" as="targetPoint" />
          </mxGeometry>
        </mxCell>
        <mxCell id="lEjgdPn8LzuLTRAEh8SZ-14" value="" style="endArrow=none;dashed=1;html=1;dashPattern=1 3;strokeWidth=2;rounded=0;exitX=1;exitY=0.5;exitDx=0;exitDy=0;entryX=0;entryY=0.5;entryDx=0;entryDy=0;" parent="1" edge="1" target="lEjgdPn8LzuLTRAEh8SZ-2" source="zbdh6VpdfGGvIS89XVBJ-71">
          <mxGeometry width="50" height="50" relative="1" as="geometry">
            <mxPoint x="371" y="-865.86" as="sourcePoint" />
            <mxPoint x="425" y="-865.5699999999999" as="targetPoint" />
          </mxGeometry>
        </mxCell>
        <mxCell id="lEjgdPn8LzuLTRAEh8SZ-15" value="" style="endArrow=none;dashed=1;html=1;dashPattern=1 3;strokeWidth=2;rounded=0;exitX=1;exitY=0.5;exitDx=0;exitDy=0;entryX=0;entryY=0.5;entryDx=0;entryDy=0;" parent="1" edge="1" target="lEjgdPn8LzuLTRAEh8SZ-3">
          <mxGeometry width="50" height="50" relative="1" as="geometry">
            <mxPoint x="361" y="-825" as="sourcePoint" />
            <mxPoint x="425" y="-825.28" as="targetPoint" />
          </mxGeometry>
        </mxCell>
        <mxCell id="lEjgdPn8LzuLTRAEh8SZ-16" value="" style="endArrow=none;dashed=1;html=1;dashPattern=1 3;strokeWidth=2;rounded=0;exitX=1;exitY=0.5;exitDx=0;exitDy=0;entryX=0;entryY=0.5;entryDx=0;entryDy=0;" parent="1" edge="1" source="zbdh6VpdfGGvIS89XVBJ-36">
          <mxGeometry width="50" height="50" relative="1" as="geometry">
            <mxPoint x="371" y="-785.5699999999999" as="sourcePoint" />
            <mxPoint x="441" y="-785" as="targetPoint" />
          </mxGeometry>
        </mxCell>
        <mxCell id="7OSFac52b7fZNywMgHIq-23" style="edgeStyle=none;curved=1;rounded=0;orthogonalLoop=1;jettySize=auto;html=1;exitX=0.5;exitY=1;exitDx=0;exitDy=0;entryX=0.5;entryY=0;entryDx=0;entryDy=0;fontSize=12;startSize=8;endSize=8;" edge="1" parent="1">
          <mxGeometry relative="1" as="geometry">
            <mxPoint x="661" y="-820" as="sourcePoint" />
            <mxPoint x="701" y="-790" as="targetPoint" />
          </mxGeometry>
        </mxCell>
        <mxCell id="lEjgdPn8LzuLTRAEh8SZ-17" value="x11" style="rounded=1;whiteSpace=wrap;html=1;arcSize=0;" parent="1" vertex="1">
          <mxGeometry x="481" y="-830" width="40" height="10" as="geometry" />
        </mxCell>
        <mxCell id="lEjgdPn8LzuLTRAEh8SZ-18" value="1" style="rounded=1;whiteSpace=wrap;html=1;" parent="1" vertex="1">
          <mxGeometry x="481" y="-671" width="40" height="10" as="geometry" />
        </mxCell>
        <mxCell id="7OSFac52b7fZNywMgHIq-1" value="0" style="rounded=1;whiteSpace=wrap;html=1;fillColor=#dae8fc;strokeColor=#6c8ebf;" vertex="1" parent="1">
          <mxGeometry x="481" y="-750" width="40" height="10" as="geometry" />
        </mxCell>
        <mxCell id="7OSFac52b7fZNywMgHIq-2" value="" style="endArrow=none;dashed=1;html=1;dashPattern=1 3;strokeWidth=2;rounded=0;entryX=0;entryY=0.5;entryDx=0;entryDy=0;exitX=1;exitY=0.5;exitDx=0;exitDy=0;" edge="1" parent="1" source="lEjgdPn8LzuLTRAEh8SZ-17" target="7OSFac52b7fZNywMgHIq-21">
          <mxGeometry width="50" height="50" relative="1" as="geometry">
            <mxPoint x="531" y="-825.34" as="sourcePoint" />
            <mxPoint x="591" y="-825" as="targetPoint" />
          </mxGeometry>
        </mxCell>
        <mxCell id="7OSFac52b7fZNywMgHIq-3" value="x12" style="rounded=1;whiteSpace=wrap;html=1;arcSize=0;" vertex="1" parent="1">
          <mxGeometry x="641" y="-830" width="119" height="10" as="geometry" />
        </mxCell>
        <mxCell id="7OSFac52b7fZNywMgHIq-5" value="" style="endArrow=none;dashed=1;html=1;dashPattern=1 3;strokeWidth=2;rounded=0;fillColor=#dae8fc;strokeColor=#6c8ebf;" edge="1" parent="1">
          <mxGeometry width="50" height="50" relative="1" as="geometry">
            <mxPoint x="531" y="-746" as="sourcePoint" />
            <mxPoint x="585" y="-745.71" as="targetPoint" />
          </mxGeometry>
        </mxCell>
        <mxCell id="7OSFac52b7fZNywMgHIq-8" value="" style="endArrow=none;dashed=1;html=1;dashPattern=1 3;strokeWidth=2;rounded=0;exitX=1;exitY=0.5;exitDx=0;exitDy=0;entryX=0;entryY=0.5;entryDx=0;entryDy=0;" edge="1" parent="1" source="lEjgdPn8LzuLTRAEh8SZ-18" target="7OSFac52b7fZNywMgHIq-46">
          <mxGeometry width="50" height="50" relative="1" as="geometry">
            <mxPoint x="533" y="-666.69" as="sourcePoint" />
            <mxPoint x="587" y="-666.4" as="targetPoint" />
          </mxGeometry>
        </mxCell>
        <mxCell id="7OSFac52b7fZNywMgHIq-9" value="pop" style="rounded=1;whiteSpace=wrap;html=1;" vertex="1" parent="1">
          <mxGeometry x="601" y="-870" width="40" height="10" as="geometry" />
        </mxCell>
        <mxCell id="7OSFac52b7fZNywMgHIq-12" value="" style="endArrow=none;dashed=1;html=1;dashPattern=1 3;strokeWidth=2;rounded=0;exitX=1;exitY=0.5;exitDx=0;exitDy=0;entryX=0;entryY=0.5;entryDx=0;entryDy=0;" edge="1" parent="1" source="7OSFac52b7fZNywMgHIq-18" target="7OSFac52b7fZNywMgHIq-9">
          <mxGeometry width="50" height="50" relative="1" as="geometry">
            <mxPoint x="531" y="-865.34" as="sourcePoint" />
            <mxPoint x="585" y="-865.05" as="targetPoint" />
          </mxGeometry>
        </mxCell>
        <mxCell id="7OSFac52b7fZNywMgHIq-14" value="1" style="rounded=1;whiteSpace=wrap;html=1;fillColor=#dae8fc;strokeColor=#6c8ebf;" vertex="1" parent="1">
          <mxGeometry x="601" y="-750" width="40" height="10" as="geometry" />
        </mxCell>
        <mxCell id="7OSFac52b7fZNywMgHIq-15" value="" style="endArrow=classic;html=1;rounded=0;fontSize=12;startSize=8;endSize=8;curved=1;entryX=0.5;entryY=0;entryDx=0;entryDy=0;" edge="1" parent="1" target="lEjgdPn8LzuLTRAEh8SZ-2">
          <mxGeometry width="50" height="50" relative="1" as="geometry">
            <mxPoint x="461" y="-920" as="sourcePoint" />
            <mxPoint x="511" y="-970" as="targetPoint" />
          </mxGeometry>
        </mxCell>
        <mxCell id="7OSFac52b7fZNywMgHIq-17" value="&lt;p style=&quot;line-height: 100%;&quot;&gt;&lt;font style=&quot;font-size: 8px;&quot;&gt;&lt;b&gt;Calculate last data pop&lt;/b&gt;&lt;/font&gt;&lt;/p&gt;" style="text;html=1;align=center;verticalAlign=middle;whiteSpace=wrap;rounded=0;fontSize=16;fillColor=#f8cecc;strokeColor=#b85450;" vertex="1" parent="1">
          <mxGeometry x="396" y="-930" width="130" height="10" as="geometry" />
        </mxCell>
        <mxCell id="7OSFac52b7fZNywMgHIq-18" value="" style="rounded=1;whiteSpace=wrap;html=1;" vertex="1" parent="1">
          <mxGeometry x="481" y="-870" width="40" height="10" as="geometry" />
        </mxCell>
        <mxCell id="7OSFac52b7fZNywMgHIq-20" value="x10" style="rounded=1;whiteSpace=wrap;html=1;" vertex="1" parent="1">
          <mxGeometry x="441" y="-790" width="80" height="10" as="geometry" />
        </mxCell>
        <mxCell id="7OSFac52b7fZNywMgHIq-21" value="x11" style="rounded=1;whiteSpace=wrap;html=1;arcSize=0;" vertex="1" parent="1">
          <mxGeometry x="601" y="-830" width="40" height="10" as="geometry" />
        </mxCell>
        <mxCell id="7OSFac52b7fZNywMgHIq-22" style="edgeStyle=none;curved=1;rounded=0;orthogonalLoop=1;jettySize=auto;html=1;exitX=0.5;exitY=1;exitDx=0;exitDy=0;entryX=0.5;entryY=0;entryDx=0;entryDy=0;fontSize=12;startSize=8;endSize=8;" edge="1" parent="1">
          <mxGeometry relative="1" as="geometry">
            <mxPoint x="101" y="-860" as="sourcePoint" />
            <mxPoint x="141" y="-830" as="targetPoint" />
          </mxGeometry>
        </mxCell>
        <mxCell id="7OSFac52b7fZNywMgHIq-24" value="0" style="rounded=1;whiteSpace=wrap;html=1;fillColor=#dae8fc;strokeColor=#6c8ebf;" vertex="1" parent="1">
          <mxGeometry x="641" y="-750" width="40" height="10" as="geometry" />
        </mxCell>
        <mxCell id="7OSFac52b7fZNywMgHIq-25" value="x11" style="rounded=1;whiteSpace=wrap;html=1;arcSize=0;" vertex="1" parent="1">
          <mxGeometry x="601" y="-790" width="80" height="10" as="geometry" />
        </mxCell>
        <mxCell id="7OSFac52b7fZNywMgHIq-26" value="x12" style="rounded=1;whiteSpace=wrap;html=1;arcSize=0;" vertex="1" parent="1">
          <mxGeometry x="681" y="-790" width="79" height="10" as="geometry" />
        </mxCell>
        <mxCell id="7OSFac52b7fZNywMgHIq-27" value="" style="endArrow=none;dashed=1;html=1;dashPattern=1 3;strokeWidth=2;rounded=0;entryX=0;entryY=0.5;entryDx=0;entryDy=0;exitX=1;exitY=0.5;exitDx=0;exitDy=0;" edge="1" parent="1" source="7OSFac52b7fZNywMgHIq-20" target="7OSFac52b7fZNywMgHIq-25">
          <mxGeometry width="50" height="50" relative="1" as="geometry">
            <mxPoint x="561" y="-785" as="sourcePoint" />
            <mxPoint x="591" y="-790" as="targetPoint" />
          </mxGeometry>
        </mxCell>
        <mxCell id="7OSFac52b7fZNywMgHIq-28" value="" style="shape=flexArrow;endArrow=classic;html=1;rounded=0;fontSize=12;startSize=8;endSize=8;curved=1;fillColor=#f8cecc;strokeColor=#b85450;" edge="1" parent="1">
          <mxGeometry width="50" height="50" relative="1" as="geometry">
            <mxPoint x="660.5500000000001" y="-510" as="sourcePoint" />
            <mxPoint x="660.8171428571429" y="-455" as="targetPoint" />
          </mxGeometry>
        </mxCell>
        <mxCell id="7OSFac52b7fZNywMgHIq-32" value="&lt;h1 style=&quot;margin-top: 0px;&quot;&gt;Cal_x_data cycle&amp;nbsp; &amp;nbsp;&lt;/h1&gt;&lt;p&gt;1. xdata will input to PE Calculate the result&lt;/p&gt;&lt;p&gt;2. xdata will write latch_final&lt;/p&gt;&lt;p&gt;3. output result.&lt;/p&gt;" style="text;html=1;whiteSpace=wrap;overflow=hidden;rounded=0;" vertex="1" parent="1">
          <mxGeometry x="568" y="-430" width="252" height="130" as="geometry" />
        </mxCell>
        <mxCell id="7OSFac52b7fZNywMgHIq-35" value="pop" style="text;html=1;align=center;verticalAlign=middle;whiteSpace=wrap;rounded=0;" vertex="1" parent="1">
          <mxGeometry x="14" y="-880" width="60" height="30" as="geometry" />
        </mxCell>
        <mxCell id="7OSFac52b7fZNywMgHIq-39" value="" style="rounded=1;whiteSpace=wrap;html=1;" vertex="1" parent="1">
          <mxGeometry x="641" y="-870" width="40" height="10" as="geometry" />
        </mxCell>
        <mxCell id="7OSFac52b7fZNywMgHIq-41" value="" style="rounded=1;whiteSpace=wrap;html=1;" vertex="1" parent="1">
          <mxGeometry x="681" y="-870" width="79" height="10" as="geometry" />
        </mxCell>
        <mxCell id="7OSFac52b7fZNywMgHIq-42" value="0" style="rounded=1;whiteSpace=wrap;html=1;fillColor=#dae8fc;strokeColor=#6c8ebf;" vertex="1" parent="1">
          <mxGeometry x="681" y="-750" width="40" height="10" as="geometry" />
        </mxCell>
        <mxCell id="7OSFac52b7fZNywMgHIq-45" value="2" style="rounded=1;whiteSpace=wrap;html=1;" vertex="1" parent="1">
          <mxGeometry x="641" y="-671" width="119" height="10" as="geometry" />
        </mxCell>
        <mxCell id="7OSFac52b7fZNywMgHIq-46" value="1" style="rounded=1;whiteSpace=wrap;html=1;" vertex="1" parent="1">
          <mxGeometry x="601" y="-671" width="40" height="10" as="geometry" />
        </mxCell>
        <mxCell id="7OSFac52b7fZNywMgHIq-52" value="&lt;h1 style=&quot;margin-top: 0px;&quot;&gt;SRAM R/W Clock&lt;/h1&gt;&lt;p&gt;For 11 tap calculate need but only have ten xdata ram. we need latch the input data and write it to sram in next times x_data input.&lt;/p&gt;" style="text;html=1;whiteSpace=wrap;overflow=hidden;rounded=0;" vertex="1" parent="1">
          <mxGeometry x="31" y="-1010" width="230" height="120" as="geometry" />
        </mxCell>
        <mxCell id="7OSFac52b7fZNywMgHIq-53" value="&lt;h1 style=&quot;margin-top: 0px;&quot;&gt;Address Generate&lt;/h1&gt;&lt;p&gt;tap_ptr : reset in final tap calculate(so need use xram_addr to judge) , every cycle add one.&lt;/p&gt;&lt;p&gt;stam_ptr : reset in final tap calculate to xram_addr , every cycle sub one.&amp;nbsp;&lt;/p&gt;&lt;p&gt;&lt;br&gt;&lt;/p&gt;&lt;p&gt;&lt;br&gt;&lt;/p&gt;" style="text;html=1;whiteSpace=wrap;overflow=hidden;rounded=0;" vertex="1" parent="1">
          <mxGeometry x="17" y="10" width="220" height="190" as="geometry" />
        </mxCell>
        <mxCell id="7OSFac52b7fZNywMgHIq-91" style="edgeStyle=elbowEdgeStyle;rounded=0;orthogonalLoop=1;jettySize=auto;html=1;exitX=0.5;exitY=1;exitDx=0;exitDy=0;fontSize=12;startSize=8;endSize=8;elbow=vertical;entryX=0.5;entryY=1;entryDx=0;entryDy=0;" edge="1" parent="1" source="7OSFac52b7fZNywMgHIq-82" target="7OSFac52b7fZNywMgHIq-87">
          <mxGeometry relative="1" as="geometry">
            <mxPoint x="380.7586206896551" y="160" as="targetPoint" />
            <Array as="points">
              <mxPoint x="341" y="150" />
            </Array>
          </mxGeometry>
        </mxCell>
        <mxCell id="7OSFac52b7fZNywMgHIq-82" value="AG" style="rounded=0;whiteSpace=wrap;html=1;" vertex="1" parent="1">
          <mxGeometry x="361" y="70" width="40" height="60" as="geometry" />
        </mxCell>
        <mxCell id="7OSFac52b7fZNywMgHIq-83" value="" style="endArrow=classic;html=1;rounded=0;fontSize=12;startSize=8;endSize=8;curved=1;entryX=0;entryY=0.5;entryDx=0;entryDy=0;" edge="1" parent="1" target="7OSFac52b7fZNywMgHIq-82">
          <mxGeometry width="50" height="50" relative="1" as="geometry">
            <mxPoint x="321" y="100" as="sourcePoint" />
            <mxPoint x="291" y="100" as="targetPoint" />
          </mxGeometry>
        </mxCell>
        <mxCell id="7OSFac52b7fZNywMgHIq-84" value="" style="endArrow=classic;html=1;rounded=0;fontSize=12;startSize=8;endSize=8;curved=1;" edge="1" parent="1">
          <mxGeometry width="50" height="50" relative="1" as="geometry">
            <mxPoint x="401" y="80" as="sourcePoint" />
            <mxPoint x="431" y="80" as="targetPoint" />
          </mxGeometry>
        </mxCell>
        <mxCell id="7OSFac52b7fZNywMgHIq-85" value="" style="endArrow=classic;html=1;rounded=0;fontSize=12;startSize=8;endSize=8;curved=1;" edge="1" parent="1">
          <mxGeometry width="50" height="50" relative="1" as="geometry">
            <mxPoint x="401" y="114.65999999999997" as="sourcePoint" />
            <mxPoint x="431" y="114.65999999999997" as="targetPoint" />
          </mxGeometry>
        </mxCell>
        <mxCell id="7OSFac52b7fZNywMgHIq-87" value="&lt;p style=&quot;line-height: 100%;&quot;&gt;&lt;font style=&quot;font-size: 8px;&quot;&gt;xram_addr&lt;/font&gt;&lt;/p&gt;" style="text;html=1;align=center;verticalAlign=middle;whiteSpace=wrap;rounded=0;fontSize=16;fillColor=#dae8fc;strokeColor=#6c8ebf;" vertex="1" parent="1">
          <mxGeometry x="271" y="90" width="50" height="20" as="geometry" />
        </mxCell>
        <mxCell id="7OSFac52b7fZNywMgHIq-89" value="&lt;p style=&quot;line-height: 100%;&quot;&gt;&lt;font style=&quot;font-size: 8px;&quot;&gt;sram_ptr&lt;/font&gt;&lt;/p&gt;" style="text;html=1;align=center;verticalAlign=middle;whiteSpace=wrap;rounded=0;fontSize=16;fillColor=#fff2cc;strokeColor=#d6b656;" vertex="1" parent="1">
          <mxGeometry x="432" y="70" width="50" height="20" as="geometry" />
        </mxCell>
        <mxCell id="7OSFac52b7fZNywMgHIq-90" value="&lt;p style=&quot;line-height: 100%;&quot;&gt;&lt;span style=&quot;font-size: 8px;&quot;&gt;tap_ptr&lt;/span&gt;&lt;/p&gt;" style="text;html=1;align=center;verticalAlign=middle;whiteSpace=wrap;rounded=0;fontSize=16;fillColor=#fff2cc;strokeColor=#d6b656;" vertex="1" parent="1">
          <mxGeometry x="432" y="105" width="50" height="20" as="geometry" />
        </mxCell>
        <mxCell id="7OSFac52b7fZNywMgHIq-123" value="x2" style="rounded=1;whiteSpace=wrap;html=1;" vertex="1" parent="1">
          <mxGeometry x="201" y="-830" width="120" height="10" as="geometry" />
        </mxCell>
        <mxCell id="7OSFac52b7fZNywMgHIq-124" value="x3" style="rounded=1;whiteSpace=wrap;html=1;" vertex="1" parent="1">
          <mxGeometry x="321" y="-830" width="40" height="10" as="geometry" />
        </mxCell>
        <mxCell id="7OSFac52b7fZNywMgHIq-125" value="pop" style="rounded=1;whiteSpace=wrap;html=1;" vertex="1" parent="1">
          <mxGeometry x="281" y="-870" width="40" height="10" as="geometry" />
        </mxCell>
        <mxCell id="7OSFac52b7fZNywMgHIq-128" value="" style="endArrow=classic;html=1;rounded=0;fontSize=12;startSize=8;endSize=8;curved=1;entryX=0.5;entryY=1;entryDx=0;entryDy=0;" edge="1" parent="1" source="7OSFac52b7fZNywMgHIq-129" target="zbdh6VpdfGGvIS89XVBJ-53">
          <mxGeometry width="50" height="50" relative="1" as="geometry">
            <mxPoint x="101" y="-686" as="sourcePoint" />
            <mxPoint x="101" y="-636" as="targetPoint" />
          </mxGeometry>
        </mxCell>
        <mxCell id="7OSFac52b7fZNywMgHIq-129" value="&lt;p style=&quot;line-height: 50%;&quot;&gt;&lt;font style=&quot;font-size: 8px;&quot;&gt;&lt;b&gt;write sram[xram_addr]&lt;/b&gt;&lt;/font&gt;&lt;/p&gt;" style="text;html=1;align=center;verticalAlign=middle;whiteSpace=wrap;rounded=0;fontSize=16;fillColor=#f8cecc;strokeColor=#b85450;" vertex="1" parent="1">
          <mxGeometry x="36" y="-718" width="130" height="20" as="geometry" />
        </mxCell>
        <mxCell id="7OSFac52b7fZNywMgHIq-136" value="" style="shape=flexArrow;endArrow=classic;html=1;rounded=0;fontSize=12;startSize=8;endSize=8;curved=1;fillColor=#f8cecc;strokeColor=#b85450;" edge="1" parent="1">
          <mxGeometry width="50" height="50" relative="1" as="geometry">
            <mxPoint x="620.79" y="-910" as="sourcePoint" />
            <mxPoint x="620.79" y="-960" as="targetPoint" />
          </mxGeometry>
        </mxCell>
        <mxCell id="7OSFac52b7fZNywMgHIq-137" value="&lt;p style=&quot;line-height: 100%; font-size: 10px;&quot;&gt;cal_tap_final&lt;/p&gt;" style="text;html=1;align=center;verticalAlign=middle;whiteSpace=wrap;rounded=0;fontSize=16;fillColor=#d5e8d4;strokeColor=#82b366;" vertex="1" parent="1">
          <mxGeometry x="591" y="-1000" width="60" height="30" as="geometry" />
        </mxCell>
        <mxCell id="7OSFac52b7fZNywMgHIq-138" value="&lt;p style=&quot;line-height: 100%; font-size: 10px;&quot;&gt;cal_x_data&lt;/p&gt;" style="text;html=1;align=center;verticalAlign=middle;whiteSpace=wrap;rounded=0;fontSize=16;fillColor=#d5e8d4;strokeColor=#82b366;" vertex="1" parent="1">
          <mxGeometry x="686.5" y="-495" width="60" height="30" as="geometry" />
        </mxCell>
        <mxCell id="7OSFac52b7fZNywMgHIq-141" value="&lt;h1 style=&quot;margin-top: 0px;&quot;&gt;Consider&amp;nbsp;&lt;/h1&gt;&lt;p&gt;tap_ptr : reset in final tap calculate(so need use xram_addr to judge) , every cycle add one.&lt;/p&gt;&lt;p&gt;stam_ptr : reset in final tap calculate to xram_addr , every cycle sub one.&amp;nbsp;&lt;/p&gt;&lt;p&gt;&lt;br&gt;&lt;/p&gt;&lt;p&gt;&lt;br&gt;&lt;/p&gt;" style="text;html=1;whiteSpace=wrap;overflow=hidden;rounded=0;" vertex="1" parent="1">
          <mxGeometry y="1840" width="220" height="190" as="geometry" />
        </mxCell>
        <mxCell id="7OSFac52b7fZNywMgHIq-144" value="&lt;p style=&quot;line-height: 100%;&quot;&gt;&lt;font style=&quot;font-size: 12px;&quot;&gt;need to consider the software data late transfer&lt;/font&gt;&lt;/p&gt;" style="text;html=1;align=center;verticalAlign=middle;whiteSpace=wrap;rounded=0;fontSize=16;fillColor=#e1d5e7;strokeColor=#9673a6;" vertex="1" parent="1">
          <mxGeometry x="115" y="1844" width="175" height="30" as="geometry" />
        </mxCell>
        <mxCell id="7OSFac52b7fZNywMgHIq-171" value="pop" style="rounded=1;whiteSpace=wrap;html=1;" vertex="1" parent="1">
          <mxGeometry x="81" y="209" width="40" height="10" as="geometry" />
        </mxCell>
        <mxCell id="7OSFac52b7fZNywMgHIq-172" value="pop" style="rounded=1;whiteSpace=wrap;html=1;" vertex="1" parent="1">
          <mxGeometry x="161" y="209" width="40" height="10" as="geometry" />
        </mxCell>
        <mxCell id="7OSFac52b7fZNywMgHIq-173" value="" style="rounded=1;whiteSpace=wrap;html=1;" vertex="1" parent="1">
          <mxGeometry x="201" y="209" width="80" height="10" as="geometry" />
        </mxCell>
        <mxCell id="7OSFac52b7fZNywMgHIq-174" value="" style="rounded=1;whiteSpace=wrap;html=1;" vertex="1" parent="1">
          <mxGeometry x="321" y="209" width="119" height="10" as="geometry" />
        </mxCell>
        <mxCell id="7OSFac52b7fZNywMgHIq-175" value="" style="rounded=1;whiteSpace=wrap;html=1;" vertex="1" parent="1">
          <mxGeometry x="121" y="209" width="40" height="10" as="geometry" />
        </mxCell>
        <mxCell id="7OSFac52b7fZNywMgHIq-181" value="pop" style="text;html=1;align=center;verticalAlign=middle;whiteSpace=wrap;rounded=0;" vertex="1" parent="1">
          <mxGeometry x="14" y="199" width="60" height="30" as="geometry" />
        </mxCell>
        <mxCell id="7OSFac52b7fZNywMgHIq-184" value="pop" style="rounded=1;whiteSpace=wrap;html=1;" vertex="1" parent="1">
          <mxGeometry x="281" y="209" width="40" height="10" as="geometry" />
        </mxCell>
        <mxCell id="7OSFac52b7fZNywMgHIq-186" value="0" style="rounded=1;whiteSpace=wrap;html=1;" vertex="1" parent="1">
          <mxGeometry x="81" y="249" width="40" height="10" as="geometry" />
        </mxCell>
        <mxCell id="7OSFac52b7fZNywMgHIq-187" value="1" style="rounded=1;whiteSpace=wrap;html=1;" vertex="1" parent="1">
          <mxGeometry x="121" y="249" width="80" height="10" as="geometry" />
        </mxCell>
        <mxCell id="7OSFac52b7fZNywMgHIq-188" value="3" style="rounded=1;whiteSpace=wrap;html=1;" vertex="1" parent="1">
          <mxGeometry x="321" y="249" width="159" height="10" as="geometry" />
        </mxCell>
        <mxCell id="7OSFac52b7fZNywMgHIq-189" value="xram_addr" style="text;html=1;align=center;verticalAlign=middle;whiteSpace=wrap;rounded=0;" vertex="1" parent="1">
          <mxGeometry x="11" y="239" width="60" height="30" as="geometry" />
        </mxCell>
        <mxCell id="7OSFac52b7fZNywMgHIq-190" value="2" style="rounded=1;whiteSpace=wrap;html=1;" vertex="1" parent="1">
          <mxGeometry x="201" y="249" width="120" height="10" as="geometry" />
        </mxCell>
        <mxCell id="7OSFac52b7fZNywMgHIq-212" style="edgeStyle=none;curved=1;rounded=0;orthogonalLoop=1;jettySize=auto;html=1;exitX=0.5;exitY=1;exitDx=0;exitDy=0;entryX=0.5;entryY=0;entryDx=0;entryDy=0;fontSize=12;startSize=8;endSize=8;" edge="1" parent="1">
          <mxGeometry relative="1" as="geometry">
            <mxPoint x="90" y="2020" as="sourcePoint" />
            <mxPoint x="130" y="2050" as="targetPoint" />
          </mxGeometry>
        </mxCell>
        <mxCell id="7OSFac52b7fZNywMgHIq-213" style="edgeStyle=none;curved=1;rounded=0;orthogonalLoop=1;jettySize=auto;html=1;exitX=0.5;exitY=1;exitDx=0;exitDy=0;entryX=0.5;entryY=0;entryDx=0;entryDy=0;fontSize=12;startSize=8;endSize=8;" edge="1" parent="1">
          <mxGeometry relative="1" as="geometry">
            <mxPoint x="130" y="2060" as="sourcePoint" />
            <mxPoint x="170" y="2090" as="targetPoint" />
          </mxGeometry>
        </mxCell>
        <mxCell id="7OSFac52b7fZNywMgHIq-214" value="x12" style="rounded=1;whiteSpace=wrap;html=1;arcSize=0;" vertex="1" parent="1">
          <mxGeometry x="110" y="2050" width="80" height="10" as="geometry" />
        </mxCell>
        <mxCell id="7OSFac52b7fZNywMgHIq-215" value="1" style="rounded=1;whiteSpace=wrap;html=1;" vertex="1" parent="1">
          <mxGeometry x="70" y="2010" width="40" height="10" as="geometry" />
        </mxCell>
        <mxCell id="7OSFac52b7fZNywMgHIq-216" value="1" style="rounded=1;whiteSpace=wrap;html=1;fillColor=#fff2cc;strokeColor=#d6b656;" vertex="1" parent="1">
          <mxGeometry x="70" y="2130" width="40" height="10" as="geometry" />
        </mxCell>
        <mxCell id="7OSFac52b7fZNywMgHIq-217" value="x11" style="rounded=1;whiteSpace=wrap;html=1;arcSize=0;" vertex="1" parent="1">
          <mxGeometry x="70" y="2050" width="40" height="10" as="geometry" />
        </mxCell>
        <mxCell id="7OSFac52b7fZNywMgHIq-218" value="0" style="rounded=1;whiteSpace=wrap;html=1;fillColor=#fff2cc;strokeColor=#d6b656;" vertex="1" parent="1">
          <mxGeometry x="110" y="2130" width="40" height="10" as="geometry" />
        </mxCell>
        <mxCell id="7OSFac52b7fZNywMgHIq-219" value="x11" style="rounded=1;whiteSpace=wrap;html=1;arcSize=0;" vertex="1" parent="1">
          <mxGeometry x="70" y="2090" width="80" height="10" as="geometry" />
        </mxCell>
        <mxCell id="7OSFac52b7fZNywMgHIq-220" value="x12" style="rounded=1;whiteSpace=wrap;html=1;arcSize=0;" vertex="1" parent="1">
          <mxGeometry x="150" y="2090" width="40" height="10" as="geometry" />
        </mxCell>
        <mxCell id="7OSFac52b7fZNywMgHIq-221" value="" style="rounded=1;whiteSpace=wrap;html=1;" vertex="1" parent="1">
          <mxGeometry x="110" y="2010" width="40" height="10" as="geometry" />
        </mxCell>
        <mxCell id="7OSFac52b7fZNywMgHIq-222" value="" style="rounded=1;whiteSpace=wrap;html=1;" vertex="1" parent="1">
          <mxGeometry x="150" y="2010" width="40" height="10" as="geometry" />
        </mxCell>
        <mxCell id="7OSFac52b7fZNywMgHIq-223" value="0" style="rounded=1;whiteSpace=wrap;html=1;fillColor=#fff2cc;strokeColor=#d6b656;" vertex="1" parent="1">
          <mxGeometry x="150" y="2130" width="40" height="10" as="geometry" />
        </mxCell>
        <mxCell id="7OSFac52b7fZNywMgHIq-226" value="x_data" style="text;html=1;align=center;verticalAlign=middle;whiteSpace=wrap;rounded=0;" vertex="1" parent="1">
          <mxGeometry x="3" y="2040" width="60" height="30" as="geometry" />
        </mxCell>
        <mxCell id="7OSFac52b7fZNywMgHIq-227" value="latch_final" style="text;html=1;align=center;verticalAlign=middle;whiteSpace=wrap;rounded=0;" vertex="1" parent="1">
          <mxGeometry x="3" y="2080" width="60" height="30" as="geometry" />
        </mxCell>
        <mxCell id="7OSFac52b7fZNywMgHIq-229" value="data_En" style="text;html=1;align=center;verticalAlign=middle;whiteSpace=wrap;rounded=0;" vertex="1" parent="1">
          <mxGeometry x="3" y="2120" width="60" height="30" as="geometry" />
        </mxCell>
        <mxCell id="7OSFac52b7fZNywMgHIq-230" value="ss_tready" style="text;html=1;align=center;verticalAlign=middle;whiteSpace=wrap;rounded=0;" vertex="1" parent="1">
          <mxGeometry x="6" y="2000" width="60" height="30" as="geometry" />
        </mxCell>
        <mxCell id="7OSFac52b7fZNywMgHIq-236" value="0" style="rounded=1;whiteSpace=wrap;html=1;" vertex="1" parent="1">
          <mxGeometry x="391" y="2010" width="40" height="10" as="geometry" />
        </mxCell>
        <mxCell id="7OSFac52b7fZNywMgHIq-237" value="0" style="rounded=1;whiteSpace=wrap;html=1;fillColor=#fff2cc;strokeColor=#d6b656;" vertex="1" parent="1">
          <mxGeometry x="391" y="2130" width="119" height="10" as="geometry" />
        </mxCell>
        <mxCell id="7OSFac52b7fZNywMgHIq-238" value="x11" style="rounded=1;whiteSpace=wrap;html=1;arcSize=0;" vertex="1" parent="1">
          <mxGeometry x="391" y="2050" width="119" height="10" as="geometry" />
        </mxCell>
        <mxCell id="7OSFac52b7fZNywMgHIq-240" value="x11" style="rounded=1;whiteSpace=wrap;html=1;arcSize=0;" vertex="1" parent="1">
          <mxGeometry x="391" y="2090" width="119" height="10" as="geometry" />
        </mxCell>
        <mxCell id="7OSFac52b7fZNywMgHIq-242" value="" style="rounded=1;whiteSpace=wrap;html=1;" vertex="1" parent="1">
          <mxGeometry x="431" y="2010" width="40" height="10" as="geometry" />
        </mxCell>
        <mxCell id="7OSFac52b7fZNywMgHIq-243" value="" style="rounded=1;whiteSpace=wrap;html=1;" vertex="1" parent="1">
          <mxGeometry x="471" y="2010" width="40" height="10" as="geometry" />
        </mxCell>
        <mxCell id="7OSFac52b7fZNywMgHIq-247" value="x_data" style="text;html=1;align=center;verticalAlign=middle;whiteSpace=wrap;rounded=0;" vertex="1" parent="1">
          <mxGeometry x="324" y="2040" width="60" height="30" as="geometry" />
        </mxCell>
        <mxCell id="7OSFac52b7fZNywMgHIq-248" value="latch_final" style="text;html=1;align=center;verticalAlign=middle;whiteSpace=wrap;rounded=0;" vertex="1" parent="1">
          <mxGeometry x="324" y="2080" width="60" height="30" as="geometry" />
        </mxCell>
        <mxCell id="7OSFac52b7fZNywMgHIq-250" value="sram_we" style="text;html=1;align=center;verticalAlign=middle;whiteSpace=wrap;rounded=0;" vertex="1" parent="1">
          <mxGeometry x="324" y="2120" width="60" height="30" as="geometry" />
        </mxCell>
        <mxCell id="7OSFac52b7fZNywMgHIq-251" value="ss_tready" style="text;html=1;align=center;verticalAlign=middle;whiteSpace=wrap;rounded=0;" vertex="1" parent="1">
          <mxGeometry x="333" y="2000" width="60" height="30" as="geometry" />
        </mxCell>
        <mxCell id="7OSFac52b7fZNywMgHIq-252" value="&lt;p style=&quot;line-height: 100%; font-size: 10px;&quot;&gt;cal_tap_final&lt;/p&gt;" style="text;html=1;align=center;verticalAlign=middle;whiteSpace=wrap;rounded=0;fontSize=16;fillColor=#d5e8d4;strokeColor=#82b366;" vertex="1" parent="1">
          <mxGeometry x="381" y="1949" width="60" height="30" as="geometry" />
        </mxCell>
        <mxCell id="7OSFac52b7fZNywMgHIq-253" value="" style="endArrow=classic;html=1;rounded=0;fontSize=12;startSize=8;endSize=8;curved=1;entryX=0.5;entryY=0;entryDx=0;entryDy=0;exitX=0.5;exitY=1;exitDx=0;exitDy=0;" edge="1" parent="1" source="7OSFac52b7fZNywMgHIq-252" target="7OSFac52b7fZNywMgHIq-236">
          <mxGeometry width="50" height="50" relative="1" as="geometry">
            <mxPoint x="420" y="2130" as="sourcePoint" />
            <mxPoint x="470" y="2080" as="targetPoint" />
          </mxGeometry>
        </mxCell>
        <mxCell id="7OSFac52b7fZNywMgHIq-254" value="" style="shape=flexArrow;endArrow=classic;html=1;rounded=0;fontSize=12;startSize=8;endSize=8;curved=1;fillColor=#e1d5e7;strokeColor=#9673a6;" edge="1" parent="1">
          <mxGeometry width="50" height="50" relative="1" as="geometry">
            <mxPoint x="210" y="2070" as="sourcePoint" />
            <mxPoint x="320" y="2070" as="targetPoint" />
          </mxGeometry>
        </mxCell>
        <mxCell id="7OSFac52b7fZNywMgHIq-255" value="&lt;b style=&quot;font-size: 10px;&quot;&gt;if fifo no data&lt;/b&gt;" style="rounded=1;whiteSpace=wrap;html=1;" vertex="1" parent="1">
          <mxGeometry x="215" y="2100" width="95" height="20" as="geometry" />
        </mxCell>
        <mxCell id="7OSFac52b7fZNywMgHIq-257" value="" style="shape=flexArrow;endArrow=classic;html=1;rounded=0;fontSize=12;startSize=8;endSize=8;curved=1;fillColor=#e1d5e7;strokeColor=#9673a6;" edge="1" parent="1">
          <mxGeometry width="50" height="50" relative="1" as="geometry">
            <mxPoint x="530" y="2069.4300000000003" as="sourcePoint" />
            <mxPoint x="590" y="2069.4300000000003" as="targetPoint" />
          </mxGeometry>
        </mxCell>
        <mxCell id="7OSFac52b7fZNywMgHIq-261" style="edgeStyle=elbowEdgeStyle;rounded=0;orthogonalLoop=1;jettySize=auto;html=1;exitX=0.5;exitY=1;exitDx=0;exitDy=0;entryX=0;entryY=0.5;entryDx=0;entryDy=0;fontSize=12;startSize=8;endSize=8;" edge="1" parent="1" source="7OSFac52b7fZNywMgHIq-259" target="7OSFac52b7fZNywMgHIq-260">
          <mxGeometry relative="1" as="geometry" />
        </mxCell>
        <mxCell id="7OSFac52b7fZNywMgHIq-259" value="&lt;b&gt;So :&amp;nbsp;&lt;/b&gt;&lt;div&gt;&lt;b&gt;need to check fifo_empty to enter cal_x_data&lt;/b&gt;&lt;/div&gt;" style="rounded=1;whiteSpace=wrap;html=1;fillColor=#e1d5e7;strokeColor=#9673a6;" vertex="1" parent="1">
          <mxGeometry x="600" y="2040" width="160" height="60" as="geometry" />
        </mxCell>
        <mxCell id="7OSFac52b7fZNywMgHIq-260" value="&lt;p style=&quot;line-height: 100%; font-size: 10px;&quot;&gt;cal_x_data&lt;/p&gt;" style="text;html=1;align=center;verticalAlign=middle;whiteSpace=wrap;rounded=0;fontSize=16;fillColor=#d5e8d4;strokeColor=#82b366;" vertex="1" parent="1">
          <mxGeometry x="720" y="2110" width="60" height="30" as="geometry" />
        </mxCell>
        <mxCell id="7OSFac52b7fZNywMgHIq-262" value="" style="shape=flexArrow;endArrow=classic;html=1;rounded=0;fontSize=12;startSize=8;endSize=8;curved=1;fillColor=#e1d5e7;strokeColor=#9673a6;" edge="1" parent="1">
          <mxGeometry width="50" height="50" relative="1" as="geometry">
            <mxPoint x="620.31" y="2150" as="sourcePoint" />
            <mxPoint x="619.81" y="2200" as="targetPoint" />
          </mxGeometry>
        </mxCell>
        <mxCell id="7OSFac52b7fZNywMgHIq-263" value="0" style="rounded=1;whiteSpace=wrap;html=1;" vertex="1" parent="1">
          <mxGeometry x="561.5" y="2278" width="40" height="10" as="geometry" />
        </mxCell>
        <mxCell id="7OSFac52b7fZNywMgHIq-264" value="0" style="rounded=1;whiteSpace=wrap;html=1;fillColor=#fff2cc;strokeColor=#d6b656;" vertex="1" parent="1">
          <mxGeometry x="561.5" y="2398" width="117.5" height="10" as="geometry" />
        </mxCell>
        <mxCell id="7OSFac52b7fZNywMgHIq-265" value="x11" style="rounded=1;whiteSpace=wrap;html=1;arcSize=0;" vertex="1" parent="1">
          <mxGeometry x="561.5" y="2318" width="159" height="10" as="geometry" />
        </mxCell>
        <mxCell id="7OSFac52b7fZNywMgHIq-266" value="x11" style="rounded=1;whiteSpace=wrap;html=1;arcSize=0;" vertex="1" parent="1">
          <mxGeometry x="561.5" y="2358" width="199" height="10" as="geometry" />
        </mxCell>
        <mxCell id="7OSFac52b7fZNywMgHIq-267" value="" style="rounded=1;whiteSpace=wrap;html=1;" vertex="1" parent="1">
          <mxGeometry x="601.5" y="2278" width="40" height="10" as="geometry" />
        </mxCell>
        <mxCell id="7OSFac52b7fZNywMgHIq-268" value="" style="rounded=1;whiteSpace=wrap;html=1;" vertex="1" parent="1">
          <mxGeometry x="641.5" y="2278" width="40" height="10" as="geometry" />
        </mxCell>
        <mxCell id="7OSFac52b7fZNywMgHIq-269" value="x_data" style="text;html=1;align=center;verticalAlign=middle;whiteSpace=wrap;rounded=0;" vertex="1" parent="1">
          <mxGeometry x="450" y="2308" width="60" height="30" as="geometry" />
        </mxCell>
        <mxCell id="7OSFac52b7fZNywMgHIq-270" value="latch_final" style="text;html=1;align=center;verticalAlign=middle;whiteSpace=wrap;rounded=0;" vertex="1" parent="1">
          <mxGeometry x="450" y="2348" width="60" height="30" as="geometry" />
        </mxCell>
        <mxCell id="7OSFac52b7fZNywMgHIq-271" value="data_En" style="text;html=1;align=center;verticalAlign=middle;whiteSpace=wrap;rounded=0;" vertex="1" parent="1">
          <mxGeometry x="450" y="2388" width="60" height="30" as="geometry" />
        </mxCell>
        <mxCell id="7OSFac52b7fZNywMgHIq-272" value="ss_tready" style="text;html=1;align=center;verticalAlign=middle;whiteSpace=wrap;rounded=0;" vertex="1" parent="1">
          <mxGeometry x="451" y="2268" width="60" height="30" as="geometry" />
        </mxCell>
        <mxCell id="7OSFac52b7fZNywMgHIq-273" value="&lt;p style=&quot;line-height: 100%; font-size: 10px;&quot;&gt;ss_tvalid&lt;/p&gt;" style="text;html=1;align=center;verticalAlign=middle;whiteSpace=wrap;rounded=0;fontSize=16;fillColor=#d5e8d4;strokeColor=#82b366;" vertex="1" parent="1">
          <mxGeometry x="661.5" y="2240" width="75" height="20" as="geometry" />
        </mxCell>
        <mxCell id="7OSFac52b7fZNywMgHIq-274" value="" style="endArrow=classic;html=1;rounded=0;fontSize=12;startSize=8;endSize=8;curved=1;entryX=0.5;entryY=0;entryDx=0;entryDy=0;exitX=0.5;exitY=1;exitDx=0;exitDy=0;" edge="1" parent="1" source="7OSFac52b7fZNywMgHIq-273" target="7OSFac52b7fZNywMgHIq-276">
          <mxGeometry width="50" height="50" relative="1" as="geometry">
            <mxPoint x="590.5" y="2398" as="sourcePoint" />
            <mxPoint x="640.5" y="2348" as="targetPoint" />
          </mxGeometry>
        </mxCell>
        <mxCell id="7OSFac52b7fZNywMgHIq-277" style="edgeStyle=none;curved=1;rounded=0;orthogonalLoop=1;jettySize=auto;html=1;entryX=0.5;entryY=0;entryDx=0;entryDy=0;fontSize=12;startSize=8;endSize=8;" edge="1" parent="1" source="7OSFac52b7fZNywMgHIq-275" target="7OSFac52b7fZNywMgHIq-278">
          <mxGeometry relative="1" as="geometry" />
        </mxCell>
        <mxCell id="7OSFac52b7fZNywMgHIq-275" value="&lt;p style=&quot;line-height: 100%; font-size: 10px;&quot;&gt;cal_x_data (tap == 0)&lt;/p&gt;" style="text;html=1;align=center;verticalAlign=middle;whiteSpace=wrap;rounded=0;fontSize=16;fillColor=#d5e8d4;strokeColor=#82b366;" vertex="1" parent="1">
          <mxGeometry x="675.5" y="2190" width="130" height="30" as="geometry" />
        </mxCell>
        <mxCell id="7OSFac52b7fZNywMgHIq-276" value="1" style="rounded=1;whiteSpace=wrap;html=1;" vertex="1" parent="1">
          <mxGeometry x="680.5" y="2278" width="40" height="10" as="geometry" />
        </mxCell>
        <mxCell id="7OSFac52b7fZNywMgHIq-278" value="" style="rounded=1;whiteSpace=wrap;html=1;" vertex="1" parent="1">
          <mxGeometry x="720.5" y="2278" width="40" height="10" as="geometry" />
        </mxCell>
        <mxCell id="7OSFac52b7fZNywMgHIq-282" value="" style="rounded=1;whiteSpace=wrap;html=1;" vertex="1" parent="1">
          <mxGeometry x="760.5" y="2278" width="40" height="10" as="geometry" />
        </mxCell>
        <mxCell id="7OSFac52b7fZNywMgHIq-283" value="x12" style="rounded=1;whiteSpace=wrap;html=1;" vertex="1" parent="1">
          <mxGeometry x="720.5" y="2318" width="80" height="10" as="geometry" />
        </mxCell>
        <mxCell id="7OSFac52b7fZNywMgHIq-284" value="x12" style="rounded=1;whiteSpace=wrap;html=1;arcSize=0;" vertex="1" parent="1">
          <mxGeometry x="760.5" y="2358" width="40" height="10" as="geometry" />
        </mxCell>
        <mxCell id="7OSFac52b7fZNywMgHIq-285" value="1" style="rounded=1;whiteSpace=wrap;html=1;fillColor=#fff2cc;strokeColor=#d6b656;" vertex="1" parent="1">
          <mxGeometry x="679" y="2398" width="40" height="10" as="geometry" />
        </mxCell>
        <mxCell id="7OSFac52b7fZNywMgHIq-286" value="0" style="rounded=1;whiteSpace=wrap;html=1;fillColor=#fff2cc;strokeColor=#d6b656;" vertex="1" parent="1">
          <mxGeometry x="720.5" y="2398" width="78.5" height="10" as="geometry" />
        </mxCell>
        <mxCell id="7OSFac52b7fZNywMgHIq-289" style="edgeStyle=none;curved=1;rounded=0;orthogonalLoop=1;jettySize=auto;html=1;entryX=0.5;entryY=0;entryDx=0;entryDy=0;fontSize=12;startSize=8;endSize=8;" edge="1" parent="1" source="7OSFac52b7fZNywMgHIq-288" target="7OSFac52b7fZNywMgHIq-263">
          <mxGeometry relative="1" as="geometry" />
        </mxCell>
        <mxCell id="7OSFac52b7fZNywMgHIq-288" value="&lt;p style=&quot;line-height: 100%; font-size: 10px;&quot;&gt;cal tap final&lt;/p&gt;" style="text;html=1;align=center;verticalAlign=middle;whiteSpace=wrap;rounded=0;fontSize=16;fillColor=#d5e8d4;strokeColor=#82b366;" vertex="1" parent="1">
          <mxGeometry x="551.5" y="2230" width="60" height="30" as="geometry" />
        </mxCell>
        <mxCell id="7OSFac52b7fZNywMgHIq-290" value="1" style="rounded=1;whiteSpace=wrap;html=1;fillColor=#dae8fc;strokeColor=#6c8ebf;" vertex="1" parent="1">
          <mxGeometry x="719" y="2480" width="40" height="10" as="geometry" />
        </mxCell>
        <mxCell id="7OSFac52b7fZNywMgHIq-291" value="0" style="rounded=1;whiteSpace=wrap;html=1;fillColor=#dae8fc;strokeColor=#6c8ebf;" vertex="1" parent="1">
          <mxGeometry x="561.5" y="2480" width="157.5" height="10" as="geometry" />
        </mxCell>
        <mxCell id="7OSFac52b7fZNywMgHIq-292" value="0" style="rounded=1;whiteSpace=wrap;html=1;fillColor=#dae8fc;strokeColor=#6c8ebf;" vertex="1" parent="1">
          <mxGeometry x="559" y="2519" width="160" height="10" as="geometry" />
        </mxCell>
        <mxCell id="7OSFac52b7fZNywMgHIq-293" value="10" style="rounded=1;whiteSpace=wrap;html=1;fillColor=#dae8fc;strokeColor=#6c8ebf;" vertex="1" parent="1">
          <mxGeometry x="520" y="2519" width="38.41" height="10" as="geometry" />
        </mxCell>
        <mxCell id="7OSFac52b7fZNywMgHIq-294" value="2" style="rounded=1;whiteSpace=wrap;html=1;" vertex="1" parent="1">
          <mxGeometry x="720.5" y="2440" width="80" height="10" as="geometry" />
        </mxCell>
        <mxCell id="7OSFac52b7fZNywMgHIq-295" value="1" style="rounded=1;whiteSpace=wrap;html=1;" vertex="1" parent="1">
          <mxGeometry x="561.5" y="2440" width="159" height="10" as="geometry" />
        </mxCell>
        <mxCell id="7OSFac52b7fZNywMgHIq-296" value="data_ptr" style="text;html=1;align=center;verticalAlign=middle;whiteSpace=wrap;rounded=0;fillColor=#dae8fc;strokeColor=#6c8ebf;" vertex="1" parent="1">
          <mxGeometry x="448.65999999999997" y="2470" width="60" height="30" as="geometry" />
        </mxCell>
        <mxCell id="7OSFac52b7fZNywMgHIq-297" value="tap_ptr" style="text;html=1;align=center;verticalAlign=middle;whiteSpace=wrap;rounded=0;fillColor=#dae8fc;strokeColor=#6c8ebf;" vertex="1" parent="1">
          <mxGeometry x="448.65999999999997" y="2509" width="60" height="30" as="geometry" />
        </mxCell>
        <mxCell id="7OSFac52b7fZNywMgHIq-298" value="data_addr" style="text;html=1;align=center;verticalAlign=middle;whiteSpace=wrap;rounded=0;" vertex="1" parent="1">
          <mxGeometry x="451" y="2430.5" width="60" height="30" as="geometry" />
        </mxCell>
        <mxCell id="7OSFac52b7fZNywMgHIq-315" value="output" style="rounded=1;whiteSpace=wrap;html=1;" vertex="1" parent="1">
          <mxGeometry x="561.5" y="2559.5" width="199" height="10" as="geometry" />
        </mxCell>
        <mxCell id="7OSFac52b7fZNywMgHIq-316" value="result" style="text;html=1;align=center;verticalAlign=middle;whiteSpace=wrap;rounded=0;" vertex="1" parent="1">
          <mxGeometry x="448.65999999999997" y="2549.5" width="60" height="30" as="geometry" />
        </mxCell>
        <mxCell id="7OSFac52b7fZNywMgHIq-317" value="first" style="rounded=1;whiteSpace=wrap;html=1;" vertex="1" parent="1">
          <mxGeometry x="760.5" y="2559.5" width="40" height="10" as="geometry" />
        </mxCell>
        <mxCell id="7OSFac52b7fZNywMgHIq-331" value="Port Table" style="shape=table;startSize=30;container=1;collapsible=0;childLayout=tableLayout;fontStyle=1" vertex="1" parent="1">
          <mxGeometry x="133.5" y="1440" width="453.5" height="239" as="geometry" />
        </mxCell>
        <mxCell id="7OSFac52b7fZNywMgHIq-332" value="" style="shape=tableRow;horizontal=0;startSize=0;swimlaneHead=0;swimlaneBody=0;strokeColor=inherit;top=0;left=0;bottom=0;right=0;collapsible=0;dropTarget=0;fillColor=none;points=[[0,0.5],[1,0.5]];portConstraint=eastwest;" vertex="1" parent="7OSFac52b7fZNywMgHIq-331">
          <mxGeometry y="30" width="453.5" height="30" as="geometry" />
        </mxCell>
        <mxCell id="7OSFac52b7fZNywMgHIq-333" value="ss_tready" style="shape=partialRectangle;html=1;whiteSpace=wrap;connectable=0;strokeColor=inherit;overflow=hidden;fillColor=none;top=0;left=0;bottom=0;right=0;pointerEvents=1;fontStyle=1" vertex="1" parent="7OSFac52b7fZNywMgHIq-332">
          <mxGeometry width="103" height="30" as="geometry">
            <mxRectangle width="103" height="30" as="alternateBounds" />
          </mxGeometry>
        </mxCell>
        <mxCell id="7OSFac52b7fZNywMgHIq-334" value="&lt;span style=&quot;text-align: left;&quot;&gt;(ss_tvalid &amp;amp; tap_ptr == 0)&lt;/span&gt;" style="shape=partialRectangle;html=1;whiteSpace=wrap;connectable=0;strokeColor=inherit;overflow=hidden;fillColor=none;top=0;left=0;bottom=0;right=0;pointerEvents=1;" vertex="1" parent="7OSFac52b7fZNywMgHIq-332">
          <mxGeometry x="103" width="351" height="30" as="geometry">
            <mxRectangle width="351" height="30" as="alternateBounds" />
          </mxGeometry>
        </mxCell>
        <mxCell id="7OSFac52b7fZNywMgHIq-335" value="" style="shape=tableRow;horizontal=0;startSize=0;swimlaneHead=0;swimlaneBody=0;strokeColor=inherit;top=0;left=0;bottom=0;right=0;collapsible=0;dropTarget=0;fillColor=none;points=[[0,0.5],[1,0.5]];portConstraint=eastwest;" vertex="1" parent="7OSFac52b7fZNywMgHIq-331">
          <mxGeometry y="60" width="453.5" height="30" as="geometry" />
        </mxCell>
        <mxCell id="7OSFac52b7fZNywMgHIq-336" value="&lt;span style=&quot;text-align: left;&quot;&gt;x_data&lt;/span&gt;" style="shape=partialRectangle;html=1;whiteSpace=wrap;connectable=0;strokeColor=inherit;overflow=hidden;fillColor=none;top=0;left=0;bottom=0;right=0;pointerEvents=1;fontStyle=1" vertex="1" parent="7OSFac52b7fZNywMgHIq-335">
          <mxGeometry width="103" height="30" as="geometry">
            <mxRectangle width="103" height="30" as="alternateBounds" />
          </mxGeometry>
        </mxCell>
        <mxCell id="7OSFac52b7fZNywMgHIq-337" value="&lt;span style=&quot;text-align: left;&quot;&gt;ss_tdata.&lt;/span&gt;" style="shape=partialRectangle;html=1;whiteSpace=wrap;connectable=0;strokeColor=inherit;overflow=hidden;fillColor=none;top=0;left=0;bottom=0;right=0;pointerEvents=1;" vertex="1" parent="7OSFac52b7fZNywMgHIq-335">
          <mxGeometry x="103" width="351" height="30" as="geometry">
            <mxRectangle width="351" height="30" as="alternateBounds" />
          </mxGeometry>
        </mxCell>
        <mxCell id="7OSFac52b7fZNywMgHIq-338" value="" style="shape=tableRow;horizontal=0;startSize=0;swimlaneHead=0;swimlaneBody=0;strokeColor=inherit;top=0;left=0;bottom=0;right=0;collapsible=0;dropTarget=0;fillColor=none;points=[[0,0.5],[1,0.5]];portConstraint=eastwest;" vertex="1" parent="7OSFac52b7fZNywMgHIq-331">
          <mxGeometry y="90" width="453.5" height="29" as="geometry" />
        </mxCell>
        <mxCell id="7OSFac52b7fZNywMgHIq-339" value="&lt;span style=&quot;text-align: left;&quot;&gt;latch_final&lt;/span&gt;" style="shape=partialRectangle;html=1;whiteSpace=wrap;connectable=0;strokeColor=inherit;overflow=hidden;fillColor=none;top=0;left=0;bottom=0;right=0;pointerEvents=1;fontStyle=1" vertex="1" parent="7OSFac52b7fZNywMgHIq-338">
          <mxGeometry width="103" height="29" as="geometry">
            <mxRectangle width="103" height="29" as="alternateBounds" />
          </mxGeometry>
        </mxCell>
        <mxCell id="7OSFac52b7fZNywMgHIq-340" value="&lt;span style=&quot;text-align: left;&quot;&gt;latch&amp;nbsp;&lt;/span&gt;&lt;span style=&quot;text-align: left;&quot;&gt;ss_tdata&lt;/span&gt;&lt;span style=&quot;text-align: left;&quot;&gt;.&lt;/span&gt;" style="shape=partialRectangle;html=1;whiteSpace=wrap;connectable=0;strokeColor=inherit;overflow=hidden;fillColor=none;top=0;left=0;bottom=0;right=0;pointerEvents=1;" vertex="1" parent="7OSFac52b7fZNywMgHIq-338">
          <mxGeometry x="103" width="351" height="29" as="geometry">
            <mxRectangle width="351" height="29" as="alternateBounds" />
          </mxGeometry>
        </mxCell>
        <mxCell id="7OSFac52b7fZNywMgHIq-341" value="" style="shape=tableRow;horizontal=0;startSize=0;swimlaneHead=0;swimlaneBody=0;strokeColor=inherit;top=0;left=0;bottom=0;right=0;collapsible=0;dropTarget=0;fillColor=none;points=[[0,0.5],[1,0.5]];portConstraint=eastwest;" vertex="1" parent="7OSFac52b7fZNywMgHIq-331">
          <mxGeometry y="119" width="453.5" height="30" as="geometry" />
        </mxCell>
        <mxCell id="7OSFac52b7fZNywMgHIq-342" value="&lt;div style=&quot;text-align: left;&quot;&gt;&lt;span style=&quot;background-color: initial;&quot;&gt;data_En&lt;/span&gt;&lt;/div&gt;" style="shape=partialRectangle;html=1;whiteSpace=wrap;connectable=0;strokeColor=inherit;overflow=hidden;fillColor=none;top=0;left=0;bottom=0;right=0;pointerEvents=1;fontStyle=1" vertex="1" parent="7OSFac52b7fZNywMgHIq-341">
          <mxGeometry width="103" height="30" as="geometry">
            <mxRectangle width="103" height="30" as="alternateBounds" />
          </mxGeometry>
        </mxCell>
        <mxCell id="7OSFac52b7fZNywMgHIq-343" value="&lt;span style=&quot;text-align: left;&quot;&gt;ss_tready&lt;/span&gt;" style="shape=partialRectangle;html=1;whiteSpace=wrap;connectable=0;strokeColor=inherit;overflow=hidden;fillColor=none;top=0;left=0;bottom=0;right=0;pointerEvents=1;" vertex="1" parent="7OSFac52b7fZNywMgHIq-341">
          <mxGeometry x="103" width="351" height="30" as="geometry">
            <mxRectangle width="351" height="30" as="alternateBounds" />
          </mxGeometry>
        </mxCell>
        <mxCell id="7OSFac52b7fZNywMgHIq-344" value="" style="shape=tableRow;horizontal=0;startSize=0;swimlaneHead=0;swimlaneBody=0;strokeColor=inherit;top=0;left=0;bottom=0;right=0;collapsible=0;dropTarget=0;fillColor=none;points=[[0,0.5],[1,0.5]];portConstraint=eastwest;" vertex="1" parent="7OSFac52b7fZNywMgHIq-331">
          <mxGeometry y="149" width="453.5" height="30" as="geometry" />
        </mxCell>
        <mxCell id="7OSFac52b7fZNywMgHIq-345" value="&lt;div style=&quot;text-align: left;&quot;&gt;&lt;span style=&quot;background-color: initial;&quot;&gt;data_addr&lt;/span&gt;&lt;/div&gt;" style="shape=partialRectangle;html=1;whiteSpace=wrap;connectable=0;strokeColor=inherit;overflow=hidden;fillColor=none;top=0;left=0;bottom=0;right=0;pointerEvents=1;fontStyle=1" vertex="1" parent="7OSFac52b7fZNywMgHIq-344">
          <mxGeometry width="103" height="30" as="geometry">
            <mxRectangle width="103" height="30" as="alternateBounds" />
          </mxGeometry>
        </mxCell>
        <mxCell id="7OSFac52b7fZNywMgHIq-346" value="&lt;span style=&quot;text-align: left;&quot;&gt;if(&lt;/span&gt;&lt;span style=&quot;text-align: left;&quot;&gt;ss_tready&lt;/span&gt;&lt;span style=&quot;text-align: left;&quot;&gt;) xram_addr++&lt;/span&gt;" style="shape=partialRectangle;html=1;whiteSpace=wrap;connectable=0;strokeColor=inherit;overflow=hidden;fillColor=none;top=0;left=0;bottom=0;right=0;pointerEvents=1;" vertex="1" parent="7OSFac52b7fZNywMgHIq-344">
          <mxGeometry x="103" width="351" height="30" as="geometry">
            <mxRectangle width="351" height="30" as="alternateBounds" />
          </mxGeometry>
        </mxCell>
        <mxCell id="7OSFac52b7fZNywMgHIq-347" value="" style="shape=tableRow;horizontal=0;startSize=0;swimlaneHead=0;swimlaneBody=0;strokeColor=inherit;top=0;left=0;bottom=0;right=0;collapsible=0;dropTarget=0;fillColor=none;points=[[0,0.5],[1,0.5]];portConstraint=eastwest;" vertex="1" parent="7OSFac52b7fZNywMgHIq-331">
          <mxGeometry y="179" width="453.5" height="30" as="geometry" />
        </mxCell>
        <mxCell id="7OSFac52b7fZNywMgHIq-348" value="&lt;div style=&quot;text-align: left;&quot;&gt;&lt;span style=&quot;background-color: initial;&quot;&gt;data_ptr&lt;/span&gt;&lt;/div&gt;" style="shape=partialRectangle;html=1;whiteSpace=wrap;connectable=0;strokeColor=inherit;overflow=hidden;fillColor=none;top=0;left=0;bottom=0;right=0;pointerEvents=1;fontStyle=1" vertex="1" parent="7OSFac52b7fZNywMgHIq-347">
          <mxGeometry width="103" height="30" as="geometry">
            <mxRectangle width="103" height="30" as="alternateBounds" />
          </mxGeometry>
        </mxCell>
        <mxCell id="7OSFac52b7fZNywMgHIq-349" value="&lt;span style=&quot;text-align: left;&quot;&gt;reset when&amp;nbsp;&lt;/span&gt;&lt;span style=&quot;text-align: left;&quot;&gt;ss_tready&lt;/span&gt;&lt;span style=&quot;text-align: left;&quot;&gt;, reset to xram_addr, any cycle sub one.&lt;/span&gt;" style="shape=partialRectangle;html=1;whiteSpace=wrap;connectable=0;strokeColor=inherit;overflow=hidden;fillColor=none;top=0;left=0;bottom=0;right=0;pointerEvents=1;" vertex="1" parent="7OSFac52b7fZNywMgHIq-347">
          <mxGeometry x="103" width="351" height="30" as="geometry">
            <mxRectangle width="351" height="30" as="alternateBounds" />
          </mxGeometry>
        </mxCell>
        <mxCell id="7OSFac52b7fZNywMgHIq-350" value="" style="shape=tableRow;horizontal=0;startSize=0;swimlaneHead=0;swimlaneBody=0;strokeColor=inherit;top=0;left=0;bottom=0;right=0;collapsible=0;dropTarget=0;fillColor=none;points=[[0,0.5],[1,0.5]];portConstraint=eastwest;" vertex="1" parent="7OSFac52b7fZNywMgHIq-331">
          <mxGeometry y="209" width="453.5" height="30" as="geometry" />
        </mxCell>
        <mxCell id="7OSFac52b7fZNywMgHIq-351" value="&lt;span style=&quot;text-align: left;&quot;&gt;tap_ptr&lt;/span&gt;" style="shape=partialRectangle;html=1;whiteSpace=wrap;connectable=0;strokeColor=inherit;overflow=hidden;fillColor=none;top=0;left=0;bottom=0;right=0;pointerEvents=1;fontStyle=1" vertex="1" parent="7OSFac52b7fZNywMgHIq-350">
          <mxGeometry width="103" height="30" as="geometry">
            <mxRectangle width="103" height="30" as="alternateBounds" />
          </mxGeometry>
        </mxCell>
        <mxCell id="7OSFac52b7fZNywMgHIq-352" value="&lt;span style=&quot;text-align: left;&quot;&gt;&lt;font color=&quot;#ff0000&quot;&gt;reset in tap_ptr == tap_count, reset to 0, if(cal_x_data trigger)&lt;/font&gt;&lt;/span&gt;&lt;div&gt;&lt;span style=&quot;text-align: left;&quot;&gt;&lt;font color=&quot;#ff0000&quot;&gt;any cycle plus one.&lt;/font&gt;&lt;/span&gt;&lt;/div&gt;" style="shape=partialRectangle;html=1;whiteSpace=wrap;connectable=0;strokeColor=inherit;overflow=hidden;fillColor=none;top=0;left=0;bottom=0;right=0;pointerEvents=1;" vertex="1" parent="7OSFac52b7fZNywMgHIq-350">
          <mxGeometry x="103" width="351" height="30" as="geometry">
            <mxRectangle width="351" height="30" as="alternateBounds" />
          </mxGeometry>
        </mxCell>
        <mxCell id="7OSFac52b7fZNywMgHIq-395" value="&lt;h1 style=&quot;margin-top: 0px;&quot;&gt;PE UNIT&lt;/h1&gt;&lt;p&gt;Add : a additional and a latch for acc the data.&amp;nbsp;&lt;/p&gt;&lt;p&gt;Mul : a multiplier.&lt;/p&gt;" style="text;html=1;whiteSpace=wrap;overflow=hidden;rounded=0;" vertex="1" parent="1">
          <mxGeometry x="19.17" y="480" width="230" height="120" as="geometry" />
        </mxCell>
        <mxCell id="7OSFac52b7fZNywMgHIq-396" value="" style="rounded=0;whiteSpace=wrap;html=1;" vertex="1" parent="1">
          <mxGeometry x="341.16999999999996" y="500" width="173.33" height="260" as="geometry" />
        </mxCell>
        <mxCell id="7OSFac52b7fZNywMgHIq-397" value="" style="endArrow=none;html=1;rounded=0;fontSize=12;startSize=8;endSize=8;curved=1;entryX=0;entryY=0.192;entryDx=0;entryDy=0;entryPerimeter=0;" edge="1" parent="1" target="7OSFac52b7fZNywMgHIq-396">
          <mxGeometry width="50" height="50" relative="1" as="geometry">
            <mxPoint x="281.16999999999996" y="550" as="sourcePoint" />
            <mxPoint x="421.16999999999996" y="610" as="targetPoint" />
          </mxGeometry>
        </mxCell>
        <mxCell id="7OSFac52b7fZNywMgHIq-400" value="mul_0" style="edgeLabel;html=1;align=center;verticalAlign=middle;resizable=0;points=[];fontSize=12;" vertex="1" connectable="0" parent="7OSFac52b7fZNywMgHIq-397">
          <mxGeometry x="0.1184" relative="1" as="geometry">
            <mxPoint y="-10" as="offset" />
          </mxGeometry>
        </mxCell>
        <mxCell id="7OSFac52b7fZNywMgHIq-398" value="" style="endArrow=none;html=1;rounded=0;fontSize=12;startSize=8;endSize=8;curved=1;entryX=0;entryY=0.192;entryDx=0;entryDy=0;entryPerimeter=0;" edge="1" parent="1">
          <mxGeometry width="50" height="50" relative="1" as="geometry">
            <mxPoint x="281.16999999999996" y="590" as="sourcePoint" />
            <mxPoint x="341.16999999999996" y="590" as="targetPoint" />
          </mxGeometry>
        </mxCell>
        <mxCell id="7OSFac52b7fZNywMgHIq-399" value="" style="endArrow=none;html=1;rounded=0;fontSize=12;startSize=8;endSize=8;curved=1;entryX=0;entryY=0.192;entryDx=0;entryDy=0;entryPerimeter=0;" edge="1" parent="1">
          <mxGeometry width="50" height="50" relative="1" as="geometry">
            <mxPoint x="281.16999999999996" y="629.6599999999999" as="sourcePoint" />
            <mxPoint x="341.16999999999996" y="629.6599999999999" as="targetPoint" />
          </mxGeometry>
        </mxCell>
        <mxCell id="7OSFac52b7fZNywMgHIq-401" value="mul_1" style="edgeLabel;html=1;align=center;verticalAlign=middle;resizable=0;points=[];fontSize=12;" vertex="1" connectable="0" parent="1">
          <mxGeometry x="316.17307341000156" y="580.0049425687866" as="geometry" />
        </mxCell>
        <mxCell id="7OSFac52b7fZNywMgHIq-402" value="acc_on" style="edgeLabel;html=1;align=center;verticalAlign=middle;resizable=0;points=[];fontSize=12;" vertex="1" connectable="0" parent="1">
          <mxGeometry x="315.17307341000156" y="620.0049425687866" as="geometry" />
        </mxCell>
        <mxCell id="7OSFac52b7fZNywMgHIq-406" style="edgeStyle=elbowEdgeStyle;rounded=0;orthogonalLoop=1;jettySize=auto;html=1;entryX=1;entryY=0.75;entryDx=0;entryDy=0;fontSize=12;startSize=8;endSize=8;elbow=vertical;" edge="1" parent="1" source="7OSFac52b7fZNywMgHIq-403" target="7OSFac52b7fZNywMgHIq-404">
          <mxGeometry relative="1" as="geometry">
            <Array as="points">
              <mxPoint x="491.16999999999996" y="690" />
            </Array>
          </mxGeometry>
        </mxCell>
        <mxCell id="7OSFac52b7fZNywMgHIq-412" style="edgeStyle=none;curved=1;rounded=0;orthogonalLoop=1;jettySize=auto;html=1;fontSize=12;startSize=8;endSize=8;" edge="1" parent="1" source="7OSFac52b7fZNywMgHIq-403" target="7OSFac52b7fZNywMgHIq-396">
          <mxGeometry relative="1" as="geometry" />
        </mxCell>
        <mxCell id="7OSFac52b7fZNywMgHIq-403" value="acc_latch" style="rounded=0;whiteSpace=wrap;html=1;fillColor=#dae8fc;strokeColor=#6c8ebf;" vertex="1" parent="1">
          <mxGeometry x="382.83" y="700" width="90" height="30" as="geometry" />
        </mxCell>
        <mxCell id="7OSFac52b7fZNywMgHIq-405" style="edgeStyle=elbowEdgeStyle;rounded=0;orthogonalLoop=1;jettySize=auto;html=1;entryX=0;entryY=0.5;entryDx=0;entryDy=0;fontSize=12;startSize=8;endSize=8;" edge="1" parent="1" source="7OSFac52b7fZNywMgHIq-404" target="7OSFac52b7fZNywMgHIq-403">
          <mxGeometry relative="1" as="geometry">
            <Array as="points">
              <mxPoint x="361.16999999999996" y="670" />
            </Array>
          </mxGeometry>
        </mxCell>
        <mxCell id="7OSFac52b7fZNywMgHIq-404" value="mul_0 * mul_1 + acc_latch" style="rounded=0;whiteSpace=wrap;html=1;" vertex="1" parent="1">
          <mxGeometry x="392.83" y="605" width="70" height="50" as="geometry" />
        </mxCell>
        <mxCell id="7OSFac52b7fZNywMgHIq-407" value="&lt;div&gt;&lt;font style=&quot;font-size: 8px;&quot;&gt;if (cal)&lt;/font&gt;&lt;/div&gt;&lt;font style=&quot;font-size: 8px;&quot;&gt;acc_latch &amp;lt;= acc_latch + mul_0 * mul_1&lt;/font&gt;" style="text;html=1;align=center;verticalAlign=middle;whiteSpace=wrap;rounded=0;fontSize=16;" vertex="1" parent="1">
          <mxGeometry x="349.66999999999996" y="530" width="159" height="30" as="geometry" />
        </mxCell>
        <mxCell id="7OSFac52b7fZNywMgHIq-408" value="" style="endArrow=none;html=1;rounded=0;fontSize=12;startSize=8;endSize=8;curved=1;exitX=0.5;exitY=1;exitDx=0;exitDy=0;" edge="1" parent="1" source="7OSFac52b7fZNywMgHIq-396">
          <mxGeometry width="50" height="50" relative="1" as="geometry">
            <mxPoint x="462.83" y="800" as="sourcePoint" />
            <mxPoint x="428.16999999999996" y="790" as="targetPoint" />
          </mxGeometry>
        </mxCell>
        <mxCell id="7OSFac52b7fZNywMgHIq-414" value="out" style="edgeLabel;html=1;align=center;verticalAlign=middle;resizable=0;points=[];fontSize=12;" vertex="1" connectable="0" parent="7OSFac52b7fZNywMgHIq-408">
          <mxGeometry x="0.1574" y="1" relative="1" as="geometry">
            <mxPoint x="11" as="offset" />
          </mxGeometry>
        </mxCell>
        <mxCell id="7OSFac52b7fZNywMgHIq-409" value="" style="endArrow=none;html=1;rounded=0;fontSize=12;startSize=8;endSize=8;curved=1;" edge="1" parent="1">
          <mxGeometry width="50" height="50" relative="1" as="geometry">
            <mxPoint x="281.5" y="730" as="sourcePoint" />
            <mxPoint x="341.16999999999996" y="730" as="targetPoint" />
          </mxGeometry>
        </mxCell>
        <mxCell id="7OSFac52b7fZNywMgHIq-410" value="cal" style="edgeLabel;html=1;align=center;verticalAlign=middle;resizable=0;points=[];fontSize=12;" vertex="1" connectable="0" parent="7OSFac52b7fZNywMgHIq-409">
          <mxGeometry x="0.1678" y="-3" relative="1" as="geometry">
            <mxPoint x="-2" y="-18" as="offset" />
          </mxGeometry>
        </mxCell>
        <mxCell id="7OSFac52b7fZNywMgHIq-415" value="tap_count" style="text;html=1;align=center;verticalAlign=middle;whiteSpace=wrap;rounded=0;" vertex="1" parent="1">
          <mxGeometry x="11" y="359" width="60" height="30" as="geometry" />
        </mxCell>
        <mxCell id="7OSFac52b7fZNywMgHIq-417" value="0" style="rounded=1;whiteSpace=wrap;html=1;" vertex="1" parent="1">
          <mxGeometry x="81" y="369" width="40" height="10" as="geometry" />
        </mxCell>
        <mxCell id="7OSFac52b7fZNywMgHIq-418" value="1" style="rounded=1;whiteSpace=wrap;html=1;" vertex="1" parent="1">
          <mxGeometry x="121" y="369" width="80" height="10" as="geometry" />
        </mxCell>
        <mxCell id="7OSFac52b7fZNywMgHIq-420" value="2" style="rounded=1;whiteSpace=wrap;html=1;" vertex="1" parent="1">
          <mxGeometry x="201" y="369" width="120" height="10" as="geometry" />
        </mxCell>
        <mxCell id="7OSFac52b7fZNywMgHIq-423" value="3" style="rounded=1;whiteSpace=wrap;html=1;" vertex="1" parent="1">
          <mxGeometry x="321" y="369" width="159" height="10" as="geometry" />
        </mxCell>
        <mxCell id="7OSFac52b7fZNywMgHIq-579" value="REG/WIRE Description" style="shape=table;startSize=30;container=1;collapsible=0;childLayout=tableLayout;fontStyle=1" vertex="1" parent="1">
          <mxGeometry x="8.75" y="3830" width="790" height="328" as="geometry" />
        </mxCell>
        <mxCell id="7OSFac52b7fZNywMgHIq-580" value="" style="shape=tableRow;horizontal=0;startSize=0;swimlaneHead=0;swimlaneBody=0;strokeColor=inherit;top=0;left=0;bottom=0;right=0;collapsible=0;dropTarget=0;fillColor=none;points=[[0,0.5],[1,0.5]];portConstraint=eastwest;" vertex="1" parent="7OSFac52b7fZNywMgHIq-579">
          <mxGeometry y="30" width="790" height="30" as="geometry" />
        </mxCell>
        <mxCell id="7OSFac52b7fZNywMgHIq-581" value="&lt;span style=&quot;text-align: left;&quot;&gt;pop&lt;/span&gt;" style="shape=partialRectangle;html=1;whiteSpace=wrap;connectable=0;strokeColor=inherit;overflow=hidden;fillColor=none;top=0;left=0;bottom=0;right=0;pointerEvents=1;fontStyle=1" vertex="1" parent="7OSFac52b7fZNywMgHIq-580">
          <mxGeometry width="130" height="30" as="geometry">
            <mxRectangle width="130" height="30" as="alternateBounds" />
          </mxGeometry>
        </mxCell>
        <mxCell id="7OSFac52b7fZNywMgHIq-582" value="&lt;span style=&quot;text-align: left;&quot;&gt;when PE calculate the last tap data, it will pop the new x_data from fifo&lt;/span&gt;" style="shape=partialRectangle;html=1;whiteSpace=wrap;connectable=0;strokeColor=inherit;overflow=hidden;fillColor=none;top=0;left=0;bottom=0;right=0;pointerEvents=1;" vertex="1" parent="7OSFac52b7fZNywMgHIq-580">
          <mxGeometry x="130" width="660" height="30" as="geometry">
            <mxRectangle width="660" height="30" as="alternateBounds" />
          </mxGeometry>
        </mxCell>
        <mxCell id="7OSFac52b7fZNywMgHIq-583" value="" style="shape=tableRow;horizontal=0;startSize=0;swimlaneHead=0;swimlaneBody=0;strokeColor=inherit;top=0;left=0;bottom=0;right=0;collapsible=0;dropTarget=0;fillColor=none;points=[[0,0.5],[1,0.5]];portConstraint=eastwest;" vertex="1" parent="7OSFac52b7fZNywMgHIq-579">
          <mxGeometry y="60" width="790" height="30" as="geometry" />
        </mxCell>
        <mxCell id="7OSFac52b7fZNywMgHIq-584" value="&lt;span style=&quot;text-align: left;&quot;&gt;x_data&lt;/span&gt;" style="shape=partialRectangle;html=1;whiteSpace=wrap;connectable=0;strokeColor=inherit;overflow=hidden;fillColor=none;top=0;left=0;bottom=0;right=0;pointerEvents=1;fontStyle=1" vertex="1" parent="7OSFac52b7fZNywMgHIq-583">
          <mxGeometry width="130" height="30" as="geometry">
            <mxRectangle width="130" height="30" as="alternateBounds" />
          </mxGeometry>
        </mxCell>
        <mxCell id="7OSFac52b7fZNywMgHIq-585" value="&lt;span style=&quot;text-align: left;&quot;&gt;fifo_dout.&lt;/span&gt;" style="shape=partialRectangle;html=1;whiteSpace=wrap;connectable=0;strokeColor=inherit;overflow=hidden;fillColor=none;top=0;left=0;bottom=0;right=0;pointerEvents=1;" vertex="1" parent="7OSFac52b7fZNywMgHIq-583">
          <mxGeometry x="130" width="660" height="30" as="geometry">
            <mxRectangle width="660" height="30" as="alternateBounds" />
          </mxGeometry>
        </mxCell>
        <mxCell id="7OSFac52b7fZNywMgHIq-586" value="" style="shape=tableRow;horizontal=0;startSize=0;swimlaneHead=0;swimlaneBody=0;strokeColor=inherit;top=0;left=0;bottom=0;right=0;collapsible=0;dropTarget=0;fillColor=none;points=[[0,0.5],[1,0.5]];portConstraint=eastwest;" vertex="1" parent="7OSFac52b7fZNywMgHIq-579">
          <mxGeometry y="90" width="790" height="29" as="geometry" />
        </mxCell>
        <mxCell id="7OSFac52b7fZNywMgHIq-587" value="&lt;span style=&quot;text-align: left;&quot;&gt;latch_final&lt;/span&gt;" style="shape=partialRectangle;html=1;whiteSpace=wrap;connectable=0;strokeColor=inherit;overflow=hidden;fillColor=none;top=0;left=0;bottom=0;right=0;pointerEvents=1;fontStyle=1" vertex="1" parent="7OSFac52b7fZNywMgHIq-586">
          <mxGeometry width="130" height="29" as="geometry">
            <mxRectangle width="130" height="29" as="alternateBounds" />
          </mxGeometry>
        </mxCell>
        <mxCell id="7OSFac52b7fZNywMgHIq-588" value="&lt;span style=&quot;text-align: left;&quot;&gt;it latch x_data , when pop clock , write to sram&lt;/span&gt;" style="shape=partialRectangle;html=1;whiteSpace=wrap;connectable=0;strokeColor=inherit;overflow=hidden;fillColor=none;top=0;left=0;bottom=0;right=0;pointerEvents=1;" vertex="1" parent="7OSFac52b7fZNywMgHIq-586">
          <mxGeometry x="130" width="660" height="29" as="geometry">
            <mxRectangle width="660" height="29" as="alternateBounds" />
          </mxGeometry>
        </mxCell>
        <mxCell id="7OSFac52b7fZNywMgHIq-589" value="" style="shape=tableRow;horizontal=0;startSize=0;swimlaneHead=0;swimlaneBody=0;strokeColor=inherit;top=0;left=0;bottom=0;right=0;collapsible=0;dropTarget=0;fillColor=none;points=[[0,0.5],[1,0.5]];portConstraint=eastwest;" vertex="1" parent="7OSFac52b7fZNywMgHIq-579">
          <mxGeometry y="119" width="790" height="30" as="geometry" />
        </mxCell>
        <mxCell id="7OSFac52b7fZNywMgHIq-590" value="&lt;span style=&quot;text-align: left;&quot;&gt;sram_we&lt;/span&gt;&lt;div&gt;&lt;span style=&quot;text-align: left;&quot;&gt;(data_en)&lt;/span&gt;&lt;/div&gt;" style="shape=partialRectangle;html=1;whiteSpace=wrap;connectable=0;strokeColor=inherit;overflow=hidden;fillColor=none;top=0;left=0;bottom=0;right=0;pointerEvents=1;fontStyle=1" vertex="1" parent="7OSFac52b7fZNywMgHIq-589">
          <mxGeometry width="130" height="30" as="geometry">
            <mxRectangle width="130" height="30" as="alternateBounds" />
          </mxGeometry>
        </mxCell>
        <mxCell id="7OSFac52b7fZNywMgHIq-591" value="&lt;div style=&quot;text-align: left;&quot;&gt;&lt;span style=&quot;background-color: initial;&quot;&gt;data_en&lt;/span&gt;&lt;/div&gt;" style="shape=partialRectangle;html=1;whiteSpace=wrap;connectable=0;strokeColor=inherit;overflow=hidden;fillColor=none;top=0;left=0;bottom=0;right=0;pointerEvents=1;" vertex="1" parent="7OSFac52b7fZNywMgHIq-589">
          <mxGeometry x="130" width="660" height="30" as="geometry">
            <mxRectangle width="660" height="30" as="alternateBounds" />
          </mxGeometry>
        </mxCell>
        <mxCell id="7OSFac52b7fZNywMgHIq-592" value="" style="shape=tableRow;horizontal=0;startSize=0;swimlaneHead=0;swimlaneBody=0;strokeColor=inherit;top=0;left=0;bottom=0;right=0;collapsible=0;dropTarget=0;fillColor=none;points=[[0,0.5],[1,0.5]];portConstraint=eastwest;" vertex="1" parent="7OSFac52b7fZNywMgHIq-579">
          <mxGeometry y="149" width="790" height="30" as="geometry" />
        </mxCell>
        <mxCell id="7OSFac52b7fZNywMgHIq-593" value="&lt;span style=&quot;text-align: left;&quot;&gt;xram_addr&lt;/span&gt;&lt;div&gt;&lt;span style=&quot;text-align: left;&quot;&gt;(data_ram_addr)&lt;/span&gt;&lt;/div&gt;" style="shape=partialRectangle;html=1;whiteSpace=wrap;connectable=0;strokeColor=inherit;overflow=hidden;fillColor=none;top=0;left=0;bottom=0;right=0;pointerEvents=1;fontStyle=1" vertex="1" parent="7OSFac52b7fZNywMgHIq-592">
          <mxGeometry width="130" height="30" as="geometry">
            <mxRectangle width="130" height="30" as="alternateBounds" />
          </mxGeometry>
        </mxCell>
        <mxCell id="7OSFac52b7fZNywMgHIq-594" value="&lt;div style=&quot;text-align: left;&quot;&gt;data_ram write address&lt;/div&gt;" style="shape=partialRectangle;html=1;whiteSpace=wrap;connectable=0;strokeColor=inherit;overflow=hidden;fillColor=none;top=0;left=0;bottom=0;right=0;pointerEvents=1;" vertex="1" parent="7OSFac52b7fZNywMgHIq-592">
          <mxGeometry x="130" width="660" height="30" as="geometry">
            <mxRectangle width="660" height="30" as="alternateBounds" />
          </mxGeometry>
        </mxCell>
        <mxCell id="7OSFac52b7fZNywMgHIq-595" value="" style="shape=tableRow;horizontal=0;startSize=0;swimlaneHead=0;swimlaneBody=0;strokeColor=inherit;top=0;left=0;bottom=0;right=0;collapsible=0;dropTarget=0;fillColor=none;points=[[0,0.5],[1,0.5]];portConstraint=eastwest;" vertex="1" parent="7OSFac52b7fZNywMgHIq-579">
          <mxGeometry y="179" width="790" height="30" as="geometry" />
        </mxCell>
        <mxCell id="7OSFac52b7fZNywMgHIq-596" value="&lt;span style=&quot;text-align: left;&quot;&gt;sram_ptr&lt;/span&gt;&lt;div&gt;&lt;span style=&quot;text-align: left;&quot;&gt;(data_ptr)&lt;/span&gt;&lt;/div&gt;" style="shape=partialRectangle;html=1;whiteSpace=wrap;connectable=0;strokeColor=inherit;overflow=hidden;fillColor=none;top=0;left=0;bottom=0;right=0;pointerEvents=1;fontStyle=1" vertex="1" parent="7OSFac52b7fZNywMgHIq-595">
          <mxGeometry width="130" height="30" as="geometry">
            <mxRectangle width="130" height="30" as="alternateBounds" />
          </mxGeometry>
        </mxCell>
        <mxCell id="7OSFac52b7fZNywMgHIq-597" value="&lt;span style=&quot;text-align: left;&quot;&gt;data_ram read address&lt;/span&gt;" style="shape=partialRectangle;html=1;whiteSpace=wrap;connectable=0;strokeColor=inherit;overflow=hidden;fillColor=none;top=0;left=0;bottom=0;right=0;pointerEvents=1;" vertex="1" parent="7OSFac52b7fZNywMgHIq-595">
          <mxGeometry x="130" width="660" height="30" as="geometry">
            <mxRectangle width="660" height="30" as="alternateBounds" />
          </mxGeometry>
        </mxCell>
        <mxCell id="7OSFac52b7fZNywMgHIq-598" value="" style="shape=tableRow;horizontal=0;startSize=0;swimlaneHead=0;swimlaneBody=0;strokeColor=inherit;top=0;left=0;bottom=0;right=0;collapsible=0;dropTarget=0;fillColor=none;points=[[0,0.5],[1,0.5]];portConstraint=eastwest;" vertex="1" parent="7OSFac52b7fZNywMgHIq-579">
          <mxGeometry y="209" width="790" height="30" as="geometry" />
        </mxCell>
        <mxCell id="7OSFac52b7fZNywMgHIq-599" value="&lt;span style=&quot;text-align: left;&quot;&gt;tap_ptr&lt;/span&gt;" style="shape=partialRectangle;html=1;whiteSpace=wrap;connectable=0;strokeColor=inherit;overflow=hidden;fillColor=none;top=0;left=0;bottom=0;right=0;pointerEvents=1;fontStyle=1" vertex="1" parent="7OSFac52b7fZNywMgHIq-598">
          <mxGeometry width="130" height="30" as="geometry">
            <mxRectangle width="130" height="30" as="alternateBounds" />
          </mxGeometry>
        </mxCell>
        <mxCell id="7OSFac52b7fZNywMgHIq-600" value="&lt;span style=&quot;text-align: left;&quot;&gt;tap_ram read address&lt;/span&gt;" style="shape=partialRectangle;html=1;whiteSpace=wrap;connectable=0;strokeColor=inherit;overflow=hidden;fillColor=none;top=0;left=0;bottom=0;right=0;pointerEvents=1;" vertex="1" parent="7OSFac52b7fZNywMgHIq-598">
          <mxGeometry x="130" width="660" height="30" as="geometry">
            <mxRectangle width="660" height="30" as="alternateBounds" />
          </mxGeometry>
        </mxCell>
        <mxCell id="7OSFac52b7fZNywMgHIq-601" value="" style="shape=tableRow;horizontal=0;startSize=0;swimlaneHead=0;swimlaneBody=0;strokeColor=inherit;top=0;left=0;bottom=0;right=0;collapsible=0;dropTarget=0;fillColor=none;points=[[0,0.5],[1,0.5]];portConstraint=eastwest;" vertex="1" parent="7OSFac52b7fZNywMgHIq-579">
          <mxGeometry y="239" width="790" height="29" as="geometry" />
        </mxCell>
        <mxCell id="7OSFac52b7fZNywMgHIq-602" value="&lt;span style=&quot;text-align: left;&quot;&gt;cal_tap_final&lt;/span&gt;" style="shape=partialRectangle;html=1;whiteSpace=wrap;connectable=0;strokeColor=inherit;overflow=hidden;fillColor=none;top=0;left=0;bottom=0;right=0;pointerEvents=1;fontStyle=1" vertex="1" parent="7OSFac52b7fZNywMgHIq-601">
          <mxGeometry width="130" height="29" as="geometry">
            <mxRectangle width="130" height="29" as="alternateBounds" />
          </mxGeometry>
        </mxCell>
        <mxCell id="7OSFac52b7fZNywMgHIq-603" value="&lt;span style=&quot;text-align: left;&quot;&gt;tap_ptr == 0_count, it means final data calculate in a round.&lt;/span&gt;" style="shape=partialRectangle;html=1;whiteSpace=wrap;connectable=0;strokeColor=inherit;overflow=hidden;fillColor=none;top=0;left=0;bottom=0;right=0;pointerEvents=1;" vertex="1" parent="7OSFac52b7fZNywMgHIq-601">
          <mxGeometry x="130" width="660" height="29" as="geometry">
            <mxRectangle width="660" height="29" as="alternateBounds" />
          </mxGeometry>
        </mxCell>
        <mxCell id="7OSFac52b7fZNywMgHIq-604" value="" style="shape=tableRow;horizontal=0;startSize=0;swimlaneHead=0;swimlaneBody=0;strokeColor=inherit;top=0;left=0;bottom=0;right=0;collapsible=0;dropTarget=0;fillColor=none;points=[[0,0.5],[1,0.5]];portConstraint=eastwest;" vertex="1" parent="7OSFac52b7fZNywMgHIq-579">
          <mxGeometry y="268" width="790" height="30" as="geometry" />
        </mxCell>
        <mxCell id="7OSFac52b7fZNywMgHIq-605" value="&lt;span style=&quot;text-align: left;&quot;&gt;cal_x_data&lt;/span&gt;" style="shape=partialRectangle;html=1;whiteSpace=wrap;connectable=0;strokeColor=inherit;overflow=hidden;fillColor=none;top=0;left=0;bottom=0;right=0;pointerEvents=1;fontStyle=1" vertex="1" parent="7OSFac52b7fZNywMgHIq-604">
          <mxGeometry width="130" height="30" as="geometry">
            <mxRectangle width="130" height="30" as="alternateBounds" />
          </mxGeometry>
        </mxCell>
        <mxCell id="7OSFac52b7fZNywMgHIq-606" value="&lt;span style=&quot;text-align: left;&quot;&gt;tap_ptr == 1&lt;/span&gt;&lt;span style=&quot;text-align: left;&quot;&gt;, it means the first data calculate in a round.&lt;/span&gt;" style="shape=partialRectangle;html=1;whiteSpace=wrap;connectable=0;strokeColor=inherit;overflow=hidden;fillColor=none;top=0;left=0;bottom=0;right=0;pointerEvents=1;" vertex="1" parent="7OSFac52b7fZNywMgHIq-604">
          <mxGeometry x="130" width="660" height="30" as="geometry">
            <mxRectangle width="660" height="30" as="alternateBounds" />
          </mxGeometry>
        </mxCell>
        <mxCell id="7OSFac52b7fZNywMgHIq-607" value="" style="shape=tableRow;horizontal=0;startSize=0;swimlaneHead=0;swimlaneBody=0;strokeColor=inherit;top=0;left=0;bottom=0;right=0;collapsible=0;dropTarget=0;fillColor=none;points=[[0,0.5],[1,0.5]];portConstraint=eastwest;" vertex="1" parent="7OSFac52b7fZNywMgHIq-579">
          <mxGeometry y="298" width="790" height="30" as="geometry" />
        </mxCell>
        <mxCell id="7OSFac52b7fZNywMgHIq-608" value="tap_count" style="shape=partialRectangle;html=1;whiteSpace=wrap;connectable=0;strokeColor=inherit;overflow=hidden;fillColor=none;top=0;left=0;bottom=0;right=0;pointerEvents=1;fontStyle=1" vertex="1" parent="7OSFac52b7fZNywMgHIq-607">
          <mxGeometry width="130" height="30" as="geometry">
            <mxRectangle width="130" height="30" as="alternateBounds" />
          </mxGeometry>
        </mxCell>
        <mxCell id="7OSFac52b7fZNywMgHIq-609" value="To handle the data_ram data nums &amp;lt; 10 case, it will plus until 10." style="shape=partialRectangle;html=1;whiteSpace=wrap;connectable=0;strokeColor=inherit;overflow=hidden;fillColor=none;top=0;left=0;bottom=0;right=0;pointerEvents=1;" vertex="1" parent="7OSFac52b7fZNywMgHIq-607">
          <mxGeometry x="130" width="660" height="30" as="geometry">
            <mxRectangle width="660" height="30" as="alternateBounds" />
          </mxGeometry>
        </mxCell>
        <mxCell id="7OSFac52b7fZNywMgHIq-611" value="x0" style="rounded=1;whiteSpace=wrap;html=1;fillColor=#dae8fc;strokeColor=#6c8ebf;" vertex="1" parent="1">
          <mxGeometry x="80" y="-590" width="40" height="10" as="geometry" />
        </mxCell>
        <mxCell id="7OSFac52b7fZNywMgHIq-613" value="x1" style="rounded=1;whiteSpace=wrap;html=1;fillColor=#f8cecc;strokeColor=#b85450;" vertex="1" parent="1">
          <mxGeometry x="160" y="-590" width="40" height="10" as="geometry" />
        </mxCell>
        <mxCell id="7OSFac52b7fZNywMgHIq-615" value="data_Do" style="text;html=1;align=center;verticalAlign=middle;whiteSpace=wrap;rounded=0;fillColor=#f8cecc;strokeColor=#b85450;" vertex="1" parent="1">
          <mxGeometry x="10" y="-600" width="60" height="30" as="geometry" />
        </mxCell>
        <mxCell id="7OSFac52b7fZNywMgHIq-616" value="x2" style="rounded=1;whiteSpace=wrap;html=1;fillColor=#f8cecc;strokeColor=#b85450;" vertex="1" parent="1">
          <mxGeometry x="280" y="-590" width="40" height="10" as="geometry" />
        </mxCell>
        <mxCell id="7OSFac52b7fZNywMgHIq-619" value="" style="rounded=1;whiteSpace=wrap;html=1;fillColor=#f8cecc;strokeColor=#b85450;" vertex="1" parent="1">
          <mxGeometry x="81" y="-550" width="40" height="10" as="geometry" />
        </mxCell>
        <mxCell id="7OSFac52b7fZNywMgHIq-620" value="" style="rounded=1;whiteSpace=wrap;html=1;fillColor=#f8cecc;strokeColor=#b85450;" vertex="1" parent="1">
          <mxGeometry x="121" y="-550" width="40" height="10" as="geometry" />
        </mxCell>
        <mxCell id="7OSFac52b7fZNywMgHIq-621" value="x0" style="rounded=1;whiteSpace=wrap;html=1;fillColor=#f8cecc;strokeColor=#b85450;" vertex="1" parent="1">
          <mxGeometry x="161" y="-550" width="40" height="10" as="geometry" />
        </mxCell>
        <mxCell id="7OSFac52b7fZNywMgHIq-622" value="x1" style="rounded=1;whiteSpace=wrap;html=1;fillColor=#f8cecc;strokeColor=#b85450;" vertex="1" parent="1">
          <mxGeometry x="241" y="-550" width="40" height="10" as="geometry" />
        </mxCell>
        <mxCell id="7OSFac52b7fZNywMgHIq-623" value="data_Di" style="text;html=1;align=center;verticalAlign=middle;whiteSpace=wrap;rounded=0;fillColor=#f8cecc;strokeColor=#b85450;" vertex="1" parent="1">
          <mxGeometry x="11" y="-560" width="60" height="30" as="geometry" />
        </mxCell>
        <mxCell id="7OSFac52b7fZNywMgHIq-624" value="x0" style="rounded=1;whiteSpace=wrap;html=1;fillColor=#f8cecc;strokeColor=#b85450;" vertex="1" parent="1">
          <mxGeometry x="281" y="-550" width="40" height="10" as="geometry" />
        </mxCell>
        <mxCell id="7OSFac52b7fZNywMgHIq-625" value="" style="rounded=1;whiteSpace=wrap;html=1;fillColor=#f8cecc;strokeColor=#b85450;" vertex="1" parent="1">
          <mxGeometry x="201" y="-550" width="40" height="10" as="geometry" />
        </mxCell>
        <mxCell id="7OSFac52b7fZNywMgHIq-626" value="" style="rounded=1;whiteSpace=wrap;html=1;fillColor=#f8cecc;strokeColor=#b85450;" vertex="1" parent="1">
          <mxGeometry x="321" y="-550" width="40" height="10" as="geometry" />
        </mxCell>
        <mxCell id="7OSFac52b7fZNywMgHIq-635" value="" style="rounded=1;whiteSpace=wrap;html=1;fillColor=#dae8fc;strokeColor=#6c8ebf;" vertex="1" parent="1">
          <mxGeometry x="80" y="-630" width="40" height="10" as="geometry" />
        </mxCell>
        <mxCell id="7OSFac52b7fZNywMgHIq-636" value="0" style="rounded=1;whiteSpace=wrap;html=1;fillColor=#dae8fc;strokeColor=#6c8ebf;" vertex="1" parent="1">
          <mxGeometry x="120" y="-630" width="40" height="10" as="geometry" />
        </mxCell>
        <mxCell id="7OSFac52b7fZNywMgHIq-638" value="0" style="rounded=1;whiteSpace=wrap;html=1;fillColor=#dae8fc;strokeColor=#6c8ebf;" vertex="1" parent="1">
          <mxGeometry x="240" y="-630" width="40" height="10" as="geometry" />
        </mxCell>
        <mxCell id="7OSFac52b7fZNywMgHIq-639" value="sram_ptr&lt;div&gt;(read)&lt;/div&gt;" style="text;html=1;align=center;verticalAlign=middle;whiteSpace=wrap;rounded=0;fillColor=#dae8fc;strokeColor=#6c8ebf;" vertex="1" parent="1">
          <mxGeometry x="10" y="-640" width="60" height="30" as="geometry" />
        </mxCell>
        <mxCell id="7OSFac52b7fZNywMgHIq-641" value="1" style="rounded=1;whiteSpace=wrap;html=1;fillColor=#dae8fc;strokeColor=#6c8ebf;" vertex="1" parent="1">
          <mxGeometry x="200" y="-630" width="40" height="10" as="geometry" />
        </mxCell>
        <mxCell id="7OSFac52b7fZNywMgHIq-642" value="2" style="rounded=1;whiteSpace=wrap;html=1;fillColor=#dae8fc;strokeColor=#6c8ebf;" vertex="1" parent="1">
          <mxGeometry x="320" y="-630" width="40" height="10" as="geometry" />
        </mxCell>
        <mxCell id="7OSFac52b7fZNywMgHIq-643" value="" style="rounded=1;whiteSpace=wrap;html=1;fillColor=#f8cecc;strokeColor=#b85450;" vertex="1" parent="1">
          <mxGeometry x="120" y="-590" width="40" height="10" as="geometry" />
        </mxCell>
        <mxCell id="7OSFac52b7fZNywMgHIq-644" value="" style="rounded=1;whiteSpace=wrap;html=1;fillColor=#f8cecc;strokeColor=#b85450;" vertex="1" parent="1">
          <mxGeometry x="200" y="-590" width="80" height="10" as="geometry" />
        </mxCell>
        <mxCell id="7OSFac52b7fZNywMgHIq-645" value="" style="rounded=1;whiteSpace=wrap;html=1;fillColor=#f8cecc;strokeColor=#b85450;" vertex="1" parent="1">
          <mxGeometry x="321" y="-590" width="40" height="10" as="geometry" />
        </mxCell>
        <mxCell id="7OSFac52b7fZNywMgHIq-648" value="" style="endArrow=none;dashed=1;html=1;dashPattern=1 3;strokeWidth=2;rounded=0;exitX=1;exitY=0.5;exitDx=0;exitDy=0;entryX=0;entryY=0.5;entryDx=0;entryDy=0;fillColor=#dae8fc;strokeColor=#6c8ebf;" edge="1" parent="1">
          <mxGeometry width="50" height="50" relative="1" as="geometry">
            <mxPoint x="360" y="-625.4" as="sourcePoint" />
            <mxPoint x="440" y="-625.4" as="targetPoint" />
          </mxGeometry>
        </mxCell>
        <mxCell id="7OSFac52b7fZNywMgHIq-649" value="" style="endArrow=none;dashed=1;html=1;dashPattern=1 3;strokeWidth=2;rounded=0;exitX=1;exitY=0.5;exitDx=0;exitDy=0;entryX=0;entryY=0.5;entryDx=0;entryDy=0;" edge="1" parent="1">
          <mxGeometry width="50" height="50" relative="1" as="geometry">
            <mxPoint x="361" y="-585" as="sourcePoint" />
            <mxPoint x="441" y="-585" as="targetPoint" />
          </mxGeometry>
        </mxCell>
        <mxCell id="7OSFac52b7fZNywMgHIq-650" value="" style="endArrow=none;dashed=1;html=1;dashPattern=1 3;strokeWidth=2;rounded=0;exitX=1;exitY=0.5;exitDx=0;exitDy=0;entryX=0;entryY=0.5;entryDx=0;entryDy=0;" edge="1" parent="1">
          <mxGeometry width="50" height="50" relative="1" as="geometry">
            <mxPoint x="361" y="-544.4" as="sourcePoint" />
            <mxPoint x="441" y="-544.4" as="targetPoint" />
          </mxGeometry>
        </mxCell>
        <mxCell id="7OSFac52b7fZNywMgHIq-651" value="x0" style="rounded=1;whiteSpace=wrap;html=1;fillColor=#f8cecc;strokeColor=#b85450;" vertex="1" parent="1">
          <mxGeometry x="441" y="-550" width="40" height="10" as="geometry" />
        </mxCell>
        <mxCell id="7OSFac52b7fZNywMgHIq-652" value="x10" style="rounded=1;whiteSpace=wrap;html=1;fillColor=#f8cecc;strokeColor=#b85450;" vertex="1" parent="1">
          <mxGeometry x="441" y="-590" width="40" height="10" as="geometry" />
        </mxCell>
        <mxCell id="7OSFac52b7fZNywMgHIq-653" value="" style="rounded=1;whiteSpace=wrap;html=1;fillColor=#f8cecc;strokeColor=#b85450;" vertex="1" parent="1">
          <mxGeometry x="482" y="-550" width="40" height="10" as="geometry" />
        </mxCell>
        <mxCell id="7OSFac52b7fZNywMgHIq-654" value="" style="rounded=1;whiteSpace=wrap;html=1;fillColor=#f8cecc;strokeColor=#b85450;" vertex="1" parent="1">
          <mxGeometry x="482" y="-590" width="40" height="10" as="geometry" />
        </mxCell>
        <mxCell id="7OSFac52b7fZNywMgHIq-655" value="" style="endArrow=none;dashed=1;html=1;dashPattern=1 3;strokeWidth=2;rounded=0;exitX=1;exitY=0.5;exitDx=0;exitDy=0;entryX=0;entryY=0.5;entryDx=0;entryDy=0;fillColor=#dae8fc;strokeColor=#6c8ebf;" edge="1" parent="1">
          <mxGeometry width="50" height="50" relative="1" as="geometry">
            <mxPoint x="520" y="-624.88" as="sourcePoint" />
            <mxPoint x="600" y="-624.88" as="targetPoint" />
          </mxGeometry>
        </mxCell>
        <mxCell id="7OSFac52b7fZNywMgHIq-656" value="" style="endArrow=none;dashed=1;html=1;dashPattern=1 3;strokeWidth=2;rounded=0;exitX=1;exitY=0.5;exitDx=0;exitDy=0;entryX=0;entryY=0.5;entryDx=0;entryDy=0;" edge="1" parent="1">
          <mxGeometry width="50" height="50" relative="1" as="geometry">
            <mxPoint x="521" y="-584.48" as="sourcePoint" />
            <mxPoint x="601" y="-584.48" as="targetPoint" />
          </mxGeometry>
        </mxCell>
        <mxCell id="7OSFac52b7fZNywMgHIq-657" value="" style="endArrow=none;dashed=1;html=1;dashPattern=1 3;strokeWidth=2;rounded=0;exitX=1;exitY=0.5;exitDx=0;exitDy=0;entryX=0;entryY=0.5;entryDx=0;entryDy=0;" edge="1" parent="1">
          <mxGeometry width="50" height="50" relative="1" as="geometry">
            <mxPoint x="521" y="-543.88" as="sourcePoint" />
            <mxPoint x="601" y="-543.88" as="targetPoint" />
          </mxGeometry>
        </mxCell>
        <mxCell id="7OSFac52b7fZNywMgHIq-658" value="x1" style="rounded=1;whiteSpace=wrap;html=1;fillColor=#f8cecc;strokeColor=#b85450;" vertex="1" parent="1">
          <mxGeometry x="601" y="-550" width="40" height="10" as="geometry" />
        </mxCell>
        <mxCell id="7OSFac52b7fZNywMgHIq-659" value="x11&amp;nbsp;" style="rounded=1;whiteSpace=wrap;html=1;fillColor=#f8cecc;strokeColor=#b85450;" vertex="1" parent="1">
          <mxGeometry x="601" y="-590" width="40" height="10" as="geometry" />
        </mxCell>
        <mxCell id="7OSFac52b7fZNywMgHIq-660" value="" style="rounded=1;whiteSpace=wrap;html=1;fillColor=#f8cecc;strokeColor=#b85450;" vertex="1" parent="1">
          <mxGeometry x="642" y="-550" width="40" height="10" as="geometry" />
        </mxCell>
        <mxCell id="7OSFac52b7fZNywMgHIq-661" value="" style="rounded=1;whiteSpace=wrap;html=1;fillColor=#f8cecc;strokeColor=#b85450;" vertex="1" parent="1">
          <mxGeometry x="642" y="-590" width="40" height="10" as="geometry" />
        </mxCell>
        <mxCell id="7OSFac52b7fZNywMgHIq-662" value="x10" style="rounded=1;whiteSpace=wrap;html=1;fillColor=#f8cecc;strokeColor=#b85450;" vertex="1" parent="1">
          <mxGeometry x="682" y="-550" width="40" height="10" as="geometry" />
        </mxCell>
        <mxCell id="7OSFac52b7fZNywMgHIq-663" value="" style="rounded=1;whiteSpace=wrap;html=1;fillColor=#f8cecc;strokeColor=#b85450;" vertex="1" parent="1">
          <mxGeometry x="682" y="-590" width="40" height="10" as="geometry" />
        </mxCell>
        <mxCell id="7OSFac52b7fZNywMgHIq-664" value="" style="rounded=1;whiteSpace=wrap;html=1;fillColor=#dae8fc;strokeColor=#6c8ebf;" vertex="1" parent="1">
          <mxGeometry x="439.65999999999997" y="-630" width="40" height="10" as="geometry" />
        </mxCell>
        <mxCell id="7OSFac52b7fZNywMgHIq-665" value="9&amp;nbsp; &amp;nbsp; &amp;nbsp;" style="rounded=1;whiteSpace=wrap;html=1;fillColor=#dae8fc;strokeColor=#6c8ebf;" vertex="1" parent="1">
          <mxGeometry x="479.65999999999997" y="-630" width="40" height="10" as="geometry" />
        </mxCell>
        <mxCell id="7OSFac52b7fZNywMgHIq-666" value="9" style="rounded=1;whiteSpace=wrap;html=1;fillColor=#dae8fc;strokeColor=#6c8ebf;" vertex="1" parent="1">
          <mxGeometry x="601" y="-630" width="40" height="10" as="geometry" />
        </mxCell>
        <mxCell id="7OSFac52b7fZNywMgHIq-667" value="0" style="rounded=1;whiteSpace=wrap;html=1;fillColor=#dae8fc;strokeColor=#6c8ebf;" vertex="1" parent="1">
          <mxGeometry x="641" y="-630" width="40" height="10" as="geometry" />
        </mxCell>
        <mxCell id="7OSFac52b7fZNywMgHIq-668" value="9" style="rounded=1;whiteSpace=wrap;html=1;fillColor=#dae8fc;strokeColor=#6c8ebf;" vertex="1" parent="1">
          <mxGeometry x="681" y="-630" width="40" height="10" as="geometry" />
        </mxCell>
        <mxCell id="7OSFac52b7fZNywMgHIq-669" value="8" style="rounded=1;whiteSpace=wrap;html=1;fillColor=#dae8fc;strokeColor=#6c8ebf;" vertex="1" parent="1">
          <mxGeometry x="721" y="-630" width="40" height="10" as="geometry" />
        </mxCell>
        <mxCell id="7OSFac52b7fZNywMgHIq-671" value="" style="rounded=1;whiteSpace=wrap;html=1;fillColor=#f8cecc;strokeColor=#b85450;" vertex="1" parent="1">
          <mxGeometry x="722" y="-590" width="40" height="10" as="geometry" />
        </mxCell>
        <mxCell id="7OSFac52b7fZNywMgHIq-672" value="x9" style="rounded=1;whiteSpace=wrap;html=1;fillColor=#f8cecc;strokeColor=#b85450;arcSize=0;" vertex="1" parent="1">
          <mxGeometry x="722" y="-550" width="40" height="10" as="geometry" />
        </mxCell>
        <mxCell id="7OSFac52b7fZNywMgHIq-673" value="0" style="rounded=1;whiteSpace=wrap;html=1;fillColor=#dae8fc;strokeColor=#6c8ebf;" vertex="1" parent="1">
          <mxGeometry x="720" y="-750" width="40" height="10" as="geometry" />
        </mxCell>
        <mxCell id="7OSFac52b7fZNywMgHIq-674" value="&lt;h1 style=&quot;margin-top: 0px;&quot;&gt;Cal_final_tap cycle&amp;nbsp; &amp;nbsp;&lt;/h1&gt;&lt;p&gt;1. data_En will set to write.&lt;/p&gt;&lt;p&gt;2. write the latch to data ram.&lt;/p&gt;&lt;p&gt;3. pop new data from fifo&lt;/p&gt;&lt;p&gt;&lt;span style=&quot;font-size: 10px; background-color: initial;&quot;&gt;&amp;nbsp;&lt;/span&gt;&lt;/p&gt;" style="text;html=1;whiteSpace=wrap;overflow=hidden;rounded=0;" vertex="1" parent="1">
          <mxGeometry x="530" y="-1150" width="290" height="130" as="geometry" />
        </mxCell>
        <mxCell id="7OSFac52b7fZNywMgHIq-99" style="edgeStyle=none;curved=1;rounded=0;orthogonalLoop=1;jettySize=auto;html=1;entryX=0.5;entryY=0;entryDx=0;entryDy=0;fontSize=12;startSize=8;endSize=3;endArrow=block;endFill=1;targetPerimeterSpacing=1;" edge="1" parent="1" source="7OSFac52b7fZNywMgHIq-92" target="7OSFac52b7fZNywMgHIq-98">
          <mxGeometry relative="1" as="geometry" />
        </mxCell>
        <mxCell id="7OSFac52b7fZNywMgHIq-92" value="PE" style="rounded=0;whiteSpace=wrap;html=1;container=0;" vertex="1" parent="1">
          <mxGeometry x="212.3" y="-321.8181818181818" width="61.2" height="92.72727272727272" as="geometry" />
        </mxCell>
        <mxCell id="7OSFac52b7fZNywMgHIq-110" style="edgeStyle=elbowEdgeStyle;rounded=0;orthogonalLoop=1;jettySize=auto;html=1;exitX=1;exitY=0.5;exitDx=0;exitDy=0;entryX=1;entryY=0.5;entryDx=0;entryDy=0;fontSize=12;startSize=8;endSize=3;endArrow=blockThin;endFill=1;fillColor=#f8cecc;strokeColor=#000000;" edge="1" parent="1" source="7OSFac52b7fZNywMgHIq-93" target="7OSFac52b7fZNywMgHIq-96">
          <mxGeometry relative="1" as="geometry">
            <Array as="points">
              <mxPoint x="503" y="-337.27272727272725" />
            </Array>
          </mxGeometry>
        </mxCell>
        <mxCell id="7OSFac52b7fZNywMgHIq-93" value="latch_final" style="rounded=0;whiteSpace=wrap;html=1;fillColor=#f8cecc;strokeColor=#b85450;container=0;" vertex="1" parent="1">
          <mxGeometry x="357.65" y="-430" width="122.4" height="30.909090909090907" as="geometry" />
        </mxCell>
        <mxCell id="7OSFac52b7fZNywMgHIq-102" style="edgeStyle=elbowEdgeStyle;rounded=0;orthogonalLoop=1;jettySize=auto;html=1;fontSize=12;startSize=8;endSize=8;endArrow=none;endFill=0;elbow=vertical;fillColor=#f8cecc;strokeColor=#b85450;" edge="1" parent="1" source="7OSFac52b7fZNywMgHIq-95">
          <mxGeometry relative="1" as="geometry">
            <mxPoint x="319.4" y="-306.3636363636364" as="targetPoint" />
          </mxGeometry>
        </mxCell>
        <mxCell id="7OSFac52b7fZNywMgHIq-109" style="edgeStyle=none;curved=1;rounded=0;orthogonalLoop=1;jettySize=auto;html=1;exitX=1;exitY=0.5;exitDx=0;exitDy=0;entryX=0;entryY=0.5;entryDx=0;entryDy=0;fontSize=12;startSize=8;endSize=3;endArrow=blockThin;endFill=1;fillColor=#f8cecc;strokeColor=#b85450;" edge="1" parent="1" source="7OSFac52b7fZNywMgHIq-95" target="7OSFac52b7fZNywMgHIq-93">
          <mxGeometry relative="1" as="geometry" />
        </mxCell>
        <mxCell id="7OSFac52b7fZNywMgHIq-95" value="x_data" style="rounded=0;whiteSpace=wrap;html=1;fillColor=#f8cecc;strokeColor=#b85450;container=0;" vertex="1" parent="1">
          <mxGeometry x="181.7" y="-430" width="122.4" height="30.909090909090907" as="geometry" />
        </mxCell>
        <mxCell id="7OSFac52b7fZNywMgHIq-106" style="edgeStyle=elbowEdgeStyle;rounded=0;orthogonalLoop=1;jettySize=auto;html=1;exitX=0;exitY=0.5;exitDx=0;exitDy=0;entryX=1;entryY=0.5;entryDx=0;entryDy=0;fontSize=12;startSize=8;endSize=8;endArrow=none;endFill=0;" edge="1" parent="1" source="7OSFac52b7fZNywMgHIq-96" target="7OSFac52b7fZNywMgHIq-104">
          <mxGeometry relative="1" as="geometry" />
        </mxCell>
        <mxCell id="7OSFac52b7fZNywMgHIq-96" value="data_ram" style="rounded=0;whiteSpace=wrap;html=1;fillColor=#dae8fc;strokeColor=#6c8ebf;container=0;" vertex="1" parent="1">
          <mxGeometry x="365.3" y="-337.27272727272725" width="107.10000000000001" height="200.9090909090909" as="geometry" />
        </mxCell>
        <mxCell id="7OSFac52b7fZNywMgHIq-100" style="edgeStyle=elbowEdgeStyle;rounded=0;orthogonalLoop=1;jettySize=auto;html=1;exitX=1;exitY=0.5;exitDx=0;exitDy=0;entryX=0;entryY=0.25;entryDx=0;entryDy=0;fontSize=12;startSize=8;endSize=3;endArrow=blockThin;endFill=1;" edge="1" parent="1">
          <mxGeometry relative="1" as="geometry">
            <mxPoint x="151.10000000000002" y="-229.0909090909091" as="sourcePoint" />
            <mxPoint x="212.3" y="-290.9090909090909" as="targetPoint" />
          </mxGeometry>
        </mxCell>
        <mxCell id="7OSFac52b7fZNywMgHIq-97" value="tap_ram" style="rounded=0;whiteSpace=wrap;html=1;fillColor=#dae8fc;strokeColor=#6c8ebf;container=0;" vertex="1" parent="1">
          <mxGeometry x="44" y="-337.27272727272725" width="107.10000000000001" height="200.9090909090909" as="geometry" />
        </mxCell>
        <mxCell id="7OSFac52b7fZNywMgHIq-108" style="edgeStyle=elbowEdgeStyle;rounded=0;orthogonalLoop=1;jettySize=auto;html=1;exitX=1;exitY=0.5;exitDx=0;exitDy=0;entryX=1;entryY=0.75;entryDx=0;entryDy=0;fontSize=12;startSize=8;endSize=3;endArrow=blockThin;endFill=1;" edge="1" parent="1" source="7OSFac52b7fZNywMgHIq-98" target="7OSFac52b7fZNywMgHIq-92">
          <mxGeometry relative="1" as="geometry">
            <Array as="points">
              <mxPoint x="319.4" y="-213.63636363636365" />
            </Array>
          </mxGeometry>
        </mxCell>
        <mxCell id="7OSFac52b7fZNywMgHIq-111" style="edgeStyle=none;curved=1;rounded=0;orthogonalLoop=1;jettySize=auto;html=1;exitX=0.5;exitY=1;exitDx=0;exitDy=0;fontSize=12;startSize=8;endSize=8;fillColor=#f8cecc;strokeColor=#b85450;" edge="1" parent="1" source="7OSFac52b7fZNywMgHIq-98">
          <mxGeometry relative="1" as="geometry">
            <mxPoint x="242.9" y="-90" as="targetPoint" />
          </mxGeometry>
        </mxCell>
        <mxCell id="7OSFac52b7fZNywMgHIq-98" value="result" style="rounded=0;whiteSpace=wrap;html=1;fillColor=#fff2cc;strokeColor=#d6b656;container=0;" vertex="1" parent="1">
          <mxGeometry x="181.7" y="-167.27272727272725" width="122.4" height="30.909090909090907" as="geometry" />
        </mxCell>
        <mxCell id="7OSFac52b7fZNywMgHIq-104" value="&lt;p style=&quot;line-height: 90%;&quot;&gt;&lt;font style=&quot;font-size: 8px;&quot;&gt;mux&lt;/font&gt;&lt;/p&gt;" style="ellipse;whiteSpace=wrap;html=1;aspect=fixed;container=0;" vertex="1" parent="1">
          <mxGeometry x="304.1" y="-306.3636363636364" width="30.6" height="30.6" as="geometry" />
        </mxCell>
        <mxCell id="7OSFac52b7fZNywMgHIq-107" style="edgeStyle=none;curved=1;rounded=0;orthogonalLoop=1;jettySize=auto;html=1;exitX=0;exitY=0.5;exitDx=0;exitDy=0;entryX=1.013;entryY=0.337;entryDx=0;entryDy=0;entryPerimeter=0;fontSize=12;startSize=8;endSize=3;endArrow=blockThin;endFill=1;" edge="1" parent="1" source="7OSFac52b7fZNywMgHIq-104" target="7OSFac52b7fZNywMgHIq-92">
          <mxGeometry relative="1" as="geometry" />
        </mxCell>
        <mxCell id="7OSFac52b7fZNywMgHIq-676" value="tap_data" style="text;html=1;align=center;verticalAlign=middle;whiteSpace=wrap;rounded=0;fillColor=#f8cecc;strokeColor=#b85450;" vertex="1" parent="1">
          <mxGeometry x="11" y="399" width="60" height="30" as="geometry" />
        </mxCell>
        <mxCell id="7OSFac52b7fZNywMgHIq-681" value="t0" style="rounded=1;whiteSpace=wrap;html=1;fillColor=#f8cecc;strokeColor=#b85450;" vertex="1" parent="1">
          <mxGeometry x="81" y="409" width="40" height="10" as="geometry" />
        </mxCell>
        <mxCell id="7OSFac52b7fZNywMgHIq-682" value="t0" style="rounded=1;whiteSpace=wrap;html=1;fillColor=#f8cecc;strokeColor=#b85450;" vertex="1" parent="1">
          <mxGeometry x="121" y="409" width="40" height="10" as="geometry" />
        </mxCell>
        <mxCell id="7OSFac52b7fZNywMgHIq-683" value="t1" style="rounded=1;whiteSpace=wrap;html=1;fillColor=#f8cecc;strokeColor=#b85450;" vertex="1" parent="1">
          <mxGeometry x="161" y="409" width="40" height="10" as="geometry" />
        </mxCell>
        <mxCell id="7OSFac52b7fZNywMgHIq-684" value="t0" style="rounded=1;whiteSpace=wrap;html=1;fillColor=#f8cecc;strokeColor=#b85450;" vertex="1" parent="1">
          <mxGeometry x="201" y="409" width="40" height="10" as="geometry" />
        </mxCell>
        <mxCell id="7OSFac52b7fZNywMgHIq-685" value="t1" style="rounded=1;whiteSpace=wrap;html=1;fillColor=#f8cecc;strokeColor=#b85450;" vertex="1" parent="1">
          <mxGeometry x="241" y="409" width="40" height="10" as="geometry" />
        </mxCell>
        <mxCell id="7OSFac52b7fZNywMgHIq-686" value="t2" style="rounded=1;whiteSpace=wrap;html=1;fillColor=#f8cecc;strokeColor=#b85450;" vertex="1" parent="1">
          <mxGeometry x="281" y="409" width="40" height="10" as="geometry" />
        </mxCell>
        <mxCell id="7OSFac52b7fZNywMgHIq-687" value="t0" style="rounded=1;whiteSpace=wrap;html=1;fillColor=#f8cecc;strokeColor=#b85450;" vertex="1" parent="1">
          <mxGeometry x="321" y="409" width="40" height="10" as="geometry" />
        </mxCell>
        <mxCell id="7OSFac52b7fZNywMgHIq-688" value="" style="rounded=1;whiteSpace=wrap;html=1;fillColor=#dae8fc;strokeColor=#6c8ebf;" vertex="1" parent="1">
          <mxGeometry x="80" y="289" width="40" height="10" as="geometry" />
        </mxCell>
        <mxCell id="7OSFac52b7fZNywMgHIq-691" value="0" style="rounded=1;whiteSpace=wrap;html=1;fillColor=#dae8fc;strokeColor=#6c8ebf;" vertex="1" parent="1">
          <mxGeometry x="240" y="289" width="40" height="10" as="geometry" />
        </mxCell>
        <mxCell id="7OSFac52b7fZNywMgHIq-692" value="sram_ptr&lt;div&gt;(read)&lt;/div&gt;" style="text;html=1;align=center;verticalAlign=middle;whiteSpace=wrap;rounded=0;fillColor=#dae8fc;strokeColor=#6c8ebf;" vertex="1" parent="1">
          <mxGeometry x="10" y="279" width="60" height="30" as="geometry" />
        </mxCell>
        <mxCell id="7OSFac52b7fZNywMgHIq-694" value="1" style="rounded=1;whiteSpace=wrap;html=1;fillColor=#dae8fc;strokeColor=#6c8ebf;" vertex="1" parent="1">
          <mxGeometry x="200" y="289" width="40" height="10" as="geometry" />
        </mxCell>
        <mxCell id="7OSFac52b7fZNywMgHIq-695" value="2" style="rounded=1;whiteSpace=wrap;html=1;fillColor=#dae8fc;strokeColor=#6c8ebf;" vertex="1" parent="1">
          <mxGeometry x="320" y="289" width="40" height="10" as="geometry" />
        </mxCell>
        <mxCell id="7OSFac52b7fZNywMgHIq-696" value="pop" style="rounded=1;whiteSpace=wrap;html=1;" vertex="1" parent="1">
          <mxGeometry x="440" y="209" width="40" height="10" as="geometry" />
        </mxCell>
        <mxCell id="7OSFac52b7fZNywMgHIq-697" value="1" style="rounded=1;whiteSpace=wrap;html=1;fillColor=#dae8fc;strokeColor=#6c8ebf;" vertex="1" parent="1">
          <mxGeometry x="359.66" y="289" width="40" height="10" as="geometry" />
        </mxCell>
        <mxCell id="7OSFac52b7fZNywMgHIq-698" value="0" style="rounded=1;whiteSpace=wrap;html=1;fillColor=#dae8fc;strokeColor=#6c8ebf;arcSize=0;" vertex="1" parent="1">
          <mxGeometry x="400" y="289" width="40" height="10" as="geometry" />
        </mxCell>
        <mxCell id="7OSFac52b7fZNywMgHIq-699" value="2" style="rounded=1;whiteSpace=wrap;html=1;fillColor=#dae8fc;strokeColor=#6c8ebf;" vertex="1" parent="1">
          <mxGeometry x="361" y="328" width="40" height="10" as="geometry" />
        </mxCell>
        <mxCell id="7OSFac52b7fZNywMgHIq-700" value="3" style="rounded=1;whiteSpace=wrap;html=1;fillColor=#dae8fc;strokeColor=#6c8ebf;" vertex="1" parent="1">
          <mxGeometry x="398.85" y="328" width="40" height="10" as="geometry" />
        </mxCell>
        <mxCell id="7OSFac52b7fZNywMgHIq-701" value="0" style="rounded=1;whiteSpace=wrap;html=1;fillColor=#dae8fc;strokeColor=#6c8ebf;" vertex="1" parent="1">
          <mxGeometry x="439" y="328" width="40" height="10" as="geometry" />
        </mxCell>
        <mxCell id="7OSFac52b7fZNywMgHIq-704" value="t1" style="rounded=1;whiteSpace=wrap;html=1;fillColor=#f8cecc;strokeColor=#b85450;" vertex="1" parent="1">
          <mxGeometry x="360" y="409" width="40" height="10" as="geometry" />
        </mxCell>
        <mxCell id="7OSFac52b7fZNywMgHIq-705" value="t2" style="rounded=1;whiteSpace=wrap;html=1;fillColor=#f8cecc;strokeColor=#b85450;" vertex="1" parent="1">
          <mxGeometry x="400" y="409" width="40" height="10" as="geometry" />
        </mxCell>
        <mxCell id="7OSFac52b7fZNywMgHIq-706" value="t3" style="rounded=1;whiteSpace=wrap;html=1;fillColor=#f8cecc;strokeColor=#b85450;" vertex="1" parent="1">
          <mxGeometry x="440" y="409" width="40" height="10" as="geometry" />
        </mxCell>
        <mxCell id="7OSFac52b7fZNywMgHIq-710" value="2" style="rounded=1;whiteSpace=wrap;html=1;fillColor=#dae8fc;strokeColor=#6c8ebf;" vertex="1" parent="1">
          <mxGeometry x="760" y="2519" width="40" height="10" as="geometry" />
        </mxCell>
        <mxCell id="7OSFac52b7fZNywMgHIq-711" value="1" style="rounded=1;whiteSpace=wrap;html=1;fillColor=#dae8fc;strokeColor=#6c8ebf;" vertex="1" parent="1">
          <mxGeometry x="719" y="2519" width="40" height="10" as="geometry" />
        </mxCell>
        <mxCell id="7OSFac52b7fZNywMgHIq-715" value="0" style="rounded=1;whiteSpace=wrap;html=1;fillColor=#dae8fc;strokeColor=#6c8ebf;" vertex="1" parent="1">
          <mxGeometry x="120" y="289" width="40" height="10" as="geometry" />
        </mxCell>
        <mxCell id="7OSFac52b7fZNywMgHIq-718" value="" style="rounded=1;whiteSpace=wrap;html=1;fillColor=#dae8fc;strokeColor=#6c8ebf;" vertex="1" parent="1">
          <mxGeometry x="160" y="289" width="40" height="10" as="geometry" />
        </mxCell>
        <mxCell id="7OSFac52b7fZNywMgHIq-719" value="" style="rounded=1;whiteSpace=wrap;html=1;fillColor=#dae8fc;strokeColor=#6c8ebf;" vertex="1" parent="1">
          <mxGeometry x="280" y="289" width="40" height="10" as="geometry" />
        </mxCell>
        <mxCell id="7OSFac52b7fZNywMgHIq-720" value="" style="rounded=1;whiteSpace=wrap;html=1;fillColor=#dae8fc;strokeColor=#6c8ebf;" vertex="1" parent="1">
          <mxGeometry x="439.65999999999997" y="289" width="40" height="10" as="geometry" />
        </mxCell>
        <mxCell id="7OSFac52b7fZNywMgHIq-731" value="" style="rounded=1;whiteSpace=wrap;html=1;fillColor=#dae8fc;strokeColor=#6c8ebf;" vertex="1" parent="1">
          <mxGeometry x="160" y="-630" width="40" height="10" as="geometry" />
        </mxCell>
        <mxCell id="7OSFac52b7fZNywMgHIq-732" value="" style="rounded=1;whiteSpace=wrap;html=1;fillColor=#dae8fc;strokeColor=#6c8ebf;" vertex="1" parent="1">
          <mxGeometry x="280" y="-630" width="40" height="10" as="geometry" />
        </mxCell>
        <mxCell id="7OSFac52b7fZNywMgHIq-733" value="1" style="rounded=1;whiteSpace=wrap;html=1;fillColor=#dae8fc;strokeColor=#6c8ebf;" vertex="1" parent="1">
          <mxGeometry x="240.05" y="896" width="40" height="10" as="geometry" />
        </mxCell>
        <mxCell id="7OSFac52b7fZNywMgHIq-734" value="1" style="rounded=1;whiteSpace=wrap;html=1;fillColor=#dae8fc;strokeColor=#6c8ebf;" vertex="1" parent="1">
          <mxGeometry x="320.05" y="896" width="40" height="10" as="geometry" />
        </mxCell>
        <mxCell id="7OSFac52b7fZNywMgHIq-735" value="0" style="rounded=1;whiteSpace=wrap;html=1;fillColor=#dae8fc;strokeColor=#6c8ebf;" vertex="1" parent="1">
          <mxGeometry x="360.05" y="896" width="80" height="10" as="geometry" />
        </mxCell>
        <mxCell id="7OSFac52b7fZNywMgHIq-736" value="x0" style="rounded=1;whiteSpace=wrap;html=1;fillColor=#dae8fc;strokeColor=#6c8ebf;" vertex="1" parent="1">
          <mxGeometry x="199.75" y="936" width="40" height="10" as="geometry" />
        </mxCell>
        <mxCell id="7OSFac52b7fZNywMgHIq-737" value="x1" style="rounded=1;whiteSpace=wrap;html=1;fillColor=#dae8fc;strokeColor=#6c8ebf;" vertex="1" parent="1">
          <mxGeometry x="239.75" y="936" width="40.25" height="10" as="geometry" />
        </mxCell>
        <mxCell id="7OSFac52b7fZNywMgHIq-738" value="x_data" style="text;html=1;align=center;verticalAlign=middle;whiteSpace=wrap;rounded=0;fillColor=#dae8fc;strokeColor=#6c8ebf;" vertex="1" parent="1">
          <mxGeometry x="89.5" y="926" width="60" height="30" as="geometry" />
        </mxCell>
        <mxCell id="7OSFac52b7fZNywMgHIq-739" value="X" style="rounded=1;whiteSpace=wrap;html=1;fillColor=#dae8fc;strokeColor=#6c8ebf;" vertex="1" parent="1">
          <mxGeometry x="199.25" y="976" width="40" height="10" as="geometry" />
        </mxCell>
        <mxCell id="7OSFac52b7fZNywMgHIq-740" value="x0" style="rounded=1;whiteSpace=wrap;html=1;fillColor=#dae8fc;strokeColor=#6c8ebf;" vertex="1" parent="1">
          <mxGeometry x="239.25" y="976" width="40" height="10" as="geometry" />
        </mxCell>
        <mxCell id="7OSFac52b7fZNywMgHIq-741" value="x1" style="rounded=1;whiteSpace=wrap;html=1;fillColor=#dae8fc;strokeColor=#6c8ebf;" vertex="1" parent="1">
          <mxGeometry x="279.25" y="976" width="80" height="10" as="geometry" />
        </mxCell>
        <mxCell id="7OSFac52b7fZNywMgHIq-742" value="x2" style="rounded=1;whiteSpace=wrap;html=1;fillColor=#dae8fc;strokeColor=#6c8ebf;" vertex="1" parent="1">
          <mxGeometry x="359.25" y="976" width="120" height="10" as="geometry" />
        </mxCell>
        <mxCell id="7OSFac52b7fZNywMgHIq-743" value="latch_final" style="text;html=1;align=center;verticalAlign=middle;whiteSpace=wrap;rounded=0;fillColor=#dae8fc;strokeColor=#6c8ebf;" vertex="1" parent="1">
          <mxGeometry x="89" y="966" width="60" height="30" as="geometry" />
        </mxCell>
        <mxCell id="7OSFac52b7fZNywMgHIq-745" value="0" style="rounded=1;whiteSpace=wrap;html=1;fillColor=#dae8fc;strokeColor=#6c8ebf;" vertex="1" parent="1">
          <mxGeometry x="199.75" y="1255" width="40" height="10" as="geometry" />
        </mxCell>
        <mxCell id="7OSFac52b7fZNywMgHIq-746" value="1" style="rounded=1;whiteSpace=wrap;html=1;fillColor=#dae8fc;strokeColor=#6c8ebf;" vertex="1" parent="1">
          <mxGeometry x="239.75" y="1255" width="80" height="10" as="geometry" />
        </mxCell>
        <mxCell id="7OSFac52b7fZNywMgHIq-747" value="3" style="rounded=1;whiteSpace=wrap;html=1;fillColor=#dae8fc;strokeColor=#6c8ebf;" vertex="1" parent="1">
          <mxGeometry x="439.75" y="1255" width="40" height="10" as="geometry" />
        </mxCell>
        <mxCell id="7OSFac52b7fZNywMgHIq-748" value="data_addr&lt;div&gt;(write)&lt;/div&gt;" style="text;html=1;align=center;verticalAlign=middle;whiteSpace=wrap;rounded=0;fillColor=#dae8fc;strokeColor=#6c8ebf;" vertex="1" parent="1">
          <mxGeometry x="89.5" y="1245" width="60" height="30" as="geometry" />
        </mxCell>
        <mxCell id="7OSFac52b7fZNywMgHIq-749" value="1" style="rounded=1;whiteSpace=wrap;html=1;fillColor=#dae8fc;strokeColor=#6c8ebf;" vertex="1" parent="1">
          <mxGeometry x="199.75" y="1216" width="40" height="10" as="geometry" />
        </mxCell>
        <mxCell id="7OSFac52b7fZNywMgHIq-750" value="0" style="rounded=1;whiteSpace=wrap;html=1;fillColor=#dae8fc;strokeColor=#6c8ebf;" vertex="1" parent="1">
          <mxGeometry x="239.75" y="1216" width="40" height="10" as="geometry" />
        </mxCell>
        <mxCell id="7OSFac52b7fZNywMgHIq-751" value="1" style="rounded=1;whiteSpace=wrap;html=1;fillColor=#dae8fc;strokeColor=#6c8ebf;" vertex="1" parent="1">
          <mxGeometry x="279.75" y="1216" width="40" height="10" as="geometry" />
        </mxCell>
        <mxCell id="7OSFac52b7fZNywMgHIq-752" value="0" style="rounded=1;whiteSpace=wrap;html=1;fillColor=#dae8fc;strokeColor=#6c8ebf;" vertex="1" parent="1">
          <mxGeometry x="319.75" y="1216" width="40" height="10" as="geometry" />
        </mxCell>
        <mxCell id="7OSFac52b7fZNywMgHIq-753" value="0" style="rounded=1;whiteSpace=wrap;html=1;fillColor=#dae8fc;strokeColor=#6c8ebf;" vertex="1" parent="1">
          <mxGeometry x="359.75" y="1216" width="40" height="10" as="geometry" />
        </mxCell>
        <mxCell id="7OSFac52b7fZNywMgHIq-754" value="data_En" style="text;html=1;align=center;verticalAlign=middle;whiteSpace=wrap;rounded=0;fillColor=#dae8fc;strokeColor=#6c8ebf;" vertex="1" parent="1">
          <mxGeometry x="89.5" y="1206" width="60" height="30" as="geometry" />
        </mxCell>
        <mxCell id="7OSFac52b7fZNywMgHIq-755" value="1" style="rounded=1;whiteSpace=wrap;html=1;fillColor=#dae8fc;strokeColor=#6c8ebf;" vertex="1" parent="1">
          <mxGeometry x="399.75" y="1216" width="40" height="10" as="geometry" />
        </mxCell>
        <mxCell id="7OSFac52b7fZNywMgHIq-757" value="0" style="rounded=1;whiteSpace=wrap;html=1;fillColor=#dae8fc;strokeColor=#6c8ebf;" vertex="1" parent="1">
          <mxGeometry x="439.75" y="1216" width="40" height="10" as="geometry" />
        </mxCell>
        <mxCell id="7OSFac52b7fZNywMgHIq-758" value="0" style="rounded=1;whiteSpace=wrap;html=1;fillColor=#dae8fc;strokeColor=#6c8ebf;" vertex="1" parent="1">
          <mxGeometry x="280.05" y="896" width="40" height="10" as="geometry" />
        </mxCell>
        <mxCell id="7OSFac52b7fZNywMgHIq-759" value="2" style="rounded=1;whiteSpace=wrap;html=1;fillColor=#dae8fc;strokeColor=#6c8ebf;" vertex="1" parent="1">
          <mxGeometry x="319.75" y="1255" width="120" height="10" as="geometry" />
        </mxCell>
        <mxCell id="7OSFac52b7fZNywMgHIq-761" value="1" style="rounded=1;whiteSpace=wrap;html=1;fillColor=#dae8fc;strokeColor=#6c8ebf;" vertex="1" parent="1">
          <mxGeometry x="560.25" y="896" width="40" height="10" as="geometry" />
        </mxCell>
        <mxCell id="7OSFac52b7fZNywMgHIq-762" value="x10" style="rounded=1;whiteSpace=wrap;html=1;fillColor=#dae8fc;strokeColor=#6c8ebf;" vertex="1" parent="1">
          <mxGeometry x="559.75" y="936" width="40" height="10" as="geometry" />
        </mxCell>
        <mxCell id="7OSFac52b7fZNywMgHIq-763" value="0" style="rounded=1;whiteSpace=wrap;html=1;fillColor=#dae8fc;strokeColor=#6c8ebf;" vertex="1" parent="1">
          <mxGeometry x="559.75" y="1255" width="40" height="10" as="geometry" />
        </mxCell>
        <mxCell id="7OSFac52b7fZNywMgHIq-764" value="1" style="rounded=1;whiteSpace=wrap;html=1;fillColor=#dae8fc;strokeColor=#6c8ebf;" vertex="1" parent="1">
          <mxGeometry x="559.75" y="1216" width="40" height="10" as="geometry" />
        </mxCell>
        <mxCell id="7OSFac52b7fZNywMgHIq-765" value="" style="endArrow=none;dashed=1;html=1;dashPattern=1 3;strokeWidth=2;rounded=0;exitX=1;exitY=0.5;exitDx=0;exitDy=0;entryX=0;entryY=0.5;entryDx=0;entryDy=0;fillColor=#dae8fc;strokeColor=#6c8ebf;" edge="1" parent="1" source="7OSFac52b7fZNywMgHIq-757" target="7OSFac52b7fZNywMgHIq-764">
          <mxGeometry width="50" height="50" relative="1" as="geometry">
            <mxPoint x="489.75" y="1220.71" as="sourcePoint" />
            <mxPoint x="543.75" y="1221" as="targetPoint" />
          </mxGeometry>
        </mxCell>
        <mxCell id="7OSFac52b7fZNywMgHIq-766" value="" style="endArrow=none;dashed=1;html=1;dashPattern=1 3;strokeWidth=2;rounded=0;exitX=1;exitY=0.5;exitDx=0;exitDy=0;entryX=0;entryY=0.5;entryDx=0;entryDy=0;fillColor=#dae8fc;strokeColor=#6c8ebf;" edge="1" parent="1" source="7OSFac52b7fZNywMgHIq-747" target="7OSFac52b7fZNywMgHIq-763">
          <mxGeometry width="50" height="50" relative="1" as="geometry">
            <mxPoint x="499.75" y="1260" as="sourcePoint" />
            <mxPoint x="553.75" y="1260.29" as="targetPoint" />
          </mxGeometry>
        </mxCell>
        <mxCell id="7OSFac52b7fZNywMgHIq-767" value="" style="endArrow=none;dashed=1;html=1;dashPattern=1 3;strokeWidth=2;rounded=0;exitX=1;exitY=0.5;exitDx=0;exitDy=0;entryX=0;entryY=0.5;entryDx=0;entryDy=0;fillColor=#dae8fc;strokeColor=#6c8ebf;" edge="1" parent="1" target="7OSFac52b7fZNywMgHIq-761">
          <mxGeometry width="50" height="50" relative="1" as="geometry">
            <mxPoint x="480.25" y="901" as="sourcePoint" />
            <mxPoint x="544.25" y="900.4300000000003" as="targetPoint" />
          </mxGeometry>
        </mxCell>
        <mxCell id="7OSFac52b7fZNywMgHIq-768" value="" style="endArrow=none;dashed=1;html=1;dashPattern=1 3;strokeWidth=2;rounded=0;exitX=1;exitY=0.5;exitDx=0;exitDy=0;entryX=0;entryY=0.5;entryDx=0;entryDy=0;fillColor=#dae8fc;strokeColor=#6c8ebf;" edge="1" parent="1" target="7OSFac52b7fZNywMgHIq-762">
          <mxGeometry width="50" height="50" relative="1" as="geometry">
            <mxPoint x="479.75" y="941" as="sourcePoint" />
            <mxPoint x="543.75" y="940.7200000000003" as="targetPoint" />
          </mxGeometry>
        </mxCell>
        <mxCell id="7OSFac52b7fZNywMgHIq-769" value="" style="endArrow=none;dashed=1;html=1;dashPattern=1 3;strokeWidth=2;rounded=0;exitX=1;exitY=0.5;exitDx=0;exitDy=0;entryX=0;entryY=0.5;entryDx=0;entryDy=0;fillColor=#dae8fc;strokeColor=#6c8ebf;" edge="1" parent="1" source="7OSFac52b7fZNywMgHIq-742">
          <mxGeometry width="50" height="50" relative="1" as="geometry">
            <mxPoint x="489.25" y="980.4300000000003" as="sourcePoint" />
            <mxPoint x="559.25" y="981" as="targetPoint" />
          </mxGeometry>
        </mxCell>
        <mxCell id="7OSFac52b7fZNywMgHIq-771" value="x11" style="rounded=1;whiteSpace=wrap;html=1;arcSize=0;fillColor=#dae8fc;strokeColor=#6c8ebf;" vertex="1" parent="1">
          <mxGeometry x="599.75" y="936" width="40" height="10" as="geometry" />
        </mxCell>
        <mxCell id="7OSFac52b7fZNywMgHIq-772" value="1" style="rounded=1;whiteSpace=wrap;html=1;fillColor=#dae8fc;strokeColor=#6c8ebf;" vertex="1" parent="1">
          <mxGeometry x="599.75" y="1255" width="40" height="10" as="geometry" />
        </mxCell>
        <mxCell id="7OSFac52b7fZNywMgHIq-773" value="0" style="rounded=1;whiteSpace=wrap;html=1;fillColor=#dae8fc;strokeColor=#6c8ebf;" vertex="1" parent="1">
          <mxGeometry x="599.75" y="1216" width="40" height="10" as="geometry" />
        </mxCell>
        <mxCell id="7OSFac52b7fZNywMgHIq-781" value="" style="rounded=1;whiteSpace=wrap;html=1;fillColor=#dae8fc;strokeColor=#6c8ebf;" vertex="1" parent="1">
          <mxGeometry x="600.25" y="896" width="40" height="10" as="geometry" />
        </mxCell>
        <mxCell id="7OSFac52b7fZNywMgHIq-782" value="x10" style="rounded=1;whiteSpace=wrap;html=1;fillColor=#dae8fc;strokeColor=#6c8ebf;" vertex="1" parent="1">
          <mxGeometry x="559.25" y="976" width="80" height="10" as="geometry" />
        </mxCell>
        <mxCell id="7OSFac52b7fZNywMgHIq-789" value="ss_tready" style="text;html=1;align=center;verticalAlign=middle;whiteSpace=wrap;rounded=0;fillColor=#dae8fc;strokeColor=#6c8ebf;" vertex="1" parent="1">
          <mxGeometry x="93" y="886" width="60" height="30" as="geometry" />
        </mxCell>
        <mxCell id="7OSFac52b7fZNywMgHIq-795" value="x2" style="rounded=1;whiteSpace=wrap;html=1;fillColor=#dae8fc;strokeColor=#6c8ebf;" vertex="1" parent="1">
          <mxGeometry x="319.75" y="936" width="120" height="10" as="geometry" />
        </mxCell>
        <mxCell id="7OSFac52b7fZNywMgHIq-796" value="x3" style="rounded=1;whiteSpace=wrap;html=1;fillColor=#dae8fc;strokeColor=#6c8ebf;" vertex="1" parent="1">
          <mxGeometry x="439.75" y="936" width="40" height="10" as="geometry" />
        </mxCell>
        <mxCell id="7OSFac52b7fZNywMgHIq-797" value="1" style="rounded=1;whiteSpace=wrap;html=1;fillColor=#dae8fc;strokeColor=#6c8ebf;" vertex="1" parent="1">
          <mxGeometry x="440.05" y="896" width="40" height="10" as="geometry" />
        </mxCell>
        <mxCell id="7OSFac52b7fZNywMgHIq-800" value="x0" style="rounded=1;whiteSpace=wrap;html=1;fillColor=#dae8fc;strokeColor=#6c8ebf;" vertex="1" parent="1">
          <mxGeometry x="198.75" y="1336" width="40" height="10" as="geometry" />
        </mxCell>
        <mxCell id="7OSFac52b7fZNywMgHIq-801" value="x1" style="rounded=1;whiteSpace=wrap;html=1;fillColor=#f8cecc;strokeColor=#b85450;" vertex="1" parent="1">
          <mxGeometry x="278.75" y="1336" width="40" height="10" as="geometry" />
        </mxCell>
        <mxCell id="7OSFac52b7fZNywMgHIq-802" value="data_Do" style="text;html=1;align=center;verticalAlign=middle;whiteSpace=wrap;rounded=0;fillColor=#f8cecc;strokeColor=#b85450;" vertex="1" parent="1">
          <mxGeometry x="88.5" y="1326" width="60" height="30" as="geometry" />
        </mxCell>
        <mxCell id="7OSFac52b7fZNywMgHIq-803" value="x2" style="rounded=1;whiteSpace=wrap;html=1;fillColor=#f8cecc;strokeColor=#b85450;" vertex="1" parent="1">
          <mxGeometry x="398.75" y="1336" width="40" height="10" as="geometry" />
        </mxCell>
        <mxCell id="7OSFac52b7fZNywMgHIq-804" value="" style="rounded=1;whiteSpace=wrap;html=1;fillColor=#f8cecc;strokeColor=#b85450;" vertex="1" parent="1">
          <mxGeometry x="199.75" y="1376" width="40" height="10" as="geometry" />
        </mxCell>
        <mxCell id="7OSFac52b7fZNywMgHIq-805" value="" style="rounded=1;whiteSpace=wrap;html=1;fillColor=#f8cecc;strokeColor=#b85450;" vertex="1" parent="1">
          <mxGeometry x="239.75" y="1376" width="40" height="10" as="geometry" />
        </mxCell>
        <mxCell id="7OSFac52b7fZNywMgHIq-806" value="x0" style="rounded=1;whiteSpace=wrap;html=1;fillColor=#f8cecc;strokeColor=#b85450;" vertex="1" parent="1">
          <mxGeometry x="279.75" y="1376" width="40" height="10" as="geometry" />
        </mxCell>
        <mxCell id="7OSFac52b7fZNywMgHIq-807" value="x1" style="rounded=1;whiteSpace=wrap;html=1;fillColor=#f8cecc;strokeColor=#b85450;" vertex="1" parent="1">
          <mxGeometry x="359.75" y="1376" width="40" height="10" as="geometry" />
        </mxCell>
        <mxCell id="7OSFac52b7fZNywMgHIq-808" value="data_Di" style="text;html=1;align=center;verticalAlign=middle;whiteSpace=wrap;rounded=0;fillColor=#f8cecc;strokeColor=#b85450;" vertex="1" parent="1">
          <mxGeometry x="89.5" y="1366" width="60" height="30" as="geometry" />
        </mxCell>
        <mxCell id="7OSFac52b7fZNywMgHIq-809" value="x0" style="rounded=1;whiteSpace=wrap;html=1;fillColor=#f8cecc;strokeColor=#b85450;" vertex="1" parent="1">
          <mxGeometry x="399.75" y="1376" width="40" height="10" as="geometry" />
        </mxCell>
        <mxCell id="7OSFac52b7fZNywMgHIq-810" value="" style="rounded=1;whiteSpace=wrap;html=1;fillColor=#f8cecc;strokeColor=#b85450;" vertex="1" parent="1">
          <mxGeometry x="319.75" y="1376" width="40" height="10" as="geometry" />
        </mxCell>
        <mxCell id="7OSFac52b7fZNywMgHIq-811" value="" style="rounded=1;whiteSpace=wrap;html=1;fillColor=#f8cecc;strokeColor=#b85450;" vertex="1" parent="1">
          <mxGeometry x="439.75" y="1376" width="40" height="10" as="geometry" />
        </mxCell>
        <mxCell id="7OSFac52b7fZNywMgHIq-812" value="" style="rounded=1;whiteSpace=wrap;html=1;fillColor=#dae8fc;strokeColor=#6c8ebf;" vertex="1" parent="1">
          <mxGeometry x="198.75" y="1296" width="40" height="10" as="geometry" />
        </mxCell>
        <mxCell id="7OSFac52b7fZNywMgHIq-813" value="0" style="rounded=1;whiteSpace=wrap;html=1;fillColor=#dae8fc;strokeColor=#6c8ebf;" vertex="1" parent="1">
          <mxGeometry x="238.75" y="1296" width="40" height="10" as="geometry" />
        </mxCell>
        <mxCell id="7OSFac52b7fZNywMgHIq-814" value="0" style="rounded=1;whiteSpace=wrap;html=1;fillColor=#dae8fc;strokeColor=#6c8ebf;" vertex="1" parent="1">
          <mxGeometry x="358.75" y="1296" width="40" height="10" as="geometry" />
        </mxCell>
        <mxCell id="7OSFac52b7fZNywMgHIq-815" value="data_ptr&lt;div&gt;(read)&lt;/div&gt;" style="text;html=1;align=center;verticalAlign=middle;whiteSpace=wrap;rounded=0;fillColor=#dae8fc;strokeColor=#6c8ebf;" vertex="1" parent="1">
          <mxGeometry x="88.5" y="1286" width="60" height="30" as="geometry" />
        </mxCell>
        <mxCell id="7OSFac52b7fZNywMgHIq-816" value="1" style="rounded=1;whiteSpace=wrap;html=1;fillColor=#dae8fc;strokeColor=#6c8ebf;" vertex="1" parent="1">
          <mxGeometry x="318.75" y="1296" width="40" height="10" as="geometry" />
        </mxCell>
        <mxCell id="7OSFac52b7fZNywMgHIq-817" value="2" style="rounded=1;whiteSpace=wrap;html=1;fillColor=#dae8fc;strokeColor=#6c8ebf;" vertex="1" parent="1">
          <mxGeometry x="438.75" y="1296" width="40" height="10" as="geometry" />
        </mxCell>
        <mxCell id="7OSFac52b7fZNywMgHIq-818" value="" style="rounded=1;whiteSpace=wrap;html=1;fillColor=#f8cecc;strokeColor=#b85450;" vertex="1" parent="1">
          <mxGeometry x="238.75" y="1336" width="40" height="10" as="geometry" />
        </mxCell>
        <mxCell id="7OSFac52b7fZNywMgHIq-819" value="" style="rounded=1;whiteSpace=wrap;html=1;fillColor=#f8cecc;strokeColor=#b85450;" vertex="1" parent="1">
          <mxGeometry x="318.75" y="1336" width="80" height="10" as="geometry" />
        </mxCell>
        <mxCell id="7OSFac52b7fZNywMgHIq-820" value="" style="rounded=1;whiteSpace=wrap;html=1;fillColor=#f8cecc;strokeColor=#b85450;" vertex="1" parent="1">
          <mxGeometry x="439.75" y="1336" width="40" height="10" as="geometry" />
        </mxCell>
        <mxCell id="7OSFac52b7fZNywMgHIq-821" value="" style="endArrow=none;dashed=1;html=1;dashPattern=1 3;strokeWidth=2;rounded=0;exitX=1;exitY=0.5;exitDx=0;exitDy=0;entryX=0;entryY=0.5;entryDx=0;entryDy=0;fillColor=#dae8fc;strokeColor=#6c8ebf;" edge="1" parent="1">
          <mxGeometry width="50" height="50" relative="1" as="geometry">
            <mxPoint x="478.75" y="1300.6" as="sourcePoint" />
            <mxPoint x="558.75" y="1300.6" as="targetPoint" />
          </mxGeometry>
        </mxCell>
        <mxCell id="7OSFac52b7fZNywMgHIq-822" value="" style="endArrow=none;dashed=1;html=1;dashPattern=1 3;strokeWidth=2;rounded=0;exitX=1;exitY=0.5;exitDx=0;exitDy=0;entryX=0;entryY=0.5;entryDx=0;entryDy=0;" edge="1" parent="1">
          <mxGeometry width="50" height="50" relative="1" as="geometry">
            <mxPoint x="479.75" y="1341" as="sourcePoint" />
            <mxPoint x="559.75" y="1341" as="targetPoint" />
          </mxGeometry>
        </mxCell>
        <mxCell id="7OSFac52b7fZNywMgHIq-823" value="" style="endArrow=none;dashed=1;html=1;dashPattern=1 3;strokeWidth=2;rounded=0;exitX=1;exitY=0.5;exitDx=0;exitDy=0;entryX=0;entryY=0.5;entryDx=0;entryDy=0;" edge="1" parent="1">
          <mxGeometry width="50" height="50" relative="1" as="geometry">
            <mxPoint x="479.75" y="1381.6" as="sourcePoint" />
            <mxPoint x="559.75" y="1381.6" as="targetPoint" />
          </mxGeometry>
        </mxCell>
        <mxCell id="7OSFac52b7fZNywMgHIq-824" value="x0" style="rounded=1;whiteSpace=wrap;html=1;fillColor=#f8cecc;strokeColor=#b85450;" vertex="1" parent="1">
          <mxGeometry x="559.75" y="1376" width="40" height="10" as="geometry" />
        </mxCell>
        <mxCell id="7OSFac52b7fZNywMgHIq-825" value="x10" style="rounded=1;whiteSpace=wrap;html=1;fillColor=#f8cecc;strokeColor=#b85450;" vertex="1" parent="1">
          <mxGeometry x="559.75" y="1336" width="40" height="10" as="geometry" />
        </mxCell>
        <mxCell id="7OSFac52b7fZNywMgHIq-826" value="" style="rounded=1;whiteSpace=wrap;html=1;fillColor=#f8cecc;strokeColor=#b85450;" vertex="1" parent="1">
          <mxGeometry x="600.75" y="1376" width="40" height="10" as="geometry" />
        </mxCell>
        <mxCell id="7OSFac52b7fZNywMgHIq-827" value="" style="rounded=1;whiteSpace=wrap;html=1;fillColor=#f8cecc;strokeColor=#b85450;" vertex="1" parent="1">
          <mxGeometry x="600.75" y="1336" width="40" height="10" as="geometry" />
        </mxCell>
        <mxCell id="7OSFac52b7fZNywMgHIq-837" value="" style="rounded=1;whiteSpace=wrap;html=1;fillColor=#dae8fc;strokeColor=#6c8ebf;" vertex="1" parent="1">
          <mxGeometry x="558.41" y="1296" width="40" height="10" as="geometry" />
        </mxCell>
        <mxCell id="7OSFac52b7fZNywMgHIq-838" value="9&amp;nbsp; &amp;nbsp; &amp;nbsp;" style="rounded=1;whiteSpace=wrap;html=1;fillColor=#dae8fc;strokeColor=#6c8ebf;" vertex="1" parent="1">
          <mxGeometry x="598.41" y="1296" width="40" height="10" as="geometry" />
        </mxCell>
        <mxCell id="7OSFac52b7fZNywMgHIq-846" value="" style="rounded=1;whiteSpace=wrap;html=1;fillColor=#dae8fc;strokeColor=#6c8ebf;" vertex="1" parent="1">
          <mxGeometry x="278.75" y="1296" width="40" height="10" as="geometry" />
        </mxCell>
        <mxCell id="7OSFac52b7fZNywMgHIq-847" value="" style="rounded=1;whiteSpace=wrap;html=1;fillColor=#dae8fc;strokeColor=#6c8ebf;" vertex="1" parent="1">
          <mxGeometry x="398.75" y="1296" width="40" height="10" as="geometry" />
        </mxCell>
        <mxCell id="7OSFac52b7fZNywMgHIq-848" value="0" style="rounded=1;whiteSpace=wrap;html=1;fillColor=#dae8fc;strokeColor=#6c8ebf;" vertex="1" parent="1">
          <mxGeometry x="199.75" y="1056" width="40" height="10" as="geometry" />
        </mxCell>
        <mxCell id="7OSFac52b7fZNywMgHIq-849" value="1" style="rounded=1;whiteSpace=wrap;html=1;fillColor=#dae8fc;strokeColor=#6c8ebf;" vertex="1" parent="1">
          <mxGeometry x="239.8" y="1056" width="40" height="10" as="geometry" />
        </mxCell>
        <mxCell id="7OSFac52b7fZNywMgHIq-850" value="0" style="rounded=1;whiteSpace=wrap;html=1;fillColor=#dae8fc;strokeColor=#6c8ebf;" vertex="1" parent="1">
          <mxGeometry x="279.8" y="1056" width="40" height="10" as="geometry" />
        </mxCell>
        <mxCell id="7OSFac52b7fZNywMgHIq-851" value="1" style="rounded=1;whiteSpace=wrap;html=1;fillColor=#dae8fc;strokeColor=#6c8ebf;" vertex="1" parent="1">
          <mxGeometry x="319.8" y="1056" width="40" height="10" as="geometry" />
        </mxCell>
        <mxCell id="7OSFac52b7fZNywMgHIq-852" value="2" style="rounded=1;whiteSpace=wrap;html=1;fillColor=#dae8fc;strokeColor=#6c8ebf;" vertex="1" parent="1">
          <mxGeometry x="359.8" y="1056" width="40" height="10" as="geometry" />
        </mxCell>
        <mxCell id="7OSFac52b7fZNywMgHIq-853" value="tap_ptr" style="text;html=1;align=center;verticalAlign=middle;whiteSpace=wrap;rounded=0;fillColor=#dae8fc;strokeColor=#6c8ebf;" vertex="1" parent="1">
          <mxGeometry x="89.5" y="1046" width="60" height="30" as="geometry" />
        </mxCell>
        <mxCell id="7OSFac52b7fZNywMgHIq-854" value="0" style="rounded=1;whiteSpace=wrap;html=1;fillColor=#dae8fc;strokeColor=#6c8ebf;" vertex="1" parent="1">
          <mxGeometry x="399.8" y="1056" width="40" height="10" as="geometry" />
        </mxCell>
        <mxCell id="7OSFac52b7fZNywMgHIq-855" value="1" style="rounded=1;whiteSpace=wrap;html=1;fillColor=#dae8fc;strokeColor=#6c8ebf;" vertex="1" parent="1">
          <mxGeometry x="439.8" y="1056" width="40" height="10" as="geometry" />
        </mxCell>
        <mxCell id="7OSFac52b7fZNywMgHIq-953" style="edgeStyle=elbowEdgeStyle;rounded=0;orthogonalLoop=1;jettySize=auto;html=1;exitX=0;exitY=0.5;exitDx=0;exitDy=0;entryX=0;entryY=0.5;entryDx=0;entryDy=0;fontSize=12;startSize=8;endSize=8;" edge="1" parent="1" source="7OSFac52b7fZNywMgHIq-868" target="7OSFac52b7fZNywMgHIq-853">
          <mxGeometry relative="1" as="geometry">
            <Array as="points">
              <mxPoint x="60" y="1107" />
            </Array>
          </mxGeometry>
        </mxCell>
        <mxCell id="7OSFac52b7fZNywMgHIq-868" value="tap_count" style="text;html=1;align=center;verticalAlign=middle;whiteSpace=wrap;rounded=0;fillColor=#dae8fc;strokeColor=#6c8ebf;" vertex="1" parent="1">
          <mxGeometry x="89.5" y="1127" width="60" height="30" as="geometry" />
        </mxCell>
        <mxCell id="7OSFac52b7fZNywMgHIq-869" value="0" style="rounded=1;whiteSpace=wrap;html=1;fillColor=#dae8fc;strokeColor=#6c8ebf;" vertex="1" parent="1">
          <mxGeometry x="199.75" y="1137" width="40" height="10" as="geometry" />
        </mxCell>
        <mxCell id="7OSFac52b7fZNywMgHIq-870" value="1" style="rounded=1;whiteSpace=wrap;html=1;fillColor=#dae8fc;strokeColor=#6c8ebf;" vertex="1" parent="1">
          <mxGeometry x="239.75" y="1137" width="80" height="10" as="geometry" />
        </mxCell>
        <mxCell id="7OSFac52b7fZNywMgHIq-871" value="2" style="rounded=1;whiteSpace=wrap;html=1;fillColor=#dae8fc;strokeColor=#6c8ebf;" vertex="1" parent="1">
          <mxGeometry x="319.75" y="1137" width="120" height="10" as="geometry" />
        </mxCell>
        <mxCell id="7OSFac52b7fZNywMgHIq-872" value="3" style="rounded=1;whiteSpace=wrap;html=1;fillColor=#dae8fc;strokeColor=#6c8ebf;" vertex="1" parent="1">
          <mxGeometry x="439.75" y="1137" width="159" height="10" as="geometry" />
        </mxCell>
        <mxCell id="7OSFac52b7fZNywMgHIq-889" value="2" style="rounded=1;whiteSpace=wrap;html=1;fillColor=#dae8fc;strokeColor=#6c8ebf;" vertex="1" parent="1">
          <mxGeometry x="479.8" y="1056" width="40" height="10" as="geometry" />
        </mxCell>
        <mxCell id="7OSFac52b7fZNywMgHIq-890" value="3" style="rounded=1;whiteSpace=wrap;html=1;fillColor=#dae8fc;strokeColor=#6c8ebf;" vertex="1" parent="1">
          <mxGeometry x="519.8" y="1056" width="40" height="10" as="geometry" />
        </mxCell>
        <mxCell id="7OSFac52b7fZNywMgHIq-891" value="0" style="rounded=1;whiteSpace=wrap;html=1;fillColor=#dae8fc;strokeColor=#6c8ebf;" vertex="1" parent="1">
          <mxGeometry x="559.8" y="1056" width="40" height="10" as="geometry" />
        </mxCell>
        <mxCell id="7OSFac52b7fZNywMgHIq-911" value="t0" style="rounded=1;whiteSpace=wrap;html=1;fillColor=#f8cecc;strokeColor=#b85450;" vertex="1" parent="1">
          <mxGeometry x="199.75" y="1096" width="40" height="10" as="geometry" />
        </mxCell>
        <mxCell id="7OSFac52b7fZNywMgHIq-912" value="t1" style="rounded=1;whiteSpace=wrap;html=1;fillColor=#f8cecc;strokeColor=#b85450;" vertex="1" parent="1">
          <mxGeometry x="279.75" y="1096" width="40" height="10" as="geometry" />
        </mxCell>
        <mxCell id="7OSFac52b7fZNywMgHIq-913" value="t0" style="rounded=1;whiteSpace=wrap;html=1;fillColor=#f8cecc;strokeColor=#b85450;" vertex="1" parent="1">
          <mxGeometry x="319.75" y="1096" width="40" height="10" as="geometry" />
        </mxCell>
        <mxCell id="7OSFac52b7fZNywMgHIq-914" value="t1" style="rounded=1;whiteSpace=wrap;html=1;fillColor=#f8cecc;strokeColor=#b85450;" vertex="1" parent="1">
          <mxGeometry x="359.75" y="1096" width="40" height="10" as="geometry" />
        </mxCell>
        <mxCell id="7OSFac52b7fZNywMgHIq-915" value="t2" style="rounded=1;whiteSpace=wrap;html=1;fillColor=#f8cecc;strokeColor=#b85450;" vertex="1" parent="1">
          <mxGeometry x="399.75" y="1096" width="40" height="10" as="geometry" />
        </mxCell>
        <mxCell id="7OSFac52b7fZNywMgHIq-916" value="tap_data" style="text;html=1;align=center;verticalAlign=middle;whiteSpace=wrap;rounded=0;fillColor=#f8cecc;strokeColor=#b85450;" vertex="1" parent="1">
          <mxGeometry x="89.5" y="1086" width="60" height="30" as="geometry" />
        </mxCell>
        <mxCell id="7OSFac52b7fZNywMgHIq-917" value="t0" style="rounded=1;whiteSpace=wrap;html=1;fillColor=#f8cecc;strokeColor=#b85450;" vertex="1" parent="1">
          <mxGeometry x="439.75" y="1096" width="40" height="10" as="geometry" />
        </mxCell>
        <mxCell id="7OSFac52b7fZNywMgHIq-918" value="t1" style="rounded=1;whiteSpace=wrap;html=1;fillColor=#f8cecc;strokeColor=#b85450;" vertex="1" parent="1">
          <mxGeometry x="479.75" y="1096" width="40" height="10" as="geometry" />
        </mxCell>
        <mxCell id="7OSFac52b7fZNywMgHIq-919" value="t2" style="rounded=1;whiteSpace=wrap;html=1;fillColor=#f8cecc;strokeColor=#b85450;" vertex="1" parent="1">
          <mxGeometry x="520.25" y="1096" width="40" height="10" as="geometry" />
        </mxCell>
        <mxCell id="7OSFac52b7fZNywMgHIq-920" value="t3" style="rounded=1;whiteSpace=wrap;html=1;fillColor=#f8cecc;strokeColor=#b85450;" vertex="1" parent="1">
          <mxGeometry x="561" y="1096" width="40" height="10" as="geometry" />
        </mxCell>
        <mxCell id="7OSFac52b7fZNywMgHIq-921" value="t0" style="rounded=1;whiteSpace=wrap;html=1;fillColor=#f8cecc;strokeColor=#b85450;" vertex="1" parent="1">
          <mxGeometry x="600.75" y="1096" width="40" height="10" as="geometry" />
        </mxCell>
        <mxCell id="7OSFac52b7fZNywMgHIq-922" value="t0" style="rounded=1;whiteSpace=wrap;html=1;fillColor=#f8cecc;strokeColor=#b85450;" vertex="1" parent="1">
          <mxGeometry x="239.75" y="1096" width="40" height="10" as="geometry" />
        </mxCell>
        <mxCell id="7OSFac52b7fZNywMgHIq-932" style="edgeStyle=none;curved=1;rounded=0;orthogonalLoop=1;jettySize=auto;html=1;exitX=0.5;exitY=1;exitDx=0;exitDy=0;entryX=0.5;entryY=0;entryDx=0;entryDy=0;fontSize=12;startSize=8;endSize=8;fillColor=#dae8fc;strokeColor=#6c8ebf;" edge="1" parent="1" source="7OSFac52b7fZNywMgHIq-924" target="7OSFac52b7fZNywMgHIq-736">
          <mxGeometry relative="1" as="geometry" />
        </mxCell>
        <mxCell id="7OSFac52b7fZNywMgHIq-924" value="1" style="rounded=1;whiteSpace=wrap;html=1;fillColor=#dae8fc;strokeColor=#6c8ebf;" vertex="1" parent="1">
          <mxGeometry x="200.05" y="896" width="40" height="10" as="geometry" />
        </mxCell>
        <mxCell id="7OSFac52b7fZNywMgHIq-925" value="0" style="rounded=1;whiteSpace=wrap;html=1;fillColor=#dae8fc;strokeColor=#6c8ebf;" vertex="1" parent="1">
          <mxGeometry x="159.75" y="1056" width="40" height="10" as="geometry" />
        </mxCell>
        <mxCell id="7OSFac52b7fZNywMgHIq-927" value="" style="endArrow=none;dashed=1;html=1;dashPattern=1 3;strokeWidth=2;rounded=0;fontSize=12;startSize=8;endSize=8;curved=1;" edge="1" parent="1">
          <mxGeometry width="50" height="50" relative="1" as="geometry">
            <mxPoint x="200" y="1426" as="sourcePoint" />
            <mxPoint x="200" y="860" as="targetPoint" />
          </mxGeometry>
        </mxCell>
        <mxCell id="7OSFac52b7fZNywMgHIq-934" style="edgeStyle=none;curved=1;rounded=0;orthogonalLoop=1;jettySize=auto;html=1;fontSize=12;startSize=8;endSize=8;fillColor=#dae8fc;strokeColor=#6c8ebf;exitX=0.5;exitY=1;exitDx=0;exitDy=0;entryX=0.5;entryY=0;entryDx=0;entryDy=0;" edge="1" parent="1" source="7OSFac52b7fZNywMgHIq-733" target="7OSFac52b7fZNywMgHIq-737">
          <mxGeometry relative="1" as="geometry">
            <mxPoint x="270" y="910" as="sourcePoint" />
            <mxPoint x="260" y="936" as="targetPoint" />
          </mxGeometry>
        </mxCell>
        <mxCell id="7OSFac52b7fZNywMgHIq-935" style="edgeStyle=none;curved=1;rounded=0;orthogonalLoop=1;jettySize=auto;html=1;exitX=0.5;exitY=1;exitDx=0;exitDy=0;entryX=0.5;entryY=0;entryDx=0;entryDy=0;fontSize=12;startSize=8;endSize=8;" edge="1" parent="1">
          <mxGeometry relative="1" as="geometry">
            <mxPoint x="179.75" y="1066" as="sourcePoint" />
            <mxPoint x="219.75" y="1096" as="targetPoint" />
          </mxGeometry>
        </mxCell>
        <mxCell id="7OSFac52b7fZNywMgHIq-936" style="edgeStyle=none;curved=1;rounded=0;orthogonalLoop=1;jettySize=auto;html=1;exitX=0.5;exitY=1;exitDx=0;exitDy=0;entryX=0.5;entryY=0;entryDx=0;entryDy=0;fontSize=12;startSize=8;endSize=8;" edge="1" parent="1">
          <mxGeometry relative="1" as="geometry">
            <mxPoint x="220.75" y="1066" as="sourcePoint" />
            <mxPoint x="260.75" y="1096" as="targetPoint" />
          </mxGeometry>
        </mxCell>
        <mxCell id="7OSFac52b7fZNywMgHIq-952" value="0" style="rounded=1;whiteSpace=wrap;html=1;fillColor=#dae8fc;strokeColor=#6c8ebf;" vertex="1" parent="1">
          <mxGeometry x="160" y="1137" width="40" height="10" as="geometry" />
        </mxCell>
        <mxCell id="7OSFac52b7fZNywMgHIq-955" value="reset" style="text;html=1;align=center;verticalAlign=middle;whiteSpace=wrap;rounded=0;fontSize=16;" vertex="1" parent="1">
          <mxGeometry x="10" y="1086" width="60" height="30" as="geometry" />
        </mxCell>
        <mxCell id="7OSFac52b7fZNywMgHIq-956" value="" style="endArrow=none;html=1;rounded=0;fontSize=12;startSize=8;endSize=8;curved=1;" edge="1" parent="1">
          <mxGeometry width="50" height="50" relative="1" as="geometry">
            <mxPoint x="40" y="1026" as="sourcePoint" />
            <mxPoint x="680" y="1026" as="targetPoint" />
          </mxGeometry>
        </mxCell>
        <mxCell id="7OSFac52b7fZNywMgHIq-957" value="" style="endArrow=none;html=1;rounded=0;fontSize=12;startSize=8;endSize=8;curved=1;" edge="1" parent="1">
          <mxGeometry width="50" height="50" relative="1" as="geometry">
            <mxPoint x="40.25" y="1186" as="sourcePoint" />
            <mxPoint x="680.25" y="1186" as="targetPoint" />
          </mxGeometry>
        </mxCell>
        <mxCell id="7OSFac52b7fZNywMgHIq-958" value="0" style="rounded=1;whiteSpace=wrap;html=1;fillColor=#dae8fc;strokeColor=#6c8ebf;" vertex="1" parent="1">
          <mxGeometry x="759" y="2480" width="40" height="10" as="geometry" />
        </mxCell>
        <mxCell id="7OSFac52b7fZNywMgHIq-959" value="Port Table" style="shape=table;startSize=30;container=1;collapsible=0;childLayout=tableLayout;fontStyle=1" vertex="1" parent="1">
          <mxGeometry y="2201" width="440" height="369" as="geometry" />
        </mxCell>
        <mxCell id="7OSFac52b7fZNywMgHIq-960" value="" style="shape=tableRow;horizontal=0;startSize=0;swimlaneHead=0;swimlaneBody=0;strokeColor=inherit;top=0;left=0;bottom=0;right=0;collapsible=0;dropTarget=0;fillColor=none;points=[[0,0.5],[1,0.5]];portConstraint=eastwest;" vertex="1" parent="7OSFac52b7fZNywMgHIq-959">
          <mxGeometry y="30" width="440" height="30" as="geometry" />
        </mxCell>
        <mxCell id="7OSFac52b7fZNywMgHIq-961" value="ss_tready" style="shape=partialRectangle;html=1;whiteSpace=wrap;connectable=0;strokeColor=#b85450;overflow=hidden;fillColor=#f8cecc;top=0;left=0;bottom=0;right=0;pointerEvents=1;fontStyle=1" vertex="1" parent="7OSFac52b7fZNywMgHIq-960">
          <mxGeometry width="100" height="30" as="geometry">
            <mxRectangle width="100" height="30" as="alternateBounds" />
          </mxGeometry>
        </mxCell>
        <mxCell id="7OSFac52b7fZNywMgHIq-962" value="&lt;span style=&quot;text-align: left;&quot;&gt;(ss_tvalid &amp;amp; tap_ptr == 0)&lt;/span&gt;" style="shape=partialRectangle;html=1;whiteSpace=wrap;connectable=0;strokeColor=inherit;overflow=hidden;fillColor=none;top=0;left=0;bottom=0;right=0;pointerEvents=1;" vertex="1" parent="7OSFac52b7fZNywMgHIq-960">
          <mxGeometry x="100" width="340" height="30" as="geometry">
            <mxRectangle width="340" height="30" as="alternateBounds" />
          </mxGeometry>
        </mxCell>
        <mxCell id="7OSFac52b7fZNywMgHIq-963" value="" style="shape=tableRow;horizontal=0;startSize=0;swimlaneHead=0;swimlaneBody=0;strokeColor=inherit;top=0;left=0;bottom=0;right=0;collapsible=0;dropTarget=0;fillColor=none;points=[[0,0.5],[1,0.5]];portConstraint=eastwest;" vertex="1" parent="7OSFac52b7fZNywMgHIq-959">
          <mxGeometry y="60" width="440" height="30" as="geometry" />
        </mxCell>
        <mxCell id="7OSFac52b7fZNywMgHIq-964" value="&lt;span style=&quot;text-align: left;&quot;&gt;x_data&lt;/span&gt;" style="shape=partialRectangle;html=1;whiteSpace=wrap;connectable=0;strokeColor=#b85450;overflow=hidden;fillColor=#f8cecc;top=0;left=0;bottom=0;right=0;pointerEvents=1;fontStyle=1" vertex="1" parent="7OSFac52b7fZNywMgHIq-963">
          <mxGeometry width="100" height="30" as="geometry">
            <mxRectangle width="100" height="30" as="alternateBounds" />
          </mxGeometry>
        </mxCell>
        <mxCell id="7OSFac52b7fZNywMgHIq-965" value="&lt;span style=&quot;text-align: left;&quot;&gt;ss_tdata.&lt;/span&gt;" style="shape=partialRectangle;html=1;whiteSpace=wrap;connectable=0;strokeColor=inherit;overflow=hidden;fillColor=none;top=0;left=0;bottom=0;right=0;pointerEvents=1;" vertex="1" parent="7OSFac52b7fZNywMgHIq-963">
          <mxGeometry x="100" width="340" height="30" as="geometry">
            <mxRectangle width="340" height="30" as="alternateBounds" />
          </mxGeometry>
        </mxCell>
        <mxCell id="7OSFac52b7fZNywMgHIq-966" value="" style="shape=tableRow;horizontal=0;startSize=0;swimlaneHead=0;swimlaneBody=0;strokeColor=inherit;top=0;left=0;bottom=0;right=0;collapsible=0;dropTarget=0;fillColor=none;points=[[0,0.5],[1,0.5]];portConstraint=eastwest;" vertex="1" parent="7OSFac52b7fZNywMgHIq-959">
          <mxGeometry y="90" width="440" height="29" as="geometry" />
        </mxCell>
        <mxCell id="7OSFac52b7fZNywMgHIq-967" value="&lt;span style=&quot;text-align: left;&quot;&gt;latch_final&lt;/span&gt;" style="shape=partialRectangle;html=1;whiteSpace=wrap;connectable=0;strokeColor=#b85450;overflow=hidden;fillColor=#f8cecc;top=0;left=0;bottom=0;right=0;pointerEvents=1;fontStyle=1" vertex="1" parent="7OSFac52b7fZNywMgHIq-966">
          <mxGeometry width="100" height="29" as="geometry">
            <mxRectangle width="100" height="29" as="alternateBounds" />
          </mxGeometry>
        </mxCell>
        <mxCell id="7OSFac52b7fZNywMgHIq-968" value="&lt;span style=&quot;text-align: left;&quot;&gt;latch&amp;nbsp;&lt;/span&gt;&lt;span style=&quot;text-align: left;&quot;&gt;ss_tdata&lt;/span&gt;&lt;span style=&quot;text-align: left;&quot;&gt;.&lt;/span&gt;" style="shape=partialRectangle;html=1;whiteSpace=wrap;connectable=0;strokeColor=inherit;overflow=hidden;fillColor=none;top=0;left=0;bottom=0;right=0;pointerEvents=1;" vertex="1" parent="7OSFac52b7fZNywMgHIq-966">
          <mxGeometry x="100" width="340" height="29" as="geometry">
            <mxRectangle width="340" height="29" as="alternateBounds" />
          </mxGeometry>
        </mxCell>
        <mxCell id="7OSFac52b7fZNywMgHIq-969" value="" style="shape=tableRow;horizontal=0;startSize=0;swimlaneHead=0;swimlaneBody=0;strokeColor=inherit;top=0;left=0;bottom=0;right=0;collapsible=0;dropTarget=0;fillColor=none;points=[[0,0.5],[1,0.5]];portConstraint=eastwest;" vertex="1" parent="7OSFac52b7fZNywMgHIq-959">
          <mxGeometry y="119" width="440" height="30" as="geometry" />
        </mxCell>
        <mxCell id="7OSFac52b7fZNywMgHIq-970" value="&lt;div style=&quot;text-align: left;&quot;&gt;&lt;span style=&quot;background-color: initial;&quot;&gt;data_En&lt;/span&gt;&lt;/div&gt;" style="shape=partialRectangle;html=1;whiteSpace=wrap;connectable=0;strokeColor=#b85450;overflow=hidden;fillColor=#f8cecc;top=0;left=0;bottom=0;right=0;pointerEvents=1;fontStyle=1" vertex="1" parent="7OSFac52b7fZNywMgHIq-969">
          <mxGeometry width="100" height="30" as="geometry">
            <mxRectangle width="100" height="30" as="alternateBounds" />
          </mxGeometry>
        </mxCell>
        <mxCell id="7OSFac52b7fZNywMgHIq-971" value="&lt;span style=&quot;text-align: left;&quot;&gt;ss_tready&lt;/span&gt;" style="shape=partialRectangle;html=1;whiteSpace=wrap;connectable=0;strokeColor=inherit;overflow=hidden;fillColor=none;top=0;left=0;bottom=0;right=0;pointerEvents=1;" vertex="1" parent="7OSFac52b7fZNywMgHIq-969">
          <mxGeometry x="100" width="340" height="30" as="geometry">
            <mxRectangle width="340" height="30" as="alternateBounds" />
          </mxGeometry>
        </mxCell>
        <mxCell id="7OSFac52b7fZNywMgHIq-972" value="" style="shape=tableRow;horizontal=0;startSize=0;swimlaneHead=0;swimlaneBody=0;strokeColor=inherit;top=0;left=0;bottom=0;right=0;collapsible=0;dropTarget=0;fillColor=none;points=[[0,0.5],[1,0.5]];portConstraint=eastwest;" vertex="1" parent="7OSFac52b7fZNywMgHIq-959">
          <mxGeometry y="149" width="440" height="30" as="geometry" />
        </mxCell>
        <mxCell id="7OSFac52b7fZNywMgHIq-973" value="&lt;div style=&quot;text-align: left;&quot;&gt;&lt;span style=&quot;background-color: initial;&quot;&gt;data_addr&lt;/span&gt;&lt;/div&gt;" style="shape=partialRectangle;html=1;whiteSpace=wrap;connectable=0;strokeColor=#b85450;overflow=hidden;fillColor=#f8cecc;top=0;left=0;bottom=0;right=0;pointerEvents=1;fontStyle=1" vertex="1" parent="7OSFac52b7fZNywMgHIq-972">
          <mxGeometry width="100" height="30" as="geometry">
            <mxRectangle width="100" height="30" as="alternateBounds" />
          </mxGeometry>
        </mxCell>
        <mxCell id="7OSFac52b7fZNywMgHIq-974" value="&lt;span style=&quot;text-align: left;&quot;&gt;if(&lt;/span&gt;&lt;span style=&quot;font-weight: 700;&quot;&gt;pe_start &amp;amp;&amp;nbsp;&lt;/span&gt;&lt;span style=&quot;text-align: left;&quot;&gt;ss_tready&lt;/span&gt;&lt;span style=&quot;text-align: left;&quot;&gt;) xram_addr++&lt;/span&gt;" style="shape=partialRectangle;html=1;whiteSpace=wrap;connectable=0;strokeColor=inherit;overflow=hidden;fillColor=none;top=0;left=0;bottom=0;right=0;pointerEvents=1;" vertex="1" parent="7OSFac52b7fZNywMgHIq-972">
          <mxGeometry x="100" width="340" height="30" as="geometry">
            <mxRectangle width="340" height="30" as="alternateBounds" />
          </mxGeometry>
        </mxCell>
        <mxCell id="7OSFac52b7fZNywMgHIq-975" value="" style="shape=tableRow;horizontal=0;startSize=0;swimlaneHead=0;swimlaneBody=0;strokeColor=inherit;top=0;left=0;bottom=0;right=0;collapsible=0;dropTarget=0;fillColor=none;points=[[0,0.5],[1,0.5]];portConstraint=eastwest;" vertex="1" parent="7OSFac52b7fZNywMgHIq-959">
          <mxGeometry y="179" width="440" height="50" as="geometry" />
        </mxCell>
        <mxCell id="7OSFac52b7fZNywMgHIq-976" value="&lt;div style=&quot;text-align: left;&quot;&gt;&lt;span style=&quot;background-color: initial;&quot;&gt;data_ptr&lt;/span&gt;&lt;/div&gt;" style="shape=partialRectangle;html=1;whiteSpace=wrap;connectable=0;strokeColor=#b85450;overflow=hidden;fillColor=#f8cecc;top=0;left=0;bottom=0;right=0;pointerEvents=1;fontStyle=1" vertex="1" parent="7OSFac52b7fZNywMgHIq-975">
          <mxGeometry width="100" height="50" as="geometry">
            <mxRectangle width="100" height="50" as="alternateBounds" />
          </mxGeometry>
        </mxCell>
        <mxCell id="7OSFac52b7fZNywMgHIq-977" value="&lt;span style=&quot;text-align: left;&quot;&gt;reset when&amp;nbsp;&lt;/span&gt;&lt;span style=&quot;text-align: left;&quot;&gt;ss_tready&lt;/span&gt;&lt;span style=&quot;text-align: left;&quot;&gt;, reset to&amp;nbsp;&lt;/span&gt;&lt;span style=&quot;font-weight: 700; text-align: left;&quot;&gt;data_addr&lt;/span&gt;&lt;div&gt;&lt;span style=&quot;text-align: left;&quot;&gt;if(&lt;/span&gt;&lt;span style=&quot;font-weight: 700; background-color: initial;&quot;&gt;cal_on&lt;/span&gt;&lt;span style=&quot;text-align: left; background-color: initial;&quot;&gt;) any cycle sub one.&lt;/span&gt;&lt;/div&gt;" style="shape=partialRectangle;html=1;whiteSpace=wrap;connectable=0;strokeColor=inherit;overflow=hidden;fillColor=none;top=0;left=0;bottom=0;right=0;pointerEvents=1;" vertex="1" parent="7OSFac52b7fZNywMgHIq-975">
          <mxGeometry x="100" width="340" height="50" as="geometry">
            <mxRectangle width="340" height="50" as="alternateBounds" />
          </mxGeometry>
        </mxCell>
        <mxCell id="7OSFac52b7fZNywMgHIq-978" value="" style="shape=tableRow;horizontal=0;startSize=0;swimlaneHead=0;swimlaneBody=0;strokeColor=inherit;top=0;left=0;bottom=0;right=0;collapsible=0;dropTarget=0;fillColor=none;points=[[0,0.5],[1,0.5]];portConstraint=eastwest;" vertex="1" parent="7OSFac52b7fZNywMgHIq-959">
          <mxGeometry y="229" width="440" height="50" as="geometry" />
        </mxCell>
        <mxCell id="7OSFac52b7fZNywMgHIq-979" value="&lt;span style=&quot;text-align: left;&quot;&gt;tap_ptr&lt;/span&gt;" style="shape=partialRectangle;html=1;whiteSpace=wrap;connectable=0;strokeColor=#b85450;overflow=hidden;fillColor=#f8cecc;top=0;left=0;bottom=0;right=0;pointerEvents=1;fontStyle=1" vertex="1" parent="7OSFac52b7fZNywMgHIq-978">
          <mxGeometry width="100" height="50" as="geometry">
            <mxRectangle width="100" height="50" as="alternateBounds" />
          </mxGeometry>
        </mxCell>
        <mxCell id="7OSFac52b7fZNywMgHIq-980" value="&lt;span style=&quot;text-align: left;&quot;&gt;&lt;font color=&quot;#ff0000&quot;&gt;reset in tap_ptr == tap_count, reset to 0&lt;/font&gt;&lt;/span&gt;&lt;div&gt;&lt;span style=&quot;text-align: left;&quot;&gt;&lt;font color=&quot;#ff0000&quot;&gt;if(&lt;/font&gt;&lt;/span&gt;&lt;span style=&quot;font-weight: 700; background-color: initial;&quot;&gt;cal_on&lt;/span&gt;&lt;span style=&quot;background-color: initial; text-align: left;&quot;&gt;&lt;font color=&quot;#ff0000&quot;&gt;)&amp;nbsp;&lt;/font&gt;&lt;/span&gt;&lt;span style=&quot;background-color: initial; color: rgb(255, 0, 0); text-align: left;&quot;&gt;any cycle plus one.&lt;/span&gt;&lt;/div&gt;" style="shape=partialRectangle;html=1;whiteSpace=wrap;connectable=0;strokeColor=inherit;overflow=hidden;fillColor=none;top=0;left=0;bottom=0;right=0;pointerEvents=1;" vertex="1" parent="7OSFac52b7fZNywMgHIq-978">
          <mxGeometry x="100" width="340" height="50" as="geometry">
            <mxRectangle width="340" height="50" as="alternateBounds" />
          </mxGeometry>
        </mxCell>
        <mxCell id="7OSFac52b7fZNywMgHIq-984" style="shape=tableRow;horizontal=0;startSize=0;swimlaneHead=0;swimlaneBody=0;strokeColor=inherit;top=0;left=0;bottom=0;right=0;collapsible=0;dropTarget=0;fillColor=none;points=[[0,0.5],[1,0.5]];portConstraint=eastwest;" vertex="1" parent="7OSFac52b7fZNywMgHIq-959">
          <mxGeometry y="279" width="440" height="30" as="geometry" />
        </mxCell>
        <mxCell id="7OSFac52b7fZNywMgHIq-985" value="cal_on" style="shape=partialRectangle;html=1;whiteSpace=wrap;connectable=0;strokeColor=#b85450;overflow=hidden;fillColor=#f8cecc;top=0;left=0;bottom=0;right=0;pointerEvents=1;fontStyle=1" vertex="1" parent="7OSFac52b7fZNywMgHIq-984">
          <mxGeometry width="100" height="30" as="geometry">
            <mxRectangle width="100" height="30" as="alternateBounds" />
          </mxGeometry>
        </mxCell>
        <mxCell id="7OSFac52b7fZNywMgHIq-986" value="!(tap_ptr == 0 &amp;amp; ss_tready == 0)" style="shape=partialRectangle;html=1;whiteSpace=wrap;connectable=0;strokeColor=inherit;overflow=hidden;fillColor=none;top=0;left=0;bottom=0;right=0;pointerEvents=1;" vertex="1" parent="7OSFac52b7fZNywMgHIq-984">
          <mxGeometry x="100" width="340" height="30" as="geometry">
            <mxRectangle width="340" height="30" as="alternateBounds" />
          </mxGeometry>
        </mxCell>
        <mxCell id="7OSFac52b7fZNywMgHIq-987" style="shape=tableRow;horizontal=0;startSize=0;swimlaneHead=0;swimlaneBody=0;strokeColor=inherit;top=0;left=0;bottom=0;right=0;collapsible=0;dropTarget=0;fillColor=none;points=[[0,0.5],[1,0.5]];portConstraint=eastwest;" vertex="1" parent="7OSFac52b7fZNywMgHIq-959">
          <mxGeometry y="309" width="440" height="30" as="geometry" />
        </mxCell>
        <mxCell id="7OSFac52b7fZNywMgHIq-988" value="acc_on" style="shape=partialRectangle;html=1;whiteSpace=wrap;connectable=0;strokeColor=#b85450;overflow=hidden;fillColor=#f8cecc;top=0;left=0;bottom=0;right=0;pointerEvents=1;fontStyle=1" vertex="1" parent="7OSFac52b7fZNywMgHIq-987">
          <mxGeometry width="100" height="30" as="geometry">
            <mxRectangle width="100" height="30" as="alternateBounds" />
          </mxGeometry>
        </mxCell>
        <mxCell id="7OSFac52b7fZNywMgHIq-989" value="(tap_count &amp;gt; 0) &amp;amp; (tap_ptr != 1)" style="shape=partialRectangle;html=1;whiteSpace=wrap;connectable=0;strokeColor=inherit;overflow=hidden;fillColor=none;top=0;left=0;bottom=0;right=0;pointerEvents=1;" vertex="1" parent="7OSFac52b7fZNywMgHIq-987">
          <mxGeometry x="100" width="340" height="30" as="geometry">
            <mxRectangle width="340" height="30" as="alternateBounds" />
          </mxGeometry>
        </mxCell>
        <mxCell id="7OSFac52b7fZNywMgHIq-990" style="shape=tableRow;horizontal=0;startSize=0;swimlaneHead=0;swimlaneBody=0;strokeColor=inherit;top=0;left=0;bottom=0;right=0;collapsible=0;dropTarget=0;fillColor=none;points=[[0,0.5],[1,0.5]];portConstraint=eastwest;" vertex="1" parent="7OSFac52b7fZNywMgHIq-959">
          <mxGeometry y="339" width="440" height="30" as="geometry" />
        </mxCell>
        <mxCell id="7OSFac52b7fZNywMgHIq-991" value="pe_start" style="shape=partialRectangle;html=1;whiteSpace=wrap;connectable=0;strokeColor=#b85450;overflow=hidden;fillColor=#f8cecc;top=0;left=0;bottom=0;right=0;pointerEvents=1;fontStyle=1" vertex="1" parent="7OSFac52b7fZNywMgHIq-990">
          <mxGeometry width="100" height="30" as="geometry">
            <mxRectangle width="100" height="30" as="alternateBounds" />
          </mxGeometry>
        </mxCell>
        <mxCell id="7OSFac52b7fZNywMgHIq-992" value="(ss_tready) pe_start &amp;lt;= 1" style="shape=partialRectangle;html=1;whiteSpace=wrap;connectable=0;strokeColor=inherit;overflow=hidden;fillColor=none;top=0;left=0;bottom=0;right=0;pointerEvents=1;" vertex="1" parent="7OSFac52b7fZNywMgHIq-990">
          <mxGeometry x="100" width="340" height="30" as="geometry">
            <mxRectangle width="340" height="30" as="alternateBounds" />
          </mxGeometry>
        </mxCell>
      </root>
    </mxGraphModel>
  </diagram>
</mxfile>
